STARTFONT 2.1
COMMENT
COMMENT Converted from OpenType font "RobotoMono-Bold.ttf" by "otf2bdf 3.0".
COMMENT
FONT -FreeType-Roboto Mono-Bold-R-Normal--90-900-72-72-P-442-ISO10646-1
SIZE 90 72 72
FONTBOUNDINGBOX 116 119 -45 -23
STARTPROPERTIES 19
FOUNDRY "FreeType"
FAMILY_NAME "Roboto Mono"
WEIGHT_NAME "Bold"
SLANT "R"
SETWIDTH_NAME "Normal"
ADD_STYLE_NAME ""
PIXEL_SIZE 90
POINT_SIZE 900
RESOLUTION_X 72
RESOLUTION_Y 72
SPACING "P"
AVERAGE_WIDTH 442
CHARSET_REGISTRY "ISO10646"
CHARSET_ENCODING "1"
FONT_ASCENT 94
FONT_DESCENT 24
COPYRIGHT "Copyright 2015 The Roboto Mono Project Authors (https://github.com/googlefonts/robotomono)"
_OTF_FONTFILE "RobotoMono-Bold.ttf"
_OTF_PSNAME "RobotoMono-Bold"
ENDPROPERTIES
CHARS 876
STARTCHAR 000D
ENCODING 13
SWIDTH 600 0
DWIDTH 54 0
BBX 0 0 0 0
BITMAP
ENDCHAR
STARTCHAR 0020
ENCODING 32
SWIDTH 600 0
DWIDTH 54 0
BBX 0 0 0 0
BITMAP
ENDCHAR
STARTCHAR 0021
ENCODING 33
SWIDTH 600 0
DWIDTH 54 0
BBX 14 65 20 -1
BITMAP
7FF8
7FF8
7FF8
7FF8
7FF8
7FF8
7FF8
7FF8
7FF8
7FF8
7FF8
7FF8
7FF8
7FF8
7FF8
7FF8
7FF8
7FF8
7FF8
7FF8
7FF8
7FF8
7FF8
7FF8
7FF8
7FF8
7FF8
7FF8
7FF8
7FF8
7FF8
7FF8
7FF8
7FF8
7FF8
7FF8
7FF8
7FF8
7FF8
7FF8
7FF8
7FF8
0000
0000
0000
0000
0000
0000
0000
0000
0000
0FC0
3FF0
7FF0
7FF8
FFFC
FFFC
FFFC
FFFC
FFFC
FFFC
7FF8
7FF8
3FF0
0FC0
ENDCHAR
STARTCHAR 0022
ENCODING 34
SWIDTH 600 0
DWIDTH 54 0
BBX 27 23 12 45
BITMAP
FF803FE0
FF803FE0
FF803FE0
FF803FE0
FF803FE0
FF803FE0
FF803FE0
FF803FE0
FF803FE0
FF803FE0
FF803FE0
FF803FE0
FF003FC0
FF003FC0
FF003FC0
FF003FC0
FF003FC0
FF003FC0
FF003FC0
FF003FC0
FF003FC0
FF003FC0
FF003FC0
ENDCHAR
STARTCHAR 0023
ENCODING 35
SWIDTH 600 0
DWIDTH 54 0
BBX 49 65 2 0
BITMAP
00003FC01FE000
00003FC01FE000
00003FC01FE000
00003FC03FE000
00007F803FC000
00007F803FC000
00007F803FC000
00007F803FC000
00007F803FC000
00007F007F8000
0000FF007F8000
0000FF007F8000
0000FF007F8000
0000FF007F8000
0000FF007F8000
0001FE00FF0000
0001FE00FF0000
0001FE00FF0000
0001FE00FF0000
1FFFFFFFFFFF80
1FFFFFFFFFFF80
1FFFFFFFFFFF80
1FFFFFFFFFFF80
1FFFFFFFFFFF80
1FFFFFFFFFFF80
1FFFFFFFFFFF80
1FFFFFFFFFFF80
0007F803FC0000
0007F803FC0000
0007F803FC0000
0007F803FC0000
0007F803FC0000
000FF007F80000
000FF007F80000
000FF007F80000
000FF007F80000
000FF007F80000
001FE00FF00000
001FE00FF00000
FFFFFFFFFFFC00
FFFFFFFFFFFC00
FFFFFFFFFFFC00
FFFFFFFFFFFC00
FFFFFFFFFFFC00
FFFFFFFFFFFC00
FFFFFFFFFFFC00
FFFFFFFFFFFC00
003FC01FE00000
003FC03FC00000
007F803FC00000
007F803FC00000
007F803FC00000
007F803FC00000
007F803FC00000
00FF007F800000
00FF007F800000
00FF007F800000
00FF007F800000
00FF007F800000
00FF00FF000000
01FE00FF000000
01FE00FF000000
01FE00FF000000
01FE00FF000000
01FE00FF000000
ENDCHAR
STARTCHAR 0024
ENCODING 36
SWIDTH 600 0
DWIDTH 54 0
BBX 44 84 6 -9
BITMAP
00000FE00000
00000FE00000
00000FE00000
00000FE00000
00000FE00000
00000FE00000
00000FE00000
00000FE00000
00000FE00000
00001FE00000
0001FFFE0000
000FFFFFC000
003FFFFFF000
007FFFFFF800
00FFFFFFFC00
01FFFFFFFE00
03FFFFFFFF00
07FFFFFFFF80
07FFFFFFFF80
0FFFF03FFFC0
0FFFC00FFFC0
0FFF8007FFE0
1FFF0003FFE0
1FFF0001FFE0
1FFE0001FFF0
1FFE0001FFF0
1FFE0000FFF0
1FFE0000FFF0
1FFE0000FFF0
1FFE0000FFF0
1FFF00000000
1FFF00000000
1FFF80000000
0FFFC0000000
0FFFF0000000
07FFFC000000
07FFFF000000
03FFFFE00000
01FFFFF80000
00FFFFFE0000
007FFFFF8000
003FFFFFE000
000FFFFFF800
0007FFFFFC00
0001FFFFFE00
00003FFFFF00
00000FFFFF80
000001FFFFC0
0000007FFFC0
0000001FFFE0
00000007FFE0
00000003FFE0
00000001FFF0
00000001FFF0
FFF00000FFF0
FFF00000FFF0
FFF00000FFF0
FFF80000FFF0
FFF80000FFF0
FFF80000FFF0
7FFC0001FFF0
7FFC0001FFF0
7FFE0003FFF0
3FFF8007FFE0
3FFFE03FFFE0
1FFFFFFFFFC0
1FFFFFFFFFC0
0FFFFFFFFF80
07FFFFFFFF00
03FFFFFFFE00
01FFFFFFFC00
00FFFFFFF800
003FFFFFE000
000FFFFF8000
0001FFFC0000
00001FC00000
00001FC00000
00001FC00000
00001FC00000
00001FC00000
00001FC00000
00001FC00000
00001FC00000
00001FC00000
ENDCHAR
STARTCHAR 0025
ENCODING 37
SWIDTH 611 0
DWIDTH 55 0
BBX 51 66 2 -1
BITMAP
00FF8000000000
03FFE000000000
0FFFF800000000
1FFFFC00000000
3FFFFE00000000
3FFFFE00000000
7FFFFF00000000
7FC1FF00000000
FF80FF00100000
FF807F801E0000
FF007F803F8000
FF007F807F8000
FF007F807F8000
FF007F80FF0000
FF007F80FF0000
FF007F81FE0000
FF007F81FE0000
FF007F83FC0000
FF80FF83FC0000
FF80FF87F80000
7FC1FF07F00000
7FFFFF0FF00000
3FFFFE1FE00000
3FFFFE1FE00000
1FFFFC3FC00000
0FFFF83FC00000
03FFE07F800000
00FF807F800000
000000FF000000
000000FE000000
000001FE000000
000001FC000000
000003FC000000
000007F8000000
000007F8000000
00000FF0000000
00000FF0000000
00001FE0000000
00001FE03FE000
00003FC0FFF800
00003F83FFFE00
00007F87FFFF00
00007F0FFFFF80
0000FF0FFFFF80
0000FE1FFFFFC0
0001FE1FF07FC0
0003FC3FE03FE0
0003FC3FC01FE0
0007F83FC01FE0
0007F03FC01FE0
000FF03FC01FE0
000FE03FC01FE0
001FE03FC01FE0
001FC03FC01FE0
0007C03FC01FE0
0001803FC01FE0
0000003FE01FE0
0000003FE03FE0
0000001FF07FC0
0000001FFFFFC0
0000000FFFFF80
0000000FFFFF80
00000007FFFF00
00000003FFFE00
00000000FFF800
000000003FE000
ENDCHAR
STARTCHAR 0026
ENCODING 38
SWIDTH 588 0
DWIDTH 53 0
BBX 50 67 3 -1
BITMAP
00001FE0000000
0001FFFC000000
0007FFFE000000
000FFFFF800000
001FFFFFC00000
003FFFFFE00000
007FFFFFE00000
00FFFFFFF00000
00FFFFFFF80000
01FFFFFFF80000
01FFF87FF80000
01FFE03FFC0000
03FFC01FFC0000
03FFC00FFC0000
03FF800FFC0000
03FF800FFC0000
03FF800FFC0000
03FF800FFC0000
03FF800FFC0000
03FF801FF80000
03FFC01FF80000
03FFC03FF80000
01FFC0FFF00000
01FFE1FFE00000
01FFF3FFE00000
00FFFFFFC00000
00FFFFFF800000
007FFFFF000000
007FFFFE000000
003FFFFC000000
003FFFF0000000
001FFFE0000000
001FFFC0000000
003FFFC0000000
00FFFFE0000000
01FFFFF001FF80
03FFFFF001FF80
07FFFFF801FF80
0FFFFFFC01FF80
1FFFFFFE01FF80
1FFF7FFE03FF80
3FFE3FFF03FF80
3FFC1FFF83FF00
7FFC0FFFC3FF00
7FF807FFE7FF00
FFF807FFE7FF00
FFF003FFFFFE00
FFF001FFFFFE00
FFF000FFFFFE00
FFF0007FFFFC00
FFF0003FFFFC00
FFF8003FFFF800
FFF8001FFFF800
FFF8000FFFF000
7FFC0007FFE000
7FFE001FFFE000
7FFF80FFFFF000
3FFFFFFFFFF000
3FFFFFFFFFF800
1FFFFFFFFFFC00
0FFFFFFFFFFE00
0FFFFFFFFFFE00
03FFFFFFDFFF00
01FFFFFF9FFF80
007FFFFE0FFFC0
001FFFF007FFC0
0003FF80000000
ENDCHAR
STARTCHAR 0027
ENCODING 39
SWIDTH 600 0
DWIDTH 54 0
BBX 9 24 20 44
BITMAP
FF80
FF80
FF80
FF80
FF80
FF80
FF80
FF80
FF80
FF80
FF80
FF80
FF80
FF80
FF80
FF80
FF80
FF80
FF80
FF00
FF00
FF00
FF00
FF00
ENDCHAR
STARTCHAR 0028
ENCODING 40
SWIDTH 600 0
DWIDTH 54 0
BBX 25 92 15 -20
BITMAP
00000600
00000E00
00003E00
00007F00
0000FF00
0001FF00
0003FF80
0007FF00
000FFE00
001FFC00
003FF800
003FF000
007FE000
00FFE000
00FFC000
01FFC000
01FF8000
03FF0000
03FF0000
07FF0000
07FE0000
0FFE0000
0FFC0000
0FFC0000
1FFC0000
1FF80000
1FF80000
3FF80000
3FF80000
3FF80000
3FF00000
7FF00000
7FF00000
7FF00000
7FF00000
7FF00000
7FE00000
FFE00000
FFE00000
FFE00000
FFE00000
FFE00000
FFE00000
FFE00000
FFE00000
FFE00000
FFE00000
FFE00000
FFE00000
FFE00000
FFE00000
FFE00000
FFE00000
FFE00000
FFE00000
7FE00000
7FF00000
7FF00000
7FF00000
7FF00000
7FF00000
3FF00000
3FF00000
3FF80000
3FF80000
1FF80000
1FF80000
1FFC0000
0FFC0000
0FFC0000
0FFE0000
07FE0000
07FE0000
03FF0000
03FF0000
03FF8000
01FF8000
00FFC000
00FFC000
007FE000
003FF000
003FF800
001FF800
000FFC00
0007FE00
0007FF80
0003FF00
0001FF00
00007F00
00003E00
00001E00
00000600
ENDCHAR
STARTCHAR 0029
ENCODING 41
SWIDTH 600 0
DWIDTH 54 0
BBX 25 92 14 -20
BITMAP
30000000
38000000
3E000000
7F000000
7F800000
7FC00000
FFE00000
7FF00000
3FF80000
1FFC0000
0FFC0000
07FE0000
03FF0000
03FF0000
01FF8000
01FFC000
00FFC000
00FFE000
007FE000
007FF000
003FF000
003FF000
001FF800
001FF800
001FFC00
001FFC00
000FFC00
000FFE00
000FFE00
000FFE00
0007FE00
0007FF00
0007FF00
0007FF00
0007FF00
0007FF00
0003FF00
0003FF80
0003FF80
0003FF80
0003FF80
0003FF80
0003FF80
0003FF80
0003FF80
0003FF80
0003FF80
0003FF80
0003FF80
0003FF80
0003FF80
0003FF80
0003FF80
0003FF80
0003FF80
0003FF00
0007FF00
0007FF00
0007FF00
0007FF00
0007FF00
0007FE00
0007FE00
000FFE00
000FFE00
000FFC00
000FFC00
001FFC00
001FF800
001FF800
003FF800
003FF000
003FF000
007FE000
007FE000
00FFC000
00FFC000
01FF8000
03FF8000
03FF0000
07FE0000
0FFE0000
0FFC0000
1FF80000
3FF00000
FFE00000
7FE00000
7F800000
7F000000
3E000000
3C000000
30000000
ENDCHAR
STARTCHAR 002A
ENCODING 42
SWIDTH 600 0
DWIDTH 54 0
BBX 45 45 7 19
BITMAP
00003FE00000
00003FE00000
00003FE00000
00003FE00000
00003FE00000
00003FE00000
00003FE00000
00003FE00000
00003FC00000
00003FC00000
00003FC00000
00003FC00000
30001FC00040
3E001FC001C0
3F801FC007E0
7FE01FC03FE0
7FF81FC0FFE0
7FFE1FC3FFE0
7FFFDFCFFFF0
FFFFFFFFFFF0
FFFFFFFFFFF0
3FFFFFFFFFF8
03FFFFFFFF80
003FFFFFF000
0003FFFF0000
00007FF00000
0000FFF00000
0001FFF80000
0003FFFC0000
0007FFFC0000
0007F9FE0000
000FF9FF0000
001FF0FF8000
003FE0FFC000
007FE07FE000
00FFC07FE000
01FFC03FF000
01FF801FF800
03FF801FFC00
07FF000FFE00
03FE000FFC00
01FE0007F800
007C0007F000
003C0003C000
000800018000
ENDCHAR
STARTCHAR 002B
ENCODING 43
SWIDTH 600 0
DWIDTH 54 0
BBX 44 47 4 7
BITMAP
0000FFF00000
0000FFF00000
0000FFF00000
0000FFF00000
0000FFF00000
0000FFF00000
0000FFF00000
0000FFF00000
0000FFF00000
0000FFF00000
0000FFF00000
0000FFF00000
0000FFF00000
0000FFF00000
0000FFF00000
0000FFF00000
0000FFF00000
0000FFF00000
FFFFFFFFFFF0
FFFFFFFFFFF0
FFFFFFFFFFF0
FFFFFFFFFFF0
FFFFFFFFFFF0
FFFFFFFFFFF0
FFFFFFFFFFF0
FFFFFFFFFFF0
FFFFFFFFFFF0
FFFFFFFFFFF0
FFFFFFFFFFF0
0000FFF00000
0000FFF00000
0000FFF00000
0000FFF00000
0000FFF00000
0000FFF00000
0000FFF00000
0000FFF00000
0000FFF00000
0000FFF00000
0000FFF00000
0000FFF00000
0000FFF00000
0000FFF00000
0000FFF00000
0000FFF00000
0000FFF00000
0000FFF00000
ENDCHAR
STARTCHAR 002C
ENCODING 44
SWIDTH 600 0
DWIDTH 54 0
BBX 15 29 16 -18
BITMAP
0FFE
0FFE
0FFE
0FFE
0FFE
0FFE
0FFE
0FFE
0FFE
0FFE
0FFE
0FFE
0FFE
0FFE
0FFC
0FFC
1FFC
1FFC
1FF8
1FF8
3FF0
3FF0
7FE0
7FE0
7FC0
FF80
3F80
0F00
0200
ENDCHAR
STARTCHAR 002D
ENCODING 45
SWIDTH 600 0
DWIDTH 54 0
BBX 37 10 12 24
BITMAP
FFFFFFFFF8
FFFFFFFFF8
FFFFFFFFF8
FFFFFFFFF8
FFFFFFFFF8
FFFFFFFFF8
FFFFFFFFF8
FFFFFFFFF8
FFFFFFFFF8
FFFFFFFFF8
ENDCHAR
STARTCHAR 002E
ENCODING 46
SWIDTH 611 0
DWIDTH 55 0
BBX 17 16 19 -1
BITMAP
07F000
1FFC00
3FFE00
7FFF00
7FFF00
FFFF80
FFFF80
FFFF80
FFFF80
FFFF80
FFFF80
7FFF00
7FFF00
3FFE00
1FFC00
07F000
ENDCHAR
STARTCHAR 002F
ENCODING 47
SWIDTH 600 0
DWIDTH 54 0
BBX 35 71 10 -6
BITMAP
000000FFE0
000001FFE0
000001FFC0
000001FFC0
000003FFC0
000003FF80
000003FF80
000007FF80
000007FF00
000007FF00
00000FFF00
00000FFE00
00000FFE00
00001FFE00
00001FFC00
00001FFC00
00003FFC00
00003FF800
00003FF800
00007FF800
00007FF000
0000FFF000
0000FFF000
0000FFE000
0001FFE000
0001FFE000
0001FFC000
0003FFC000
0003FF8000
0003FF8000
0007FF8000
0007FF0000
0007FF0000
000FFF0000
000FFE0000
000FFE0000
001FFE0000
001FFC0000
001FFC0000
003FFC0000
003FF80000
003FF80000
007FF80000
007FF00000
007FF00000
00FFF00000
00FFE00000
00FFE00000
01FFE00000
01FFC00000
01FFC00000
03FFC00000
03FF800000
03FF800000
07FF800000
07FF000000
07FF000000
0FFF000000
0FFE000000
0FFE000000
1FFE000000
1FFC000000
1FFC000000
3FFC000000
3FF8000000
3FF8000000
7FF8000000
7FF0000000
7FF0000000
FFF0000000
FFE0000000
ENDCHAR
STARTCHAR 0030
ENCODING 48
SWIDTH 600 0
DWIDTH 54 0
BBX 41 67 6 -1
BITMAP
0000FF800000
000FFFF80000
003FFFFE0000
007FFFFF0000
00FFFFFFC000
03FFFFFFE000
03FFFFFFF000
07FFFFFFF000
0FFFFFFFF800
0FFFFFFFFC00
1FFFC0FFFC00
1FFF007FFE00
3FFE003FFE00
3FFC001FFE00
7FFC000FFF00
7FF8000FFF00
7FF8000FFF00
7FF8000FFF00
7FF80007FF80
FFF00007FF80
FFF00007FF80
FFF00007FF80
FFF00007FF80
FFF0000FFF80
FFF0001FFF80
FFF0003FFF80
FFF000FFFF80
FFF001FFFF80
FFF003FFFF80
FFF007FFFF80
FFF01FFFFF80
FFF03FFFFF80
FFF07FF7FF80
FFF1FFC7FF80
FFF3FF87FF80
FFF7FF07FF80
FFFFFC07FF80
FFFFF807FF80
FFFFF007FF80
FFFFE007FF80
FFFF8007FF80
FFFF0007FF80
FFFE0007FF80
FFF80007FF80
FFF00007FF80
FFF00007FF80
FFF00007FF80
FFF00007FF80
7FF00007FF80
7FF8000FFF00
7FF8000FFF00
7FF8000FFF00
7FFC000FFF00
3FFC001FFE00
3FFE003FFE00
1FFF007FFE00
1FFFC0FFFC00
0FFFFFFFFC00
0FFFFFFFF800
07FFFFFFF000
03FFFFFFF000
03FFFFFFE000
00FFFFFFC000
007FFFFF8000
003FFFFE0000
000FFFF80000
0000FFC00000
ENDCHAR
STARTCHAR 0031
ENCODING 49
SWIDTH 600 0
DWIDTH 54 0
BBX 28 65 8 0
BITMAP
00000010
000000F0
000007F0
00001FF0
0000FFF0
0007FFF0
001FFFF0
00FFFFF0
07FFFFF0
3FFFFFF0
FFFFFFF0
FFFFFFF0
FFFFFFF0
FFFFFFF0
FFFFFFF0
FFFFFFF0
FFF8FFF0
FFC0FFF0
FE00FFF0
F800FFF0
C000FFF0
0000FFF0
0000FFF0
0000FFF0
0000FFF0
0000FFF0
0000FFF0
0000FFF0
0000FFF0
0000FFF0
0000FFF0
0000FFF0
0000FFF0
0000FFF0
0000FFF0
0000FFF0
0000FFF0
0000FFF0
0000FFF0
0000FFF0
0000FFF0
0000FFF0
0000FFF0
0000FFF0
0000FFF0
0000FFF0
0000FFF0
0000FFF0
0000FFF0
0000FFF0
0000FFF0
0000FFF0
0000FFF0
0000FFF0
0000FFF0
0000FFF0
0000FFF0
0000FFF0
0000FFF0
0000FFF0
0000FFF0
0000FFF0
0000FFF0
0000FFF0
0000FFF0
ENDCHAR
STARTCHAR 0032
ENCODING 50
SWIDTH 600 0
DWIDTH 54 0
BBX 45 65 3 0
BITMAP
00007FF00000
0003FFFF0000
000FFFFFC000
003FFFFFF000
00FFFFFFF800
01FFFFFFFC00
03FFFFFFFE00
07FFFFFFFF00
0FFFFFFFFF00
1FFFFFFFFF80
1FFFE07FFF80
3FFF001FFFC0
3FFE0007FFC0
7FFC0007FFC0
7FFC0003FFE0
7FF80003FFE0
FFF80001FFE0
FFF80001FFE0
FFF00001FFE0
FFF00001FFE0
FFF00001FFE0
00000003FFE0
00000003FFE0
00000003FFC0
00000007FFC0
00000007FFC0
0000000FFF80
0000001FFF80
0000001FFF00
0000003FFF00
0000007FFE00
000000FFFE00
000001FFFC00
000001FFF800
000003FFF000
000007FFE000
00000FFFC000
00001FFFC000
00003FFF8000
00007FFF0000
0000FFFE0000
0001FFFC0000
0003FFF80000
0007FFF00000
000FFFE00000
001FFFC00000
003FFF800000
007FFF000000
00FFFE000000
00FFFC000000
01FFF8000000
03FFF0000000
07FFE0000000
0FFFC0000000
1FFF80000000
3FFFFFFFFFF8
7FFFFFFFFFF8
7FFFFFFFFFF8
7FFFFFFFFFF8
7FFFFFFFFFF8
7FFFFFFFFFF8
7FFFFFFFFFF8
7FFFFFFFFFF8
7FFFFFFFFFF8
7FFFFFFFFFF8
ENDCHAR
STARTCHAR 0033
ENCODING 51
SWIDTH 600 0
DWIDTH 54 0
BBX 44 67 4 -1
BITMAP
0000FFE00000
0007FFFE0000
001FFFFF8000
007FFFFFE000
01FFFFFFF800
03FFFFFFFC00
07FFFFFFFE00
0FFFFFFFFF00
0FFFFFFFFF00
1FFFFFFFFF80
3FFFE07FFF80
3FFF001FFFC0
3FFE0007FFC0
7FFC0007FFC0
7FFC0003FFE0
7FF80003FFE0
7FF80001FFE0
7FF80001FFE0
00000001FFE0
00000001FFE0
00000001FFE0
00000003FFE0
00000003FFC0
00000003FFC0
00000007FFC0
0000000FFF80
0000001FFF80
0000007FFF00
0003FFFFFE00
0003FFFFFC00
0003FFFFF800
0003FFFFF000
0003FFFFC000
0003FFFFE000
0003FFFFF800
0003FFFFFC00
0003FFFFFF00
0003FFFFFF80
0000007FFF80
0000000FFFC0
00000007FFC0
00000003FFE0
00000001FFE0
00000001FFE0
00000001FFF0
00000000FFF0
00000000FFF0
00000000FFF0
00000000FFF0
FFF00000FFF0
FFF00001FFF0
FFF80001FFF0
FFF80001FFF0
7FFC0003FFE0
7FFE0007FFE0
7FFF000FFFE0
3FFFC03FFFC0
3FFFFFFFFF80
1FFFFFFFFF80
0FFFFFFFFF00
0FFFFFFFFE00
03FFFFFFFC00
01FFFFFFF800
00FFFFFFE000
003FFFFFC000
000FFFFE0000
0000FFE00000
ENDCHAR
STARTCHAR 0034
ENCODING 52
SWIDTH 600 0
DWIDTH 54 0
BBX 47 65 3 0
BITMAP
0000003FFE00
0000003FFE00
0000007FFE00
000000FFFE00
000000FFFE00
000001FFFE00
000001FFFE00
000003FFFE00
000007FFFE00
000007FFFE00
00000FFFFE00
00000FFFFE00
00001FFFFE00
00003FFFFE00
00003FFFFE00
00007FFFFE00
0000FFFFFE00
0000FFDFFE00
0001FFDFFE00
0001FF9FFE00
0003FF9FFE00
0007FF1FFE00
0007FE1FFE00
000FFE1FFE00
000FFC1FFE00
001FF81FFE00
003FF81FFE00
003FF01FFE00
007FF01FFE00
00FFE01FFE00
00FFC01FFE00
01FFC01FFE00
01FF801FFE00
03FF001FFE00
07FF001FFE00
07FE001FFE00
0FFE001FFE00
0FFC001FFE00
1FF8001FFE00
3FF8001FFE00
3FF0001FFE00
7FFFFFFFFFFE
FFFFFFFFFFFE
FFFFFFFFFFFE
FFFFFFFFFFFE
FFFFFFFFFFFE
FFFFFFFFFFFE
FFFFFFFFFFFE
FFFFFFFFFFFE
FFFFFFFFFFFE
FFFFFFFFFFFE
0000001FFE00
0000001FFE00
0000001FFE00
0000001FFE00
0000001FFE00
0000001FFE00
0000001FFE00
0000001FFE00
0000001FFE00
0000001FFE00
0000001FFE00
0000001FFE00
0000001FFE00
0000001FFE00
ENDCHAR
STARTCHAR 0035
ENCODING 53
SWIDTH 600 0
DWIDTH 54 0
BBX 43 65 5 -1
BITMAP
03FFFFFFFF80
03FFFFFFFF80
07FFFFFFFF80
07FFFFFFFF80
07FFFFFFFF80
07FFFFFFFF80
07FFFFFFFF80
07FFFFFFFF80
07FFFFFFFF80
07FFFFFFFF80
07FF00000000
0FFF00000000
0FFE00000000
0FFE00000000
0FFE00000000
0FFE00000000
0FFE00000000
0FFE00000000
0FFE00000000
0FFE00000000
1FFE00000000
1FFC1FF80000
1FFCFFFF0000
1FFFFFFFC000
1FFFFFFFE000
1FFFFFFFF800
1FFFFFFFFC00
1FFFFFFFFE00
1FFFFFFFFE00
3FFFFFFFFF00
3FFFFFFFFF80
3FFF80FFFF80
1FFC003FFF80
01F8000FFFC0
00100007FFC0
00000007FFC0
00000003FFE0
00000003FFE0
00000003FFE0
00000001FFE0
00000001FFE0
00000001FFE0
00000001FFE0
00000001FFE0
00000001FFE0
00000001FFE0
FFF00001FFE0
7FF80003FFE0
7FF80003FFE0
7FF80003FFC0
7FFC0007FFC0
7FFC0007FFC0
3FFE000FFFC0
3FFF001FFF80
1FFFE07FFF80
1FFFFFFFFF00
0FFFFFFFFF00
07FFFFFFFE00
07FFFFFFFC00
01FFFFFFF800
00FFFFFFF000
007FFFFFE000
001FFFFF8000
0007FFFE0000
00007FE00000
ENDCHAR
STARTCHAR 0036
ENCODING 54
SWIDTH 600 0
DWIDTH 54 0
BBX 44 66 5 -1
BITMAP
0000003FC000
000007FFC000
00001FFFC000
00007FFFC000
0001FFFFC000
0007FFFFC000
000FFFFFC000
001FFFFFC000
003FFFFFC000
007FFFFFC000
00FFFFF00000
01FFFF800000
03FFFC000000
03FFF8000000
07FFE0000000
07FFC0000000
0FFF80000000
0FFF00000000
1FFF00000000
1FFE00000000
3FFC00000000
3FFC00000000
3FFC03FC0000
7FF81FFF8000
7FF87FFFE000
7FF9FFFFF000
7FFBFFFFFC00
7FF7FFFFFE00
FFFFFFFFFE00
FFFFFFFFFF00
FFFFFFFFFF80
FFFFFFFFFF80
FFFFE07FFFC0
FFFF001FFFC0
FFFE000FFFE0
FFFC0007FFE0
FFF80003FFE0
FFF80003FFE0
FFF00001FFF0
FFF00001FFF0
FFF00001FFF0
FFF00000FFF0
FFF00000FFF0
FFF00000FFF0
FFF00000FFF0
FFF00000FFF0
7FF80000FFF0
7FF80001FFF0
7FF80001FFF0
7FF80001FFE0
3FFC0003FFE0
3FFC0003FFE0
3FFE0007FFE0
1FFF000FFFC0
1FFF801FFFC0
0FFFE07FFF80
0FFFFFFFFF80
07FFFFFFFF00
03FFFFFFFE00
01FFFFFFFC00
00FFFFFFF800
007FFFFFF000
003FFFFFE000
000FFFFF8000
0003FFFE0000
00007FF00000
ENDCHAR
STARTCHAR 0037
ENCODING 55
SWIDTH 600 0
DWIDTH 54 0
BBX 45 65 3 0
BITMAP
FFFFFFFFFFF8
FFFFFFFFFFF8
FFFFFFFFFFF8
FFFFFFFFFFF8
FFFFFFFFFFF8
FFFFFFFFFFF8
FFFFFFFFFFF8
FFFFFFFFFFF8
FFFFFFFFFFF0
FFFFFFFFFFF0
00000000FFE0
00000001FFE0
00000001FFE0
00000001FFC0
00000003FFC0
00000003FF80
00000007FF80
00000007FF00
0000000FFF00
0000000FFF00
0000001FFE00
0000001FFE00
0000003FFC00
0000003FFC00
0000003FF800
0000007FF800
0000007FF800
000000FFF000
000000FFF000
000001FFE000
000001FFE000
000003FFC000
000003FFC000
000007FF8000
000007FF8000
00000FFF8000
00000FFF0000
00000FFF0000
00001FFE0000
00001FFE0000
00003FFC0000
00003FFC0000
00007FFC0000
00007FF80000
0000FFF80000
0000FFF00000
0001FFF00000
0001FFE00000
0003FFE00000
0003FFE00000
0003FFC00000
0007FFC00000
0007FF800000
000FFF800000
000FFF000000
001FFF000000
001FFF000000
003FFE000000
003FFE000000
007FFC000000
007FFC000000
007FF8000000
00FFF8000000
00FFF8000000
01FFF0000000
ENDCHAR
STARTCHAR 0038
ENCODING 56
SWIDTH 600 0
DWIDTH 54 0
BBX 43 67 5 -1
BITMAP
0000FFE00000
0007FFFC0000
001FFFFF0000
007FFFFFC000
00FFFFFFE000
01FFFFFFF000
03FFFFFFF800
07FFFFFFFC00
0FFFFFFFFE00
0FFFFFFFFE00
1FFFE0FFFF00
1FFF803FFF00
1FFF001FFF00
3FFE000FFF80
3FFE000FFF80
3FFC0007FF80
3FFC0007FF80
3FFC0007FF80
3FFC0007FF80
3FFC0007FF80
3FFC0007FF80
3FFC0007FF80
3FFC000FFF80
1FFE000FFF00
1FFE000FFF00
1FFF001FFF00
0FFF803FFE00
0FFFE0FFFE00
07FFFFFFFC00
03FFFFFFF800
01FFFFFFF000
00FFFFFFE000
003FFFFF8000
007FFFFFC000
01FFFFFFF000
03FFFFFFF800
07FFFFFFFC00
0FFFFFFFFE00
1FFFC07FFF00
3FFF001FFF80
3FFE000FFF80
7FFC0007FFC0
7FF80003FFC0
7FF80003FFC0
FFF80003FFE0
FFF00001FFE0
FFF00001FFE0
FFF00001FFE0
FFF00001FFE0
FFF00001FFE0
FFF80003FFE0
FFF80003FFE0
FFF80003FFE0
7FFC0007FFC0
7FFE000FFFC0
7FFF001FFFC0
3FFFC07FFF80
3FFFFFFFFF80
1FFFFFFFFF00
1FFFFFFFFF00
0FFFFFFFFE00
07FFFFFFFC00
03FFFFFFF800
00FFFFFFE000
003FFFFF8000
000FFFFE0000
0000FFE00000
ENDCHAR
STARTCHAR 0039
ENCODING 57
SWIDTH 600 0
DWIDTH 54 0
BBX 43 66 4 -1
BITMAP
0000FFC00000
0007FFF80000
001FFFFE0000
007FFFFF8000
00FFFFFFC000
01FFFFFFE000
03FFFFFFF800
07FFFFFFF800
0FFFFFFFFC00
0FFFFFFFFE00
1FFFE0FFFE00
1FFF803FFF00
3FFF001FFF00
3FFE000FFF80
7FFC0007FF80
7FFC0007FF80
7FF80003FFC0
FFF80003FFC0
FFF80003FFC0
FFF00003FFC0
FFF00001FFE0
FFF00001FFE0
FFF00001FFE0
FFF00001FFE0
FFF00001FFE0
FFF00001FFE0
FFF80001FFE0
FFF80001FFE0
FFF80001FFE0
7FFC0003FFE0
7FFC0003FFE0
7FFE0007FFE0
7FFE000FFFE0
3FFF801FFFE0
3FFFE07FFFE0
1FFFFFFFFFE0
1FFFFFFFFFE0
0FFFFFFFFFE0
07FFFFFFFFC0
03FFFFFFFFC0
01FFFFFDFFC0
00FFFFFBFFC0
007FFFF3FFC0
001FFFC3FF80
0003FE03FF80
00000007FF80
00000007FF80
0000000FFF00
0000000FFF00
0000001FFE00
0000003FFE00
0000007FFC00
000000FFFC00
000003FFF800
00000FFFF000
00007FFFF000
003FFFFFE000
003FFFFFC000
003FFFFF8000
003FFFFF0000
003FFFFC0000
003FFFF80000
003FFFE00000
003FFF800000
003FFC000000
003FC0000000
ENDCHAR
STARTCHAR 003A
ENCODING 58
SWIDTH 600 0
DWIDTH 54 0
BBX 17 53 19 -1
BITMAP
07F000
1FFC00
3FFE00
7FFF00
7FFF00
FFFF80
FFFF80
FFFF80
FFFF80
FFFF80
FFFF80
7FFF00
7FFF00
3FFE00
1FFC00
07F000
000000
000000
000000
000000
000000
000000
000000
000000
000000
000000
000000
000000
000000
000000
000000
000000
000000
000000
000000
000000
000000
07F000
1FFC00
3FFE00
7FFF00
7FFF00
FFFF80
FFFF80
FFFF80
FFFF80
FFFF80
FFFF80
7FFF00
7FFF00
3FFE00
1FFC00
07F000
ENDCHAR
STARTCHAR 003B
ENCODING 59
SWIDTH 600 0
DWIDTH 54 0
BBX 19 70 19 -18
BITMAP
01FC00
07FF00
0FFF80
1FFFC0
1FFFC0
3FFFE0
3FFFE0
3FFFE0
3FFFE0
3FFFE0
3FFFE0
1FFFC0
1FFFC0
0FFF80
07FF00
01FC00
000000
000000
000000
000000
000000
000000
000000
000000
000000
000000
000000
000000
000000
000000
000000
000000
000000
000000
000000
000000
000000
000000
000000
000000
000000
0FFE00
0FFE00
0FFE00
0FFE00
0FFE00
0FFE00
0FFE00
0FFE00
0FFE00
0FFE00
0FFE00
0FFE00
0FFE00
0FFE00
0FFC00
0FFC00
1FFC00
1FFC00
1FF800
1FF800
3FF000
3FF000
3FE000
7FE000
7FC000
FF8000
3F8000
0F0000
020000
ENDCHAR
STARTCHAR 003C
ENCODING 60
SWIDTH 600 0
DWIDTH 54 0
BBX 39 42 7 6
BITMAP
0000000002
000000001E
000000007E
00000003FE
0000000FFE
0000003FFE
000001FFFE
000007FFFE
00001FFFFE
0000FFFFFE
0003FFFFFE
001FFFFFFE
007FFFFFF8
01FFFFFFE0
0FFFFFFF00
3FFFFFF800
FFFFFFC000
FFFFFE0000
FFFFF00000
FFFF800000
FFFC000000
FFF0000000
FFFE000000
FFFFC00000
FFFFF80000
FFFFFF0000
7FFFFFE000
1FFFFFFC00
07FFFFFF80
00FFFFFFF0
003FFFFFFE
000FFFFFFE
0001FFFFFE
00007FFFFE
00000FFFFE
000003FFFE
000000FFFE
0000001FFE
00000007FE
00000000FE
000000003E
000000000E
ENDCHAR
STARTCHAR 003D
ENCODING 61
SWIDTH 611 0
DWIDTH 55 0
BBX 42 29 7 13
BITMAP
FFFFFFFFFFC0
FFFFFFFFFFC0
FFFFFFFFFFC0
FFFFFFFFFFC0
FFFFFFFFFFC0
FFFFFFFFFFC0
FFFFFFFFFFC0
FFFFFFFFFFC0
FFFFFFFFFFC0
FFFFFFFFFFC0
000000000000
000000000000
000000000000
000000000000
000000000000
000000000000
000000000000
000000000000
000000000000
FFFFFFFFFFC0
FFFFFFFFFFC0
FFFFFFFFFFC0
FFFFFFFFFFC0
FFFFFFFFFFC0
FFFFFFFFFFC0
FFFFFFFFFFC0
FFFFFFFFFFC0
FFFFFFFFFFC0
FFFFFFFFFFC0
ENDCHAR
STARTCHAR 003E
ENCODING 62
SWIDTH 600 0
DWIDTH 54 0
BBX 40 42 7 6
BITMAP
8000000000
F000000000
FC00000000
FF80000000
FFE0000000
FFF8000000
FFFF000000
FFFFC00000
FFFFF80000
FFFFFE0000
FFFFFFC000
FFFFFFF000
3FFFFFFC00
07FFFFFF80
00FFFFFFE0
001FFFFFFC
0003FFFFFF
00007FFFFF
00000FFFFF
000001FFFF
0000003FFF
0000001FFF
000000FFFF
000007FFFF
00003FFFFF
0001FFFFFF
000FFFFFFE
007FFFFFF8
03FFFFFFC0
1FFFFFFF00
FFFFFFF800
FFFFFFE000
FFFFFF8000
FFFFFC0000
FFFFF00000
FFFF800000
FFFE000000
FFF0000000
FFC0000000
FF00000000
F800000000
E000000000
ENDCHAR
STARTCHAR 003F
ENCODING 63
SWIDTH 600 0
DWIDTH 54 0
BBX 41 66 7 -1
BITMAP
0001FFE00000
001FFFFE0000
007FFFFF8000
01FFFFFFE000
03FFFFFFF000
07FFFFFFF800
0FFFFFFFFC00
1FFFFFFFFE00
3FFFFFFFFE00
3FFFFFFFFF00
7FFF80FFFF00
7FFE003FFF00
7FFC000FFF80
FFF8000FFF80
FFF80007FF80
FFF00007FF80
FFF00007FF80
FFF00007FF80
00000007FF80
00000007FF80
0000000FFF80
0000000FFF80
0000001FFF00
0000001FFF00
0000003FFE00
0000007FFE00
0000007FFC00
000000FFFC00
000001FFF800
000003FFF000
00000FFFE000
00001FFFC000
00003FFF8000
00007FFF0000
00007FFE0000
0000FFFC0000
0000FFF80000
0000FFF00000
0001FFE00000
0001FFE00000
0001FFC00000
0001FFC00000
0001FFC00000
0001FFC00000
0001FFC00000
000000000000
000000000000
000000000000
000000000000
000000000000
000000000000
000000000000
00007E000000
0001FF800000
0003FF800000
0003FFC00000
0007FFE00000
0007FFE00000
0007FFE00000
0007FFE00000
0007FFE00000
0007FFE00000
0003FFC00000
0003FFC00000
0001FF800000
00007E000000
ENDCHAR
STARTCHAR 0040
ENCODING 64
SWIDTH 611 0
DWIDTH 55 0
BBX 50 65 2 0
BITMAP
000003FF800000
00001FFFF00000
00007FFFFC0000
0001FFFFFF0000
0003FFFFFF8000
000FFFFFFFC000
001FFFFFFFE000
003FFE00FFF000
007FF0003FF800
00FFC0000FFC00
01FF000007FC00
01FE000003FE00
03FC000001FE00
07F8000000FE00
07F800FF00FF00
0FF003FFE07F00
0FE00FFFF07F80
1FE01FFFF83F80
1FC03FFFF83F80
1FC07FFFF83F80
3F807FFFF83F80
3F80FFC3F81FC0
3F80FF03F81FC0
7F01FE03F81FC0
7F01FE03F81FC0
7F03FC03F81FC0
7F03FC03F81FC0
FF03F803F81FC0
FE07F803F01FC0
FE07F807F01FC0
FE07F007F01FC0
FE07F007F01FC0
FE07F007F01FC0
FE07F007F01FC0
FE0FF007F01F80
FE0FF007F01F80
FE0FF007F03F80
FE0FF007F03F80
FE0FF007F03F80
FE0FF007F03F00
FE07F007E07F00
FE07F80FE07F00
7F07F80FE07E00
7F07FC1FF0FE00
7F07FE7FF1FC00
7F03FFFFFFFC00
7F83FFFFFFF800
7F81FFFBFFF000
3F80FFF1FFE000
3FC07FE0FFC000
3FC01F807F0000
1FE00000000000
1FF00000000000
0FF00000000000
0FFC0000000000
07FE0000000000
03FF8000600000
03FFF007E00000
01FFFFFFF00000
00FFFFFFF00000
003FFFFFF00000
001FFFFFF00000
0007FFFFE00000
0001FFFF800000
00001FF8000000
ENDCHAR
STARTCHAR 0041
ENCODING 65
SWIDTH 600 0
DWIDTH 54 0
BBX 53 65 1 0
BITMAP
000007FF800000
000007FF800000
00000FFF800000
00000FFFC00000
00000FFFC00000
00001FFFC00000
00001FFFC00000
00001FFFE00000
00003FFFE00000
00003FFFE00000
00003FFFF00000
00007FFFF00000
00007FFFF00000
00007FFFF80000
0000FFFFF80000
0000FFFFF80000
0000FFFFFC0000
0001FFFFFC0000
0001FFDFFC0000
0001FFCFFE0000
0001FFCFFE0000
0003FF8FFE0000
0003FF8FFF0000
0003FF87FF0000
0007FF07FF0000
0007FF07FF8000
0007FF03FF8000
000FFF03FF8000
000FFE03FFC000
000FFE03FFC000
001FFE01FFC000
001FFC01FFC000
001FFC01FFE000
003FFC00FFE000
003FFC00FFE000
003FF800FFF000
007FF800FFF000
007FF8007FF000
007FF0007FF800
00FFF0007FF800
00FFFFFFFFF800
00FFFFFFFFFC00
01FFFFFFFFFC00
01FFFFFFFFFC00
01FFFFFFFFFE00
03FFFFFFFFFE00
03FFFFFFFFFE00
03FFFFFFFFFF00
07FFFFFFFFFF00
07FFFFFFFFFF00
07FFFFFFFFFF80
0FFF80000FFF80
0FFF800007FF80
0FFF000007FF80
1FFF000007FFC0
1FFF000007FFC0
1FFE000003FFC0
1FFE000003FFE0
3FFE000003FFE0
3FFE000001FFE0
3FFC000001FFF0
7FFC000001FFF0
7FFC000001FFF0
7FFC000000FFF8
FFF8000000FFF8
ENDCHAR
STARTCHAR 0042
ENCODING 66
SWIDTH 600 0
DWIDTH 54 0
BBX 46 65 6 0
BITMAP
FFFFFFF00000
FFFFFFFF0000
FFFFFFFFE000
FFFFFFFFF800
FFFFFFFFFC00
FFFFFFFFFE00
FFFFFFFFFF00
FFFFFFFFFF80
FFFFFFFFFFC0
FFFFFFFFFFC0
FFF0003FFFE0
FFF00007FFE0
FFF00003FFF0
FFF00001FFF0
FFF00001FFF0
FFF00000FFF0
FFF00000FFF0
FFF00000FFF0
FFF00000FFF0
FFF00000FFF0
FFF00000FFF0
FFF00000FFF0
FFF00001FFE0
FFF00003FFE0
FFF00003FFE0
FFF0000FFFC0
FFF0003FFF80
FFFFFFFFFF80
FFFFFFFFFF00
FFFFFFFFFC00
FFFFFFFFF800
FFFFFFFFF000
FFFFFFFFFE00
FFFFFFFFFF00
FFFFFFFFFFC0
FFFFFFFFFFE0
FFF0000FFFE0
FFF00003FFF0
FFF00001FFF0
FFF00000FFF8
FFF000007FF8
FFF000007FF8
FFF000007FFC
FFF000003FFC
FFF000003FFC
FFF000003FFC
FFF000003FFC
FFF000003FFC
FFF000007FFC
FFF000007FFC
FFF000007FFC
FFF00000FFF8
FFF00001FFF8
FFF00003FFF8
FFF0001FFFF0
FFFFFFFFFFF0
FFFFFFFFFFE0
FFFFFFFFFFC0
FFFFFFFFFFC0
FFFFFFFFFF80
FFFFFFFFFE00
FFFFFFFFFC00
FFFFFFFFF000
FFFFFFFFC000
FFFFFFFC0000
ENDCHAR
STARTCHAR 0043
ENCODING 67
SWIDTH 588 0
DWIDTH 53 0
BBX 46 67 3 -1
BITMAP
00003FF80000
0001FFFF8000
0007FFFFE000
001FFFFFF800
003FFFFFFC00
007FFFFFFE00
00FFFFFFFF00
01FFFFFFFF80
03FFFFFFFFC0
07FFFFFFFFE0
07FFF01FFFE0
0FFFC003FFF0
0FFF8001FFF0
1FFF0000FFF8
1FFE0000FFF8
3FFE00007FF8
3FFC00007FFC
3FFC00003FFC
7FF800003FFC
7FF800003FFC
7FF800003FFC
7FF800003FFC
FFF800000000
FFF800000000
FFF000000000
FFF000000000
FFF000000000
FFF000000000
FFF000000000
FFF000000000
FFF000000000
FFF000000000
FFF000000000
FFF000000000
FFF000000000
FFF000000000
FFF000000000
FFF000000000
FFF000000000
FFF000000000
FFF000000000
FFF000000000
FFF000000000
FFF000000000
FFF800000000
7FF800000000
7FF800003FFC
7FF800003FFC
7FF800003FFC
7FFC00003FFC
3FFC00007FFC
3FFC00007FFC
3FFE0000FFF8
1FFF0000FFF8
1FFF8001FFF0
0FFFC003FFF0
07FFF01FFFE0
07FFFFFFFFE0
03FFFFFFFFC0
01FFFFFFFF80
01FFFFFFFF80
00FFFFFFFE00
003FFFFFFC00
001FFFFFF800
0007FFFFE000
0001FFFF8000
00003FF80000
ENDCHAR
STARTCHAR 0044
ENCODING 68
SWIDTH 588 0
DWIDTH 53 0
BBX 44 65 5 0
BITMAP
FFFFFC000000
FFFFFFC00000
FFFFFFF00000
FFFFFFFC0000
FFFFFFFF0000
FFFFFFFF8000
FFFFFFFFE000
FFFFFFFFF000
FFFFFFFFF800
FFFFFFFFFC00
FFF00FFFFC00
FFF001FFFE00
FFF0007FFF00
FFF0003FFF00
FFF0001FFF80
FFF0000FFF80
FFF00007FFC0
FFF00007FFC0
FFF00003FFC0
FFF00003FFE0
FFF00001FFE0
FFF00001FFE0
FFF00001FFE0
FFF00001FFF0
FFF00000FFF0
FFF00000FFF0
FFF00000FFF0
FFF00000FFF0
FFF00000FFF0
FFF00000FFF0
FFF00000FFF0
FFF00000FFF0
FFF00000FFF0
FFF00000FFF0
FFF00000FFF0
FFF00000FFF0
FFF00000FFF0
FFF00000FFF0
FFF00000FFF0
FFF00000FFF0
FFF00000FFF0
FFF00001FFF0
FFF00001FFF0
FFF00001FFE0
FFF00001FFE0
FFF00003FFE0
FFF00003FFC0
FFF00007FFC0
FFF00007FFC0
FFF0000FFF80
FFF0001FFF80
FFF0003FFF00
FFF0007FFF00
FFF000FFFE00
FFF007FFFC00
FFFFFFFFFC00
FFFFFFFFF800
FFFFFFFFF000
FFFFFFFFE000
FFFFFFFFC000
FFFFFFFF0000
FFFFFFFE0000
FFFFFFF80000
FFFFFFC00000
FFFFFE000000
ENDCHAR
STARTCHAR 0045
ENCODING 69
SWIDTH 600 0
DWIDTH 54 0
BBX 43 65 6 0
BITMAP
FFFFFFFFFFE0
FFFFFFFFFFE0
FFFFFFFFFFE0
FFFFFFFFFFE0
FFFFFFFFFFE0
FFFFFFFFFFE0
FFFFFFFFFFE0
FFFFFFFFFFE0
FFFFFFFFFFE0
FFFFFFFFFFE0
FFF000000000
FFF000000000
FFF000000000
FFF000000000
FFF000000000
FFF000000000
FFF000000000
FFF000000000
FFF000000000
FFF000000000
FFF000000000
FFF000000000
FFF000000000
FFF000000000
FFF000000000
FFF000000000
FFF000000000
FFFFFFFFFE00
FFFFFFFFFE00
FFFFFFFFFE00
FFFFFFFFFE00
FFFFFFFFFE00
FFFFFFFFFE00
FFFFFFFFFE00
FFFFFFFFFE00
FFFFFFFFFE00
FFFFFFFFFE00
FFF000000000
FFF000000000
FFF000000000
FFF000000000
FFF000000000
FFF000000000
FFF000000000
FFF000000000
FFF000000000
FFF000000000
FFF000000000
FFF000000000
FFF000000000
FFF000000000
FFF000000000
FFF000000000
FFF000000000
FFF000000000
FFFFFFFFFFE0
FFFFFFFFFFE0
FFFFFFFFFFE0
FFFFFFFFFFE0
FFFFFFFFFFE0
FFFFFFFFFFE0
FFFFFFFFFFE0
FFFFFFFFFFE0
FFFFFFFFFFE0
FFFFFFFFFFE0
ENDCHAR
STARTCHAR 0046
ENCODING 70
SWIDTH 611 0
DWIDTH 55 0
BBX 44 65 7 0
BITMAP
FFFFFFFFFFF0
FFFFFFFFFFF0
FFFFFFFFFFF0
FFFFFFFFFFF0
FFFFFFFFFFF0
FFFFFFFFFFF0
FFFFFFFFFFF0
FFFFFFFFFFF0
FFFFFFFFFFF0
FFFFFFFFFFF0
FFF000000000
FFF000000000
FFF000000000
FFF000000000
FFF000000000
FFF000000000
FFF000000000
FFF000000000
FFF000000000
FFF000000000
FFF000000000
FFF000000000
FFF000000000
FFF000000000
FFF000000000
FFF000000000
FFF000000000
FFF000000000
FFFFFFFFFF00
FFFFFFFFFF00
FFFFFFFFFF00
FFFFFFFFFF00
FFFFFFFFFF00
FFFFFFFFFF00
FFFFFFFFFF00
FFFFFFFFFF00
FFFFFFFFFF00
FFFFFFFFFF00
FFF000000000
FFF000000000
FFF000000000
FFF000000000
FFF000000000
FFF000000000
FFF000000000
FFF000000000
FFF000000000
FFF000000000
FFF000000000
FFF000000000
FFF000000000
FFF000000000
FFF000000000
FFF000000000
FFF000000000
FFF000000000
FFF000000000
FFF000000000
FFF000000000
FFF000000000
FFF000000000
FFF000000000
FFF000000000
FFF000000000
FFF000000000
ENDCHAR
STARTCHAR 0047
ENCODING 71
SWIDTH 600 0
DWIDTH 54 0
BBX 46 66 4 -1
BITMAP
00003FF80000
0001FFFF8000
0007FFFFE000
001FFFFFF800
003FFFFFFE00
007FFFFFFF00
00FFFFFFFF80
01FFFFFFFFC0
03FFFFFFFFC0
07FFFFFFFFE0
07FFF80FFFE0
0FFFE003FFF0
1FFF8001FFF0
1FFF0000FFF8
1FFF00007FF8
3FFE00007FF8
3FFE00007FFC
7FFC00003FFC
7FFC00003FFC
7FF800003FFC
7FF800000000
7FF800000000
FFF800000000
FFF800000000
FFF000000000
FFF000000000
FFF000000000
FFF000000000
FFF000000000
FFF000000000
FFF000000000
FFF000000000
FFF001FFFFFC
FFF001FFFFFC
FFF001FFFFFC
FFF001FFFFFC
FFF001FFFFFC
FFF001FFFFFC
FFF001FFFFFC
FFF001FFFFFC
FFF001FFFFFC
FFF000003FFC
FFF000003FFC
FFF800003FFC
7FF800003FFC
7FF800003FFC
7FF800003FFC
7FFC00003FFC
7FFC00003FFC
3FFC00003FFC
3FFE00003FFC
3FFE00003FFC
1FFF00003FFC
1FFF80007FFC
0FFFC000FFFC
0FFFF807FFFC
07FFFFFFFFFC
03FFFFFFFFFC
01FFFFFFFFF8
01FFFFFFFFF0
00FFFFFFFFE0
003FFFFFFF80
001FFFFFFF00
0007FFFFF800
0001FFFFC000
00001FFC0000
ENDCHAR
STARTCHAR 0048
ENCODING 72
SWIDTH 588 0
DWIDTH 53 0
BBX 42 65 5 0
BITMAP
FFF00003FFC0
FFF00003FFC0
FFF00003FFC0
FFF00003FFC0
FFF00003FFC0
FFF00003FFC0
FFF00003FFC0
FFF00003FFC0
FFF00003FFC0
FFF00003FFC0
FFF00003FFC0
FFF00003FFC0
FFF00003FFC0
FFF00003FFC0
FFF00003FFC0
FFF00003FFC0
FFF00003FFC0
FFF00003FFC0
FFF00003FFC0
FFF00003FFC0
FFF00003FFC0
FFF00003FFC0
FFF00003FFC0
FFF00003FFC0
FFF00003FFC0
FFF00003FFC0
FFF00003FFC0
FFFFFFFFFFC0
FFFFFFFFFFC0
FFFFFFFFFFC0
FFFFFFFFFFC0
FFFFFFFFFFC0
FFFFFFFFFFC0
FFFFFFFFFFC0
FFFFFFFFFFC0
FFFFFFFFFFC0
FFFFFFFFFFC0
FFF00003FFC0
FFF00003FFC0
FFF00003FFC0
FFF00003FFC0
FFF00003FFC0
FFF00003FFC0
FFF00003FFC0
FFF00003FFC0
FFF00003FFC0
FFF00003FFC0
FFF00003FFC0
FFF00003FFC0
FFF00003FFC0
FFF00003FFC0
FFF00003FFC0
FFF00003FFC0
FFF00003FFC0
FFF00003FFC0
FFF00003FFC0
FFF00003FFC0
FFF00003FFC0
FFF00003FFC0
FFF00003FFC0
FFF00003FFC0
FFF00003FFC0
FFF00003FFC0
FFF00003FFC0
FFF00003FFC0
ENDCHAR
STARTCHAR 0049
ENCODING 73
SWIDTH 600 0
DWIDTH 54 0
BBX 37 65 8 0
BITMAP
FFFFFFFFF8
FFFFFFFFF8
FFFFFFFFF8
FFFFFFFFF8
FFFFFFFFF8
FFFFFFFFF8
FFFFFFFFF8
FFFFFFFFF8
FFFFFFFFF8
FFFFFFFFF8
000FFF0000
000FFF0000
000FFF0000
000FFF0000
000FFF0000
000FFF0000
000FFF0000
000FFF0000
000FFF0000
000FFF0000
000FFF0000
000FFF0000
000FFF0000
000FFF0000
000FFF0000
000FFF0000
000FFF0000
000FFF0000
000FFF0000
000FFF0000
000FFF0000
000FFF0000
000FFF0000
000FFF0000
000FFF0000
000FFF0000
000FFF0000
000FFF0000
000FFF0000
000FFF0000
000FFF0000
000FFF0000
000FFF0000
000FFF0000
000FFF0000
000FFF0000
000FFF0000
000FFF0000
000FFF0000
000FFF0000
000FFF0000
000FFF0000
000FFF0000
000FFF0000
000FFF0000
FFFFFFFFF8
FFFFFFFFF8
FFFFFFFFF8
FFFFFFFFF8
FFFFFFFFF8
FFFFFFFFF8
FFFFFFFFF8
FFFFFFFFF8
FFFFFFFFF8
FFFFFFFFF8
ENDCHAR
STARTCHAR 004A
ENCODING 74
SWIDTH 600 0
DWIDTH 54 0
BBX 43 66 5 -1
BITMAP
00000001FFE0
00000001FFE0
00000001FFE0
00000001FFE0
00000001FFE0
00000001FFE0
00000001FFE0
00000001FFE0
00000001FFE0
00000001FFE0
00000001FFE0
00000001FFE0
00000001FFE0
00000001FFE0
00000001FFE0
00000001FFE0
00000001FFE0
00000001FFE0
00000001FFE0
00000001FFE0
00000001FFE0
00000001FFE0
00000001FFE0
00000001FFE0
00000001FFE0
00000001FFE0
00000001FFE0
00000001FFE0
00000001FFE0
00000001FFE0
00000001FFE0
00000001FFE0
00000001FFE0
00000001FFE0
00000001FFE0
00000001FFE0
00000001FFE0
00000001FFE0
00000001FFE0
00000001FFE0
00000001FFE0
00000001FFE0
00000001FFE0
00000001FFE0
00000001FFE0
00000001FFE0
FFF00001FFE0
FFF00001FFE0
FFF00001FFE0
FFF80003FFE0
FFF80003FFE0
7FF80007FFC0
7FFC0007FFC0
7FFC000FFFC0
7FFE001FFF80
3FFFC07FFF80
3FFFFFFFFF00
1FFFFFFFFE00
0FFFFFFFFE00
0FFFFFFFFC00
07FFFFFFF800
01FFFFFFE000
00FFFFFFC000
003FFFFF0000
000FFFFC0000
0000FFE00000
ENDCHAR
STARTCHAR 004B
ENCODING 75
SWIDTH 600 0
DWIDTH 54 0
BBX 49 65 6 0
BITMAP
FFF000007FFF00
FFF00000FFFF00
FFF00000FFFE00
FFF00001FFFC00
FFF00003FFF800
FFF00003FFF800
FFF00007FFF000
FFF0000FFFE000
FFF0000FFFC000
FFF0001FFFC000
FFF0003FFF8000
FFF0007FFF0000
FFF0007FFE0000
FFF000FFFE0000
FFF001FFFC0000
FFF001FFF80000
FFF003FFF00000
FFF007FFF00000
FFF00FFFE00000
FFF00FFFC00000
FFF01FFF800000
FFF03FFF800000
FFF03FFF000000
FFF07FFE000000
FFF0FFFC000000
FFF1FFFC000000
FFF1FFF8000000
FFF3FFF0000000
FFF7FFE0000000
FFFFFFF0000000
FFFFFFF0000000
FFFFFFF8000000
FFFFFFF8000000
FFFFFFFC000000
FFFFFFFE000000
FFFFFFFE000000
FFFFFFFF000000
FFFFFFFF800000
FFFFFFFF800000
FFFFCFFFC00000
FFFF8FFFC00000
FFFF07FFE00000
FFFE07FFF00000
FFFC03FFF00000
FFF801FFF80000
FFF801FFF80000
FFF000FFFC0000
FFF000FFFE0000
FFF0007FFE0000
FFF0003FFF0000
FFF0003FFF8000
FFF0001FFF8000
FFF0001FFFC000
FFF0000FFFC000
FFF00007FFE000
FFF00007FFF000
FFF00003FFF000
FFF00003FFF800
FFF00001FFF800
FFF00000FFFC00
FFF00000FFFE00
FFF000007FFE00
FFF000007FFF00
FFF000003FFF80
FFF000001FFF80
ENDCHAR
STARTCHAR 004C
ENCODING 76
SWIDTH 611 0
DWIDTH 55 0
BBX 43 65 7 0
BITMAP
FFF000000000
FFF000000000
FFF000000000
FFF000000000
FFF000000000
FFF000000000
FFF000000000
FFF000000000
FFF000000000
FFF000000000
FFF000000000
FFF000000000
FFF000000000
FFF000000000
FFF000000000
FFF000000000
FFF000000000
FFF000000000
FFF000000000
FFF000000000
FFF000000000
FFF000000000
FFF000000000
FFF000000000
FFF000000000
FFF000000000
FFF000000000
FFF000000000
FFF000000000
FFF000000000
FFF000000000
FFF000000000
FFF000000000
FFF000000000
FFF000000000
FFF000000000
FFF000000000
FFF000000000
FFF000000000
FFF000000000
FFF000000000
FFF000000000
FFF000000000
FFF000000000
FFF000000000
FFF000000000
FFF000000000
FFF000000000
FFF000000000
FFF000000000
FFF000000000
FFF000000000
FFF000000000
FFF000000000
FFF000000000
FFFFFFFFFFE0
FFFFFFFFFFE0
FFFFFFFFFFE0
FFFFFFFFFFE0
FFFFFFFFFFE0
FFFFFFFFFFE0
FFFFFFFFFFE0
FFFFFFFFFFE0
FFFFFFFFFFE0
FFFFFFFFFFE0
ENDCHAR
STARTCHAR 004D
ENCODING 77
SWIDTH 611 0
DWIDTH 55 0
BBX 44 65 6 0
BITMAP
FFFF000FFFF0
FFFF000FFFF0
FFFF000FFFF0
FFFF000FFFF0
FFFF801FFFF0
FFFF801FFFF0
FFFF801FFFF0
FFFF803FFFF0
FFFFC03FFFF0
FFFFC03FFFF0
FFFFC03FFFF0
FFFFC07FFFF0
FFFFE07FFFF0
FFFFE07FFFF0
FFFFE0FFFFF0
FFFFE0FFFFF0
FFFFF0FFFFF0
FFFFF0FF7FF0
FFEFF1FF7FF0
FFEFF1FF7FF0
FFEFF9FE7FF0
FFEFFBFE7FF0
FFE7FBFE7FF0
FFE7FBFE7FF0
FFE7FFFC7FF0
FFE7FFFC7FF0
FFE3FFFC7FF0
FFE3FFF87FF0
FFE3FFF87FF0
FFE1FFF87FF0
FFE1FFF87FF0
FFE1FFF07FF0
FFE1FFF07FF0
FFE0FFF07FF0
FFE0FFE07FF0
FFE0FFE07FF0
FFE0FFE07FF0
FFE07FC07FF0
FFE07FC07FF0
FFE07FC07FF0
FFE03FC07FF0
FFE03F807FF0
FFE03F807FF0
FFE03F807FF0
FFE000007FF0
FFE000007FF0
FFE000007FF0
FFE000007FF0
FFE000007FF0
FFE000007FF0
FFE000007FF0
FFE000007FF0
FFE000007FF0
FFE000007FF0
FFE000007FF0
FFE000007FF0
FFE000007FF0
FFE000007FF0
FFE000007FF0
FFE000007FF0
FFE000007FF0
FFE000007FF0
FFE000007FF0
FFE000007FF0
FFE000007FF0
ENDCHAR
STARTCHAR 004E
ENCODING 78
SWIDTH 588 0
DWIDTH 53 0
BBX 42 65 5 0
BITMAP
FFF00003FFC0
FFF80003FFC0
FFF80003FFC0
FFFC0003FFC0
FFFC0003FFC0
FFFE0003FFC0
FFFE0003FFC0
FFFE0003FFC0
FFFF0003FFC0
FFFF0003FFC0
FFFF8003FFC0
FFFF8003FFC0
FFFFC003FFC0
FFFFC003FFC0
FFFFC003FFC0
FFFFE003FFC0
FFFFE003FFC0
FFFFF003FFC0
FFFFF003FFC0
FFFFF803FFC0
FFFFF803FFC0
FFFFF803FFC0
FFFFFC03FFC0
FFFFFC03FFC0
FFF7FE03FFC0
FFF7FE03FFC0
FFF3FF03FFC0
FFF3FF03FFC0
FFF1FF03FFC0
FFF1FF83FFC0
FFF1FF83FFC0
FFF0FFC3FFC0
FFF0FFC3FFC0
FFF07FE3FFC0
FFF07FE3FFC0
FFF03FE3FFC0
FFF03FF3FFC0
FFF03FF3FFC0
FFF01FFBFFC0
FFF01FFBFFC0
FFF00FFBFFC0
FFF00FFFFFC0
FFF00FFFFFC0
FFF007FFFFC0
FFF007FFFFC0
FFF003FFFFC0
FFF003FFFFC0
FFF001FFFFC0
FFF001FFFFC0
FFF001FFFFC0
FFF000FFFFC0
FFF000FFFFC0
FFF0007FFFC0
FFF0007FFFC0
FFF0003FFFC0
FFF0003FFFC0
FFF0003FFFC0
FFF0001FFFC0
FFF0001FFFC0
FFF0000FFFC0
FFF0000FFFC0
FFF00007FFC0
FFF00007FFC0
FFF00007FFC0
FFF00003FFC0
ENDCHAR
STARTCHAR 004F
ENCODING 79
SWIDTH 611 0
DWIDTH 55 0
BBX 47 66 4 -1
BITMAP
00003FF00000
0001FFFF0000
000FFFFFC000
001FFFFFF000
007FFFFFF800
00FFFFFFFC00
01FFFFFFFE00
03FFFFFFFF00
03FFFFFFFF80
07FFFFFFFFC0
0FFFF03FFFC0
0FFFC007FFE0
1FFF8003FFF0
1FFF0001FFF0
3FFE0000FFF0
3FFC0000FFF8
3FFC00007FF8
7FFC00007FFC
7FF800003FFC
7FF800003FFC
7FF800003FFC
FFF800003FFC
FFF800003FFE
FFF000001FFE
FFF000001FFE
FFF000001FFE
FFF000001FFE
FFF000001FFE
FFF000001FFE
FFF000001FFE
FFF000001FFE
FFF000001FFE
FFF000001FFE
FFF000001FFE
FFF000001FFE
FFF000001FFE
FFF000001FFE
FFF000001FFE
FFF000001FFE
FFF000001FFE
FFF000001FFE
FFF000001FFE
FFF000003FFE
FFF800003FFE
FFF800003FFC
7FF800003FFC
7FF800003FFC
7FF800007FFC
7FFC00007FFC
3FFC00007FF8
3FFC0000FFF8
3FFE0000FFF8
1FFF0001FFF0
1FFF0003FFF0
0FFFC007FFE0
0FFFF01FFFC0
07FFFFFFFFC0
03FFFFFFFF80
03FFFFFFFF00
01FFFFFFFE00
00FFFFFFFC00
007FFFFFF800
001FFFFFF000
000FFFFFC000
0001FFFF0000
00003FF00000
ENDCHAR
STARTCHAR 0050
ENCODING 80
SWIDTH 600 0
DWIDTH 54 0
BBX 44 65 7 0
BITMAP
FFFFFFE00000
FFFFFFFE0000
FFFFFFFF8000
FFFFFFFFE000
FFFFFFFFF800
FFFFFFFFFC00
FFFFFFFFFE00
FFFFFFFFFF00
FFFFFFFFFF00
FFFFFFFFFF80
FFF0007FFFC0
FFF0001FFFC0
FFF00007FFE0
FFF00003FFE0
FFF00003FFE0
FFF00001FFF0
FFF00001FFF0
FFF00000FFF0
FFF00000FFF0
FFF00000FFF0
FFF00000FFF0
FFF00000FFF0
FFF00000FFF0
FFF00000FFF0
FFF00001FFF0
FFF00001FFF0
FFF00001FFE0
FFF00003FFE0
FFF00007FFE0
FFF0000FFFC0
FFF0007FFFC0
FFFFFFFFFF80
FFFFFFFFFF80
FFFFFFFFFF00
FFFFFFFFFE00
FFFFFFFFFC00
FFFFFFFFF800
FFFFFFFFE000
FFFFFFFF8000
FFFFFFFE0000
FFFFFFE00000
FFF000000000
FFF000000000
FFF000000000
FFF000000000
FFF000000000
FFF000000000
FFF000000000
FFF000000000
FFF000000000
FFF000000000
FFF000000000
FFF000000000
FFF000000000
FFF000000000
FFF000000000
FFF000000000
FFF000000000
FFF000000000
FFF000000000
FFF000000000
FFF000000000
FFF000000000
FFF000000000
FFF000000000
ENDCHAR
STARTCHAR 0051
ENCODING 81
SWIDTH 600 0
DWIDTH 54 0
BBX 50 76 4 -12
BITMAP
00003FF0000000
0001FFFF000000
0007FFFFC00000
001FFFFFF00000
003FFFFFF80000
00FFFFFFFC0000
01FFFFFFFE0000
03FFFFFFFF0000
03FFFFFFFF8000
07FFFFFFFFC000
0FFFF03FFFC000
0FFFC007FFE000
1FFF8003FFE000
1FFF0001FFF000
3FFE0000FFF000
3FFC0000FFF800
3FFC00007FF800
7FFC00007FF800
7FF800007FFC00
7FF800003FFC00
7FF800003FFC00
7FF800003FFC00
FFF800003FFE00
FFF000001FFE00
FFF000001FFE00
FFF000001FFE00
FFF000001FFE00
FFF000001FFE00
FFF000001FFE00
FFF000001FFE00
FFF000001FFE00
FFF000001FFE00
FFF000001FFE00
FFF000001FFE00
FFF000001FFE00
FFF000001FFE00
FFF000001FFE00
FFF000001FFE00
FFF000001FFE00
FFF000001FFE00
FFF000001FFE00
FFF000001FFE00
FFF000001FFE00
FFF000003FFE00
FFF800003FFE00
FFF800003FFE00
7FF800003FFC00
7FF800003FFC00
7FF800007FFC00
7FFC00007FFC00
3FFC0000FFF800
3FFE0000FFF800
1FFF0001FFF000
1FFF8003FFF000
0FFFC007FFE000
0FFFF01FFFE000
07FFFFFFFFC000
03FFFFFFFF8000
03FFFFFFFF8000
01FFFFFFFF0000
00FFFFFFFF0000
007FFFFFFF8000
001FFFFFFFC000
0007FFFFFFE000
0001FFFFFFF000
00003FF3FFF800
00000001FFFE00
00000000FFFF00
000000007FFF80
000000003FFFC0
000000001FFF80
000000000FFE00
0000000003FC00
0000000001F800
0000000000F000
00000000006000
ENDCHAR
STARTCHAR 0052
ENCODING 82
SWIDTH 600 0
DWIDTH 54 0
BBX 47 64 6 0
BITMAP
FFFFFFF00000
FFFFFFFF0000
FFFFFFFFE000
FFFFFFFFF800
FFFFFFFFFC00
FFFFFFFFFE00
FFFFFFFFFF00
FFFFFFFFFF80
FFFFFFFFFFC0
FFFFFFFFFFE0
FFF0003FFFE0
FFF0000FFFF0
FFF00003FFF0
FFF00001FFF0
FFF00001FFF0
FFF00000FFF8
FFF00000FFF8
FFF000007FF8
FFF000007FF8
FFF000007FF8
FFF000007FF8
FFF000007FF8
FFF000007FF8
FFF00000FFF8
FFF00000FFF0
FFF00001FFF0
FFF00001FFF0
FFF00003FFE0
FFF0000FFFE0
FFF0003FFFC0
FFFFFFFFFFC0
FFFFFFFFFF80
FFFFFFFFFF00
FFFFFFFFFE00
FFFFFFFFFC00
FFFFFFFFF000
FFFFFFFFE000
FFFFFFFFC000
FFFFFFFFC000
FFFFFFFFE000
FFF003FFE000
FFF001FFF000
FFF001FFF000
FFF000FFF800
FFF000FFFC00
FFF0007FFC00
FFF0007FFE00
FFF0003FFE00
FFF0003FFF00
FFF0001FFF00
FFF0001FFF80
FFF0000FFF80
FFF0000FFFC0
FFF00007FFC0
FFF00007FFE0
FFF00003FFE0
FFF00003FFF0
FFF00001FFF0
FFF00001FFF8
FFF00000FFF8
FFF00000FFFC
FFF000007FFC
FFF000007FFE
FFF000003FFE
ENDCHAR
STARTCHAR 0053
ENCODING 83
SWIDTH 600 0
DWIDTH 54 0
BBX 47 66 4 -1
BITMAP
00001FFC0000
0001FFFFC000
000FFFFFF000
003FFFFFFC00
007FFFFFFF00
01FFFFFFFF80
03FFFFFFFFC0
07FFFFFFFFE0
07FFFFFFFFF0
0FFFFFFFFFF0
1FFFF00FFFF8
1FFFC001FFF8
1FFF0000FFFC
3FFE00007FFC
3FFE00003FFE
3FFC00003FFE
3FFC00001FFE
3FFC00001FFE
3FFC00001FFE
3FFC00001FFE
3FFC00000000
3FFE00000000
3FFF00000000
1FFF80000000
1FFFE0000000
0FFFF0000000
0FFFFE000000
07FFFFC00000
03FFFFF80000
01FFFFFF0000
00FFFFFFC000
007FFFFFF000
003FFFFFFC00
000FFFFFFE00
0003FFFFFF80
0000FFFFFFC0
00003FFFFFE0
000003FFFFE0
0000007FFFF0
0000000FFFF8
00000003FFF8
00000001FFFC
000000007FFC
000000003FFE
000000003FFE
FFF000001FFE
FFF000001FFE
FFF000001FFE
FFF800001FFE
FFF800001FFE
7FF800001FFE
7FFC00003FFE
7FFE00003FFE
3FFF00007FFC
3FFF8001FFFC
1FFFF007FFFC
1FFFFFFFFFF8
0FFFFFFFFFF8
07FFFFFFFFF0
03FFFFFFFFE0
01FFFFFFFFC0
007FFFFFFF80
003FFFFFFE00
000FFFFFF800
0001FFFFE000
00001FFE0000
ENDCHAR
STARTCHAR 0054
ENCODING 84
SWIDTH 600 0
DWIDTH 54 0
BBX 52 65 1 0
BITMAP
FFFFFFFFFFFFF0
FFFFFFFFFFFFF0
FFFFFFFFFFFFF0
FFFFFFFFFFFFF0
FFFFFFFFFFFFF0
FFFFFFFFFFFFF0
FFFFFFFFFFFFF0
FFFFFFFFFFFFF0
FFFFFFFFFFFFF0
FFFFFFFFFFFFF0
00000FFF000000
00000FFF000000
00000FFF000000
00000FFF000000
00000FFF000000
00000FFF000000
00000FFF000000
00000FFF000000
00000FFF000000
00000FFF000000
00000FFF000000
00000FFF000000
00000FFF000000
00000FFF000000
00000FFF000000
00000FFF000000
00000FFF000000
00000FFF000000
00000FFF000000
00000FFF000000
00000FFF000000
00000FFF000000
00000FFF000000
00000FFF000000
00000FFF000000
00000FFF000000
00000FFF000000
00000FFF000000
00000FFF000000
00000FFF000000
00000FFF000000
00000FFF000000
00000FFF000000
00000FFF000000
00000FFF000000
00000FFF000000
00000FFF000000
00000FFF000000
00000FFF000000
00000FFF000000
00000FFF000000
00000FFF000000
00000FFF000000
00000FFF000000
00000FFF000000
00000FFF000000
00000FFF000000
00000FFF000000
00000FFF000000
00000FFF000000
00000FFF000000
00000FFF000000
00000FFF000000
00000FFF000000
00000FFF000000
ENDCHAR
STARTCHAR 0055
ENCODING 85
SWIDTH 611 0
DWIDTH 55 0
BBX 43 66 6 -1
BITMAP
FFF00001FFE0
FFF00001FFE0
FFF00001FFE0
FFF00001FFE0
FFF00001FFE0
FFF00001FFE0
FFF00001FFE0
FFF00001FFE0
FFF00001FFE0
FFF00001FFE0
FFF00001FFE0
FFF00001FFE0
FFF00001FFE0
FFF00001FFE0
FFF00001FFE0
FFF00001FFE0
FFF00001FFE0
FFF00001FFE0
FFF00001FFE0
FFF00001FFE0
FFF00001FFE0
FFF00001FFE0
FFF00001FFE0
FFF00001FFE0
FFF00001FFE0
FFF00001FFE0
FFF00001FFE0
FFF00001FFE0
FFF00001FFE0
FFF00001FFE0
FFF00001FFE0
FFF00001FFE0
FFF00001FFE0
FFF00001FFE0
FFF00001FFE0
FFF00001FFE0
FFF00001FFE0
FFF00001FFE0
FFF00001FFE0
FFF00001FFE0
FFF00001FFE0
FFF00001FFE0
FFF00001FFE0
FFF00001FFE0
FFF00001FFE0
FFF00001FFE0
FFF00001FFE0
FFF00003FFE0
FFF80003FFE0
7FF80003FFC0
7FF80003FFC0
7FFC0007FFC0
7FFC0007FFC0
3FFE000FFF80
3FFF001FFF80
1FFFC07FFF00
1FFFFFFFFF00
0FFFFFFFFE00
0FFFFFFFFE00
07FFFFFFFC00
03FFFFFFF800
01FFFFFFF000
007FFFFFC000
003FFFFF8000
0007FFFC0000
0000FFE00000
ENDCHAR
STARTCHAR 0056
ENCODING 86
SWIDTH 600 0
DWIDTH 54 0
BBX 51 65 1 0
BITMAP
FFFC000003FFE0
7FFC000003FFE0
7FFE000007FFE0
7FFE000007FFE0
3FFE000007FFC0
3FFE000007FFC0
3FFF00000FFFC0
1FFF00000FFF80
1FFF00000FFF80
1FFF00000FFF80
1FFF80001FFF80
0FFF80001FFF00
0FFF80001FFF00
0FFF80001FFF00
07FFC0003FFE00
07FFC0003FFE00
07FFC0003FFE00
03FFC0003FFC00
03FFE0007FFC00
03FFE0007FFC00
03FFE0007FFC00
01FFE000FFF800
01FFF000FFF800
01FFF000FFF800
00FFF000FFF000
00FFF801FFF000
00FFF801FFF000
007FF801FFE000
007FF801FFE000
007FFC03FFE000
007FFC03FFE000
003FFC03FFC000
003FFC03FFC000
003FFE07FFC000
001FFE07FF8000
001FFE07FF8000
001FFE07FF8000
000FFF0FFF0000
000FFF0FFF0000
000FFF0FFF0000
000FFF0FFF0000
0007FF9FFE0000
0007FF9FFE0000
0007FF9FFE0000
0003FF9FFC0000
0003FFFFFC0000
0003FFFFFC0000
0003FFFFF80000
0001FFFFF80000
0001FFFFF80000
0001FFFFF80000
0000FFFFF00000
0000FFFFF00000
0000FFFFF00000
00007FFFE00000
00007FFFE00000
00007FFFE00000
00007FFFE00000
00003FFFC00000
00003FFFC00000
00003FFFC00000
00001FFF800000
00001FFF800000
00001FFF800000
00000FFF000000
ENDCHAR
STARTCHAR 0057
ENCODING 87
SWIDTH 600 0
DWIDTH 54 0
BBX 52 65 1 0
BITMAP
FFF007FC007FF0
FFF007FE007FF0
FFF007FE00FFF0
7FF007FE00FFF0
7FF007FE00FFE0
7FF007FE00FFE0
7FF007FE00FFE0
7FF00FFE00FFE0
7FF00FFF00FFE0
7FF80FFF00FFE0
3FF80FFF01FFE0
3FF80FFF01FFC0
3FF80FFF01FFC0
3FF80FFF01FFC0
3FF81FFF01FFC0
3FF81FFF81FFC0
3FF81FFF81FFC0
3FFC1FFF81FFC0
1FFC1FFF83FFC0
1FFC1FFF83FF80
1FFC1FFF83FF80
1FFC3FFF83FF80
1FFC3FFFC3FF80
1FFC3FFFC3FF80
1FFC3FFFC3FF80
0FFC3FFFC3FF80
0FFE3FFFC3FF00
0FFE3FFFC7FF00
0FFE7FFFE7FF00
0FFE7FFFE7FF00
0FFE7FBFE7FF00
0FFE7F9FE7FF00
07FE7F9FE7FF00
07FE7F9FE7FE00
07FF7F9FE7FE00
07FF7F9FFFFE00
07FFFF1FFFFE00
07FFFF0FFFFE00
07FFFF0FFFFE00
07FFFF0FFFFE00
03FFFF0FFFFE00
03FFFF0FFFFC00
03FFFF0FFFFC00
03FFFE07FFFC00
03FFFE07FFFC00
03FFFE07FFFC00
03FFFE07FFFC00
01FFFE07FFFC00
01FFFE07FFF800
01FFFC03FFF800
01FFFC03FFF800
01FFFC03FFF800
01FFFC03FFF800
01FFFC03FFF800
00FFFC03FFF800
00FFFC03FFF000
00FFF801FFF000
00FFF801FFF000
00FFF801FFF000
00FFF801FFF000
00FFF801FFF000
00FFF801FFF000
007FF000FFF000
007FF000FFE000
007FF000FFE000
ENDCHAR
STARTCHAR 0058
ENCODING 88
SWIDTH 600 0
DWIDTH 54 0
BBX 51 65 2 0
BITMAP
FFFC000007FFE0
7FFE00000FFFC0
7FFE00000FFFC0
3FFF00001FFF80
3FFF00001FFF80
1FFF80003FFF00
1FFF80003FFF00
0FFFC0007FFE00
07FFC0007FFE00
07FFE000FFFC00
03FFE000FFF800
03FFF001FFF800
01FFF001FFF000
01FFF803FFF000
00FFF803FFE000
00FFFC07FFE000
007FFC07FFC000
003FFE0FFFC000
003FFE0FFF8000
001FFF1FFF0000
001FFF1FFF0000
000FFFBFFE0000
000FFFBFFE0000
0007FFFFFC0000
0007FFFFFC0000
0003FFFFF80000
0001FFFFF00000
0001FFFFF00000
0000FFFFE00000
0000FFFFE00000
00007FFFC00000
00007FFFC00000
00003FFF800000
00007FFFC00000
0000FFFFE00000
0000FFFFE00000
0001FFFFF00000
0001FFFFF00000
0003FFFFF80000
0003FFFFF80000
0007FFFFFC0000
0007FFFFFE0000
000FFFBFFE0000
001FFF9FFF0000
001FFF1FFF0000
003FFF0FFF8000
003FFE0FFF8000
007FFE07FFC000
007FFC07FFC000
00FFFC03FFE000
01FFF803FFF000
01FFF801FFF000
03FFF001FFF800
03FFF000FFF800
07FFE000FFFC00
07FFE0007FFC00
0FFFC0007FFE00
0FFFC0003FFF00
1FFF80003FFF00
3FFF80001FFF80
3FFF00001FFF80
7FFF00000FFFC0
7FFE00000FFFC0
FFFE000007FFE0
FFFC000007FFE0
ENDCHAR
STARTCHAR 0059
ENCODING 89
SWIDTH 600 0
DWIDTH 54 0
BBX 52 65 1 0
BITMAP
FFFC000001FFF0
7FFC000003FFF0
7FFE000003FFE0
3FFE000007FFE0
3FFF000007FFC0
1FFF00000FFFC0
1FFF00000FFF80
0FFF80000FFF80
0FFF80001FFF00
07FFC0001FFF00
07FFC0003FFE00
03FFE0003FFE00
03FFE0003FFC00
01FFE0007FFC00
01FFF0007FFC00
01FFF000FFF800
00FFF800FFF800
00FFF801FFF000
007FFC01FFF000
007FFC01FFE000
003FFC03FFE000
003FFE03FFC000
001FFE07FFC000
001FFF07FF8000
000FFF07FF8000
000FFF0FFF0000
0007FF8FFF0000
0007FF9FFE0000
0003FFDFFE0000
0003FFFFFC0000
0001FFFFFC0000
0001FFFFF80000
0000FFFFF80000
0000FFFFF00000
0000FFFFF00000
00007FFFF00000
00007FFFE00000
00003FFFE00000
00003FFFC00000
00001FFFC00000
00001FFF800000
00000FFF800000
00000FFF000000
00000FFF000000
00000FFF000000
00000FFF000000
00000FFF000000
00000FFF000000
00000FFF000000
00000FFF000000
00000FFF000000
00000FFF000000
00000FFF000000
00000FFF000000
00000FFF000000
00000FFF000000
00000FFF000000
00000FFF000000
00000FFF000000
00000FFF000000
00000FFF000000
00000FFF000000
00000FFF000000
00000FFF000000
00000FFF000000
ENDCHAR
STARTCHAR 005A
ENCODING 90
SWIDTH 600 0
DWIDTH 54 0
BBX 47 65 4 0
BITMAP
FFFFFFFFFFFC
FFFFFFFFFFFC
FFFFFFFFFFFC
FFFFFFFFFFFC
FFFFFFFFFFFC
FFFFFFFFFFFC
FFFFFFFFFFFC
FFFFFFFFFFFC
FFFFFFFFFFF8
FFFFFFFFFFF8
00000001FFF0
00000003FFE0
00000007FFE0
00000007FFC0
0000000FFF80
0000001FFF80
0000001FFF00
0000003FFE00
0000007FFE00
0000007FFC00
000000FFF800
000001FFF800
000001FFF000
000003FFE000
000003FFE000
000007FFC000
00000FFFC000
00000FFF8000
00001FFF0000
00003FFF0000
00003FFE0000
00007FFC0000
0000FFFC0000
0000FFF80000
0001FFF00000
0003FFF00000
0003FFE00000
0007FFC00000
000FFFC00000
000FFF800000
001FFF000000
003FFF000000
003FFE000000
007FFC000000
00FFFC000000
00FFF8000000
01FFF8000000
03FFF0000000
03FFE0000000
07FFE0000000
07FFC0000000
0FFF80000000
1FFF80000000
1FFF00000000
3FFE00000000
7FFFFFFFFFFE
7FFFFFFFFFFE
FFFFFFFFFFFE
FFFFFFFFFFFE
FFFFFFFFFFFE
FFFFFFFFFFFE
FFFFFFFFFFFE
FFFFFFFFFFFE
FFFFFFFFFFFE
FFFFFFFFFFFE
ENDCHAR
STARTCHAR 005B
ENCODING 91
SWIDTH 600 0
DWIDTH 54 0
BBX 20 90 18 -15
BITMAP
FFFFF0
FFFFF0
FFFFF0
FFFFF0
FFFFF0
FFFFF0
FFFFF0
FFFFF0
FFFFF0
FFFFF0
FFF000
FFF000
FFF000
FFF000
FFF000
FFF000
FFF000
FFF000
FFF000
FFF000
FFF000
FFF000
FFF000
FFF000
FFF000
FFF000
FFF000
FFF000
FFF000
FFF000
FFF000
FFF000
FFF000
FFF000
FFF000
FFF000
FFF000
FFF000
FFF000
FFF000
FFF000
FFF000
FFF000
FFF000
FFF000
FFF000
FFF000
FFF000
FFF000
FFF000
FFF000
FFF000
FFF000
FFF000
FFF000
FFF000
FFF000
FFF000
FFF000
FFF000
FFF000
FFF000
FFF000
FFF000
FFF000
FFF000
FFF000
FFF000
FFF000
FFF000
FFF000
FFF000
FFF000
FFF000
FFF000
FFF000
FFF000
FFF000
FFF000
FFF000
FFFFF0
FFFFF0
FFFFF0
FFFFF0
FFFFF0
FFFFF0
FFFFF0
FFFFF0
FFFFF0
FFFFF0
ENDCHAR
STARTCHAR 005C
ENCODING 92
SWIDTH 600 0
DWIDTH 54 0
BBX 35 71 11 -6
BITMAP
FFE0000000
FFE0000000
FFF0000000
7FF0000000
7FF0000000
7FF8000000
3FF8000000
3FF8000000
3FFC000000
1FFC000000
1FFC000000
1FFE000000
0FFE000000
0FFE000000
0FFF000000
07FF000000
07FF000000
07FF800000
03FF800000
03FF800000
03FFC00000
01FFC00000
01FFC00000
01FFE00000
00FFE00000
00FFE00000
00FFF00000
007FF00000
007FF00000
007FF80000
003FF80000
003FFC0000
003FFC0000
001FFC0000
001FFE0000
001FFE0000
000FFE0000
000FFF0000
000FFF0000
0007FF0000
0007FF8000
0007FF8000
0003FF8000
0003FFC000
0003FFC000
0001FFC000
0001FFE000
0000FFE000
0000FFE000
0000FFF000
00007FF000
00007FF000
00007FF800
00003FF800
00003FF800
00003FFC00
00001FFC00
00001FFC00
00001FFE00
00000FFE00
00000FFE00
00000FFF00
000007FF00
000007FF00
000007FF80
000003FF80
000003FF80
000003FFC0
000001FFC0
000001FFC0
000001FFE0
ENDCHAR
STARTCHAR 005D
ENCODING 93
SWIDTH 600 0
DWIDTH 54 0
BBX 20 90 17 -15
BITMAP
FFFFF0
FFFFF0
FFFFF0
FFFFF0
FFFFF0
FFFFF0
FFFFF0
FFFFF0
FFFFF0
FFFFF0
00FFF0
00FFF0
00FFF0
00FFF0
00FFF0
00FFF0
00FFF0
00FFF0
00FFF0
00FFF0
00FFF0
00FFF0
00FFF0
00FFF0
00FFF0
00FFF0
00FFF0
00FFF0
00FFF0
00FFF0
00FFF0
00FFF0
00FFF0
00FFF0
00FFF0
00FFF0
00FFF0
00FFF0
00FFF0
00FFF0
00FFF0
00FFF0
00FFF0
00FFF0
00FFF0
00FFF0
00FFF0
00FFF0
00FFF0
00FFF0
00FFF0
00FFF0
00FFF0
00FFF0
00FFF0
00FFF0
00FFF0
00FFF0
00FFF0
00FFF0
00FFF0
00FFF0
00FFF0
00FFF0
00FFF0
00FFF0
00FFF0
00FFF0
00FFF0
00FFF0
00FFF0
00FFF0
00FFF0
00FFF0
00FFF0
00FFF0
00FFF0
00FFF0
00FFF0
00FFF0
FFFFF0
FFFFF0
FFFFF0
FFFFF0
FFFFF0
FFFFF0
FFFFF0
FFFFF0
FFFFF0
FFFFF0
ENDCHAR
STARTCHAR 005E
ENCODING 94
SWIDTH 600 0
DWIDTH 54 0
BBX 36 34 10 31
BITMAP
0007FC0000
0007FE0000
000FFE0000
000FFF0000
000FFF0000
001FFF0000
001FFF8000
003FFF8000
003FFFC000
007FFFC000
007FFFE000
007FBFE000
00FFBFE000
00FF9FF000
01FF9FF000
01FF1FF800
01FF0FF800
03FE0FF800
03FE0FFC00
07FE07FC00
07FC07FE00
07FC03FE00
0FFC03FE00
0FF803FF00
1FF801FF00
1FF001FF80
3FF001FF80
3FF000FFC0
3FE000FFC0
7FE0007FC0
7FE0007FE0
FFC0007FE0
FFC0003FF0
FF80003FF0
ENDCHAR
STARTCHAR 005F
ENCODING 95
SWIDTH 588 0
DWIDTH 53 0
BBX 40 10 6 -10
BITMAP
FFFFFFFFFF
FFFFFFFFFF
FFFFFFFFFF
FFFFFFFFFF
FFFFFFFFFF
FFFFFFFFFF
FFFFFFFFFF
FFFFFFFFFF
FFFFFFFFFF
FFFFFFFFFF
ENDCHAR
STARTCHAR 0060
ENCODING 96
SWIDTH 600 0
DWIDTH 54 0
BBX 20 12 19 53
BITMAP
FFF800
FFFC00
7FFC00
3FFE00
1FFE00
0FFF00
07FF80
03FF80
01FFC0
00FFE0
007FE0
003FF0
ENDCHAR
STARTCHAR 0061
ENCODING 97
SWIDTH 600 0
DWIDTH 54 0
BBX 43 50 5 -1
BITMAP
0001FFE00000
000FFFFC0000
007FFFFF8000
00FFFFFFC000
03FFFFFFF000
07FFFFFFF800
0FFFFFFFFC00
1FFFFFFFFC00
1FFFFFFFFE00
3FFF80FFFF00
3FFE003FFF00
3FFC001FFF00
7FFC000FFF80
7FF8000FFF80
7FF80007FF80
00000007FF80
00000007FF80
00000007FF80
00000007FF80
00000007FF80
0001FFFFFF80
001FFFFFFF80
00FFFFFFFF80
03FFFFFFFF80
07FFFFFFFF80
0FFFFFFFFF80
1FFFFFFFFF80
3FFFC007FF80
3FFF0007FF80
7FFC0007FF80
7FF80007FF80
FFF80007FF80
FFF00007FF80
FFF00007FF80
FFF00007FF80
FFF00007FF80
FFF8000FFF80
FFF8001FFF80
FFFC007FFF80
FFFF01FFFF80
7FFFFFFFFF80
7FFFFFFFFF80
3FFFFFFFFF80
3FFFFFFFFFC0
1FFFFFFFFFC0
0FFFFFF3FFC0
07FFFFE3FFC0
01FFFFC3FFE0
007FFF03FFE0
000FF8000000
ENDCHAR
STARTCHAR 0062
ENCODING 98
SWIDTH 588 0
DWIDTH 53 0
BBX 42 69 6 -1
BITMAP
FFF000000000
FFF000000000
FFF000000000
FFF000000000
FFF000000000
FFF000000000
FFF000000000
FFF000000000
FFF000000000
FFF000000000
FFF000000000
FFF000000000
FFF000000000
FFF000000000
FFF000000000
FFF000000000
FFF000000000
FFF000000000
FFF000000000
FFF00FF00000
FFF07FFE0000
FFF1FFFF8000
FFF3FFFFC000
FFF7FFFFF000
FFFFFFFFF000
FFFFFFFFF800
FFFFFFFFFC00
FFFFFFFFFE00
FFFFFFFFFE00
FFFF80FFFF00
FFFE003FFF00
FFFC001FFF00
FFF8000FFF80
FFF8000FFF80
FFF00007FF80
FFF00007FF80
FFF00007FFC0
FFF00007FFC0
FFF00003FFC0
FFF00003FFC0
FFF00003FFC0
FFF00003FFC0
FFF00003FFC0
FFF00003FFC0
FFF00003FFC0
FFF00003FFC0
FFF00003FFC0
FFF00003FFC0
FFF00003FFC0
FFF00003FFC0
FFF00007FFC0
FFF00007FFC0
FFF00007FFC0
FFF00007FF80
FFF8000FFF80
FFF8000FFF80
FFFC001FFF00
FFFE003FFF00
FFFF80FFFF00
FFFFFFFFFE00
FFFFFFFFFE00
FFFFFFFFFC00
FFFFFFFFF800
FFFFFFFFF800
FFE7FFFFF000
FFE3FFFFE000
FFE1FFFF8000
FFE07FFE0000
00001FF00000
ENDCHAR
STARTCHAR 0063
ENCODING 99
SWIDTH 600 0
DWIDTH 54 0
BBX 43 50 5 -1
BITMAP
00007FE00000
0003FFFE0000
000FFFFF8000
003FFFFFE000
00FFFFFFF800
01FFFFFFFC00
03FFFFFFFE00
07FFFFFFFE00
07FFFFFFFF00
0FFFFFFFFF80
1FFFE07FFF80
1FFF801FFFC0
3FFF0007FFC0
3FFE0007FFC0
3FFC0003FFE0
7FFC0003FFE0
7FF80001FFE0
7FF80001FFE0
FFF80001FFE0
FFF800000000
FFF000000000
FFF000000000
FFF000000000
FFF000000000
FFF000000000
FFF000000000
FFF000000000
FFF000000000
FFF000000000
FFF000000000
FFF800000000
FFF800000000
7FF800000000
7FF80001FFE0
7FFC0001FFE0
3FFC0003FFE0
3FFE0003FFE0
3FFF0007FFC0
1FFF800FFFC0
1FFFE03FFF80
0FFFFFFFFF80
07FFFFFFFF00
07FFFFFFFE00
03FFFFFFFE00
01FFFFFFFC00
00FFFFFFF000
003FFFFFE000
000FFFFF8000
0003FFFE0000
00007FF00000
ENDCHAR
STARTCHAR 0064
ENCODING 100
SWIDTH 600 0
DWIDTH 54 0
BBX 42 69 5 -1
BITMAP
00000003FFC0
00000003FFC0
00000003FFC0
00000003FFC0
00000003FFC0
00000003FFC0
00000003FFC0
00000003FFC0
00000003FFC0
00000003FFC0
00000003FFC0
00000003FFC0
00000003FFC0
00000003FFC0
00000003FFC0
00000003FFC0
00000003FFC0
00000003FFC0
00000003FFC0
0003FE03FFC0
001FFF83FFC0
007FFFE3FFC0
00FFFFF3FFC0
01FFFFFBFFC0
03FFFFFFFFC0
07FFFFFFFFC0
0FFFFFFFFFC0
0FFFFFFFFFC0
1FFFFFFFFFC0
1FFFE07FFFC0
3FFF801FFFC0
3FFF000FFFC0
3FFE0007FFC0
7FFC0003FFC0
7FFC0003FFC0
7FF80003FFC0
7FF80003FFC0
FFF80003FFC0
FFF80003FFC0
FFF00003FFC0
FFF00003FFC0
FFF00003FFC0
FFF00003FFC0
FFF00003FFC0
FFF00003FFC0
FFF00003FFC0
FFF00003FFC0
FFF00003FFC0
FFF00003FFC0
FFF80003FFC0
FFF80003FFC0
7FF80003FFC0
7FF80003FFC0
7FFC0003FFC0
7FFC0003FFC0
3FFE0007FFC0
3FFF000FFFC0
3FFF801FFFC0
1FFFC07FFFC0
1FFFFFFFFFC0
0FFFFFFFFFC0
07FFFFFFFFC0
07FFFFFFFFC0
03FFFFFDFFC0
01FFFFF9FFC0
00FFFFF1FFC0
003FFFE1FFC0
001FFF81FFC0
0003FE000000
ENDCHAR
STARTCHAR 0065
ENCODING 101
SWIDTH 600 0
DWIDTH 54 0
BBX 45 50 4 -1
BITMAP
00001FF80000
0001FFFF0000
0007FFFFC000
001FFFFFF000
003FFFFFF800
007FFFFFFE00
01FFFFFFFF00
01FFFFFFFF00
03FFFFFFFF80
07FFFFFFFFC0
0FFFF01FFFC0
0FFFC007FFE0
1FFF8003FFE0
1FFF0001FFF0
3FFE0000FFF0
3FFE0000FFF0
3FFC00007FF0
7FFC00007FF8
7FF800007FF8
7FF800007FF8
7FFFFFFFFFF8
7FFFFFFFFFF8
7FFFFFFFFFF8
7FFFFFFFFFF8
FFFFFFFFFFF8
FFFFFFFFFFF8
FFFFFFFFFFF8
FFFFFFFFFFF8
7FFFFFFFFFF8
7FF800000000
7FF800000000
7FFC00000000
7FFC00000000
7FFC00000000
3FFE00000000
3FFF00000600
3FFF80000F00
1FFFC0001F80
0FFFE0007FC0
0FFFFC03FFE0
07FFFFFFFFF0
03FFFFFFFFF0
01FFFFFFFFE0
01FFFFFFFFC0
007FFFFFFF80
003FFFFFFF00
000FFFFFFC00
0007FFFFF000
0000FFFFC000
00001FFE0000
ENDCHAR
STARTCHAR 0066
ENCODING 102
SWIDTH 611 0
DWIDTH 55 0
BBX 45 70 6 0
BITMAP
0000000FFF80
000000FFFFF8
000003FFFFF8
00000FFFFFF8
00001FFFFFF8
00003FFFFFF8
00007FFFFFF8
0000FFFFFFF8
0000FFFFFFF8
0001FFFFFFF8
0003FFFE0018
0003FFF80000
0003FFE00000
0007FFE00000
0007FFC00000
0007FFC00000
0007FF800000
0007FF800000
0007FF800000
0007FF800000
0007FF800000
0007FF800000
FFFFFFFFFFC0
FFFFFFFFFFC0
FFFFFFFFFFC0
FFFFFFFFFFC0
FFFFFFFFFFC0
FFFFFFFFFFC0
FFFFFFFFFFC0
FFFFFFFFFFC0
FFFFFFFFFFC0
0007FF800000
0007FF800000
0007FF800000
0007FF800000
0007FF800000
0007FF800000
0007FF800000
0007FF800000
0007FF800000
0007FF800000
0007FF800000
0007FF800000
0007FF800000
0007FF800000
0007FF800000
0007FF800000
0007FF800000
0007FF800000
0007FF800000
0007FF800000
0007FF800000
0007FF800000
0007FF800000
0007FF800000
0007FF800000
0007FF800000
0007FF800000
0007FF800000
0007FF800000
0007FF800000
0007FF800000
0007FF800000
0007FF800000
0007FF800000
0007FF800000
0007FF800000
0007FF800000
0007FF800000
0007FF800000
ENDCHAR
STARTCHAR 0067
ENCODING 103
SWIDTH 600 0
DWIDTH 54 0
BBX 43 68 5 -19
BITMAP
0001FF000000
000FFFE0FFE0
003FFFF0FFE0
00FFFFFCFFE0
01FFFFFEFFE0
03FFFFFFFFE0
07FFFFFFFFE0
07FFFFFFFFE0
0FFFFFFFFFE0
1FFFFFFFFFE0
1FFFE03FFFE0
3FFF800FFFE0
3FFF0007FFE0
3FFE0003FFE0
7FFE0001FFE0
7FFC0001FFE0
7FFC0001FFE0
7FF80001FFE0
FFF80001FFE0
FFF80001FFE0
FFF80001FFE0
FFF00001FFE0
FFF00001FFE0
FFF00001FFE0
FFF00001FFE0
FFF00001FFE0
FFF00001FFE0
FFF00001FFE0
FFF00001FFE0
FFF00001FFE0
FFF80001FFE0
FFF80001FFE0
7FF80001FFE0
7FF80001FFE0
7FFC0001FFE0
7FFC0001FFE0
3FFE0003FFE0
3FFF0007FFE0
1FFF800FFFE0
1FFFE03FFFE0
0FFFFFFFFFE0
0FFFFFFFFFE0
07FFFFFFFFE0
03FFFFFFFFE0
03FFFFFFFFE0
01FFFFFDFFE0
007FFFF9FFE0
003FFFF1FFE0
000FFFC1FFE0
0001FE01FFE0
00000001FFE0
00000003FFE0
00000003FFE0
00800003FFC0
01C00007FFC0
03F0000FFFC0
03F8001FFF80
07FF00FFFF80
0FFFFFFFFF00
1FFFFFFFFF00
1FFFFFFFFE00
0FFFFFFFFC00
07FFFFFFF800
03FFFFFFF000
00FFFFFFC000
003FFFFF8000
000FFFFC0000
0000FFE00000
ENDCHAR
STARTCHAR 0068
ENCODING 104
SWIDTH 588 0
DWIDTH 53 0
BBX 42 68 6 0
BITMAP
FFF000000000
FFF000000000
FFF000000000
FFF000000000
FFF000000000
FFF000000000
FFF000000000
FFF000000000
FFF000000000
FFF000000000
FFF000000000
FFF000000000
FFF000000000
FFF000000000
FFF000000000
FFF000000000
FFF000000000
FFF000000000
FFF000000000
FFF003F80000
FFF01FFF8000
FFF07FFFE000
FFF0FFFFF000
FFF1FFFFF800
FFF3FFFFFC00
FFF7FFFFFE00
FFFFFFFFFE00
FFFFFFFFFF00
FFFFFFFFFF00
FFFFC0FFFF80
FFFF003FFF80
FFFC000FFF80
FFF8000FFFC0
FFF00007FFC0
FFF00007FFC0
FFF00003FFC0
FFF00003FFC0
FFF00003FFC0
FFF00003FFC0
FFF00003FFC0
FFF00003FFC0
FFF00003FFC0
FFF00003FFC0
FFF00003FFC0
FFF00003FFC0
FFF00003FFC0
FFF00003FFC0
FFF00003FFC0
FFF00003FFC0
FFF00003FFC0
FFF00003FFC0
FFF00003FFC0
FFF00003FFC0
FFF00003FFC0
FFF00003FFC0
FFF00003FFC0
FFF00003FFC0
FFF00003FFC0
FFF00003FFC0
FFF00003FFC0
FFF00003FFC0
FFF00003FFC0
FFF00003FFC0
FFF00003FFC0
FFF00003FFC0
FFF00003FFC0
FFF00003FFC0
FFF00003FFC0
ENDCHAR
STARTCHAR 0069
ENCODING 105
SWIDTH 600 0
DWIDTH 54 0
BBX 39 67 9 0
BITMAP
00007E0000
0001FF8000
0003FFC000
0003FFC000
0007FFE000
0007FFE000
0007FFE000
0007FFE000
0007FFE000
0003FFC000
0003FFC000
0001FF8000
00007E0000
0000000000
0000000000
0000000000
0000000000
0000000000
0000000000
FFFFFFC000
FFFFFFC000
FFFFFFC000
FFFFFFC000
FFFFFFC000
FFFFFFC000
FFFFFFC000
FFFFFFC000
FFFFFFC000
FFFFFFC000
0003FFC000
0003FFC000
0003FFC000
0003FFC000
0003FFC000
0003FFC000
0003FFC000
0003FFC000
0003FFC000
0003FFC000
0003FFC000
0003FFC000
0003FFC000
0003FFC000
0003FFC000
0003FFC000
0003FFC000
0003FFC000
0003FFC000
0003FFC000
0003FFC000
0003FFC000
0003FFC000
0003FFC000
0003FFC000
0003FFC000
0003FFC000
0003FFC000
FFFFFFFFFE
FFFFFFFFFE
FFFFFFFFFE
FFFFFFFFFE
FFFFFFFFFE
FFFFFFFFFE
FFFFFFFFFE
FFFFFFFFFE
FFFFFFFFFE
FFFFFFFFFE
ENDCHAR
STARTCHAR 006A
ENCODING 106
SWIDTH 588 0
DWIDTH 53 0
BBX 29 86 9 -19
BITMAP
00001F80
00007FE0
0000FFF0
0000FFF0
0001FFF8
0001FFF8
0001FFF8
0001FFF8
0001FFF8
0000FFF0
0000FFF0
00007FE0
00001F80
00000000
00000000
00000000
00000000
00000000
00000000
0FFFFFF0
0FFFFFF0
0FFFFFF0
0FFFFFF0
0FFFFFF0
0FFFFFF0
0FFFFFF0
0FFFFFF0
0FFFFFF0
0FFFFFF0
0000FFF0
0000FFF0
0000FFF0
0000FFF0
0000FFF0
0000FFF0
0000FFF0
0000FFF0
0000FFF0
0000FFF0
0000FFF0
0000FFF0
0000FFF0
0000FFF0
0000FFF0
0000FFF0
0000FFF0
0000FFF0
0000FFF0
0000FFF0
0000FFF0
0000FFF0
0000FFF0
0000FFF0
0000FFF0
0000FFF0
0000FFF0
0000FFF0
0000FFF0
0000FFF0
0000FFF0
0000FFF0
0000FFF0
0000FFF0
0000FFF0
0000FFF0
0000FFF0
0000FFF0
0000FFF0
0000FFF0
0000FFF0
0000FFF0
0001FFF0
0001FFF0
0003FFE0
0007FFE0
001FFFE0
7FFFFFC0
7FFFFFC0
7FFFFF80
7FFFFF80
7FFFFF00
7FFFFE00
FFFFFC00
FFFFF000
FFFFC000
7FFC0000
ENDCHAR
STARTCHAR 006B
ENCODING 107
SWIDTH 600 0
DWIDTH 54 0
BBX 46 68 6 0
BITMAP
FFF000000000
FFF000000000
FFF000000000
FFF000000000
FFF000000000
FFF000000000
FFF000000000
FFF000000000
FFF000000000
FFF000000000
FFF000000000
FFF000000000
FFF000000000
FFF000000000
FFF000000000
FFF000000000
FFF000000000
FFF000000000
FFF000000000
FFF000000000
FFF00007FFE0
FFF0000FFFC0
FFF0001FFF80
FFF0003FFF80
FFF0007FFF00
FFF000FFFE00
FFF001FFFC00
FFF003FFF800
FFF007FFF000
FFF00FFFE000
FFF00FFFC000
FFF01FFF8000
FFF03FFF8000
FFF07FFF0000
FFF0FFFE0000
FFF1FFFC0000
FFF3FFF80000
FFF7FFF00000
FFFFFFE00000
FFFFFFC00000
FFFFFFC00000
FFFFFFE00000
FFFFFFF00000
FFFFFFF00000
FFFFFFF80000
FFFFFFFC0000
FFFFFFFE0000
FFFFFFFE0000
FFFFBFFF0000
FFFF1FFF8000
FFFE1FFF8000
FFFC0FFFC000
FFF807FFE000
FFF007FFF000
FFF003FFF000
FFF001FFF800
FFF001FFFC00
FFF000FFFE00
FFF0007FFE00
FFF0007FFF00
FFF0003FFF80
FFF0001FFFC0
FFF0001FFFC0
FFF0000FFFE0
FFF00007FFF0
FFF00003FFF0
FFF00003FFF8
FFF00001FFFC
ENDCHAR
STARTCHAR 006C
ENCODING 108
SWIDTH 600 0
DWIDTH 54 0
BBX 40 68 9 0
BITMAP
FFFFFFC000
FFFFFFC000
FFFFFFC000
FFFFFFC000
FFFFFFC000
FFFFFFC000
FFFFFFC000
FFFFFFC000
FFFFFFC000
FFFFFFC000
0003FFC000
0003FFC000
0003FFC000
0003FFC000
0003FFC000
0003FFC000
0003FFC000
0003FFC000
0003FFC000
0003FFC000
0003FFC000
0003FFC000
0003FFC000
0003FFC000
0003FFC000
0003FFC000
0003FFC000
0003FFC000
0003FFC000
0003FFC000
0003FFC000
0003FFC000
0003FFC000
0003FFC000
0003FFC000
0003FFC000
0003FFC000
0003FFC000
0003FFC000
0003FFC000
0003FFC000
0003FFC000
0003FFC000
0003FFC000
0003FFC000
0003FFC000
0003FFC000
0003FFC000
0003FFC000
0003FFC000
0003FFC000
0003FFC000
0003FFC000
0003FFC000
0003FFC000
0003FFC000
0003FFC000
0003FFC000
FFFFFFFFFF
FFFFFFFFFF
FFFFFFFFFF
FFFFFFFFFF
FFFFFFFFFF
FFFFFFFFFF
FFFFFFFFFF
FFFFFFFFFF
FFFFFFFFFF
FFFFFFFFFF
ENDCHAR
STARTCHAR 006D
ENCODING 109
SWIDTH 600 0
DWIDTH 54 0
BBX 47 49 3 0
BITMAP
00007F003F00
FFE1FFC1FFC0
FFE3FFE3FFE0
FFE7FFE7FFF0
FFEFFFFFFFF8
FFFFFFFFFFF8
FFFFFFFFFFFC
FFFFFFFFFFFC
FFFFFFFFFFFC
FFFFFFFFFFFE
FFF8FFFE3FFE
FFF07FFC1FFE
FFE03FF80FFE
FFE03FF80FFE
FFE03FF80FFE
FFE03FF80FFE
FFE03FF80FFE
FFE03FF80FFE
FFE03FF80FFE
FFE03FF80FFE
FFE03FF80FFE
FFE03FF80FFE
FFE03FF80FFE
FFE03FF80FFE
FFE03FF80FFE
FFE03FF80FFE
FFE03FF80FFE
FFE03FF80FFE
FFE03FF80FFE
FFE03FF80FFE
FFE03FF80FFE
FFE03FF80FFE
FFE03FF80FFE
FFE03FF80FFE
FFE03FF80FFE
FFE03FF80FFE
FFE03FF80FFE
FFE03FF80FFE
FFE03FF80FFE
FFE03FF80FFE
FFE03FF80FFE
FFE03FF80FFE
FFE03FF80FFE
FFE03FF80FFE
FFE03FF80FFE
FFE03FF80FFE
FFE03FF80FFE
FFE03FF80FFE
FFE03FF80FFE
ENDCHAR
STARTCHAR 006E
ENCODING 110
SWIDTH 600 0
DWIDTH 54 0
BBX 42 49 6 0
BITMAP
000003FE0000
FFE01FFFC000
FFE07FFFE000
FFE0FFFFF800
FFE3FFFFFC00
FFF7FFFFFE00
FFF7FFFFFE00
FFFFFFFFFF00
FFFFFFFFFF00
FFFFFFFFFF80
FFFFC0FFFF80
FFFF001FFF80
FFFC000FFFC0
FFF80007FFC0
FFF00007FFC0
FFF00003FFC0
FFF00003FFC0
FFF00003FFC0
FFF00003FFC0
FFF00003FFC0
FFF00003FFC0
FFF00003FFC0
FFF00003FFC0
FFF00003FFC0
FFF00003FFC0
FFF00003FFC0
FFF00003FFC0
FFF00003FFC0
FFF00003FFC0
FFF00003FFC0
FFF00003FFC0
FFF00003FFC0
FFF00003FFC0
FFF00003FFC0
FFF00003FFC0
FFF00003FFC0
FFF00003FFC0
FFF00003FFC0
FFF00003FFC0
FFF00003FFC0
FFF00003FFC0
FFF00003FFC0
FFF00003FFC0
FFF00003FFC0
FFF00003FFC0
FFF00003FFC0
FFF00003FFC0
FFF00003FFC0
FFF00003FFC0
ENDCHAR
STARTCHAR 006F
ENCODING 111
SWIDTH 611 0
DWIDTH 55 0
BBX 45 50 5 -1
BITMAP
00007FF00000
0003FFFE0000
000FFFFF8000
003FFFFFE000
007FFFFFF000
01FFFFFFFC00
03FFFFFFFE00
07FFFFFFFE00
07FFFFFFFF00
0FFFFFFFFF80
1FFFE03FFFC0
1FFF800FFFC0
3FFF0007FFE0
3FFE0003FFE0
3FFC0001FFE0
7FFC0001FFF0
7FFC0001FFF0
7FF80000FFF0
7FF80000FFF0
FFF80000FFF8
FFF80000FFF8
FFF000007FF8
FFF000007FF8
FFF000007FF8
FFF000007FF8
FFF000007FF8
FFF000007FF8
FFF000007FF8
FFF000007FF8
FFF00000FFF8
FFF80000FFF8
7FF80000FFF0
7FF80000FFF0
7FF80001FFF0
7FFC0001FFF0
3FFC0001FFE0
3FFE0003FFE0
3FFF0007FFE0
1FFF800FFFC0
1FFFE03FFFC0
0FFFFFFFFF80
07FFFFFFFF00
07FFFFFFFF00
03FFFFFFFE00
01FFFFFFFC00
007FFFFFF800
003FFFFFE000
000FFFFF8000
0003FFFE0000
00007FF00000
ENDCHAR
STARTCHAR 0070
ENCODING 112
SWIDTH 588 0
DWIDTH 53 0
BBX 42 67 6 -18
BITMAP
FFE01FF00000
FFE07FFE0000
FFF1FFFF8000
FFF7FFFFC000
FFFFFFFFF000
FFFFFFFFF800
FFFFFFFFF800
FFFFFFFFFC00
FFFFFFFFFE00
FFFFFFFFFE00
FFFF80FFFF00
FFFE007FFF00
FFFC001FFF00
FFF8001FFF80
FFF0000FFF80
FFF00007FF80
FFF00007FFC0
FFF00007FFC0
FFF00007FFC0
FFF00003FFC0
FFF00003FFC0
FFF00003FFC0
FFF00003FFC0
FFF00003FFC0
FFF00003FFC0
FFF00003FFC0
FFF00003FFC0
FFF00003FFC0
FFF00003FFC0
FFF00003FFC0
FFF00007FFC0
FFF00007FFC0
FFF00007FFC0
FFF0000FFF80
FFF0000FFF80
FFF8001FFF80
FFFC001FFF00
FFFE007FFF00
FFFF80FFFF00
FFFFFFFFFE00
FFFFFFFFFE00
FFFFFFFFFC00
FFFFFFFFF800
FFFFFFFFF000
FFF7FFFFE000
FFF3FFFFC000
FFF1FFFF8000
FFF07FFE0000
FFF00FF00000
FFF000000000
FFF000000000
FFF000000000
FFF000000000
FFF000000000
FFF000000000
FFF000000000
FFF000000000
FFF000000000
FFF000000000
FFF000000000
FFF000000000
FFF000000000
FFF000000000
FFF000000000
FFF000000000
FFF000000000
FFF000000000
ENDCHAR
STARTCHAR 0071
ENCODING 113
SWIDTH 600 0
DWIDTH 54 0
BBX 42 68 5 -18
BITMAP
0003FE000000
001FFF81FFC0
007FFFE1FFC0
00FFFFF1FFC0
01FFFFFDFFC0
03FFFFFFFFC0
07FFFFFFFFC0
0FFFFFFFFFC0
0FFFFFFFFFC0
1FFFFFFFFFC0
1FFFE07FFFC0
3FFF801FFFC0
3FFF000FFFC0
3FFE0007FFC0
7FFC0003FFC0
7FFC0003FFC0
7FF80003FFC0
7FF80003FFC0
FFF80003FFC0
FFF80003FFC0
FFF00003FFC0
FFF00003FFC0
FFF00003FFC0
FFF00003FFC0
FFF00003FFC0
FFF00003FFC0
FFF00003FFC0
FFF00003FFC0
FFF00003FFC0
FFF00003FFC0
FFF80003FFC0
FFF80003FFC0
7FF80003FFC0
7FF80003FFC0
7FFC0003FFC0
7FFC0003FFC0
3FFE0007FFC0
3FFF000FFFC0
3FFF801FFFC0
1FFFE07FFFC0
1FFFFFFFFFC0
0FFFFFFFFFC0
0FFFFFFFFFC0
07FFFFFFFFC0
03FFFFFFFFC0
01FFFFFFFFC0
00FFFFFBFFC0
003FFFE3FFC0
001FFFC3FFC0
0003FE03FFC0
00000003FFC0
00000003FFC0
00000003FFC0
00000003FFC0
00000003FFC0
00000003FFC0
00000003FFC0
00000003FFC0
00000003FFC0
00000003FFC0
00000003FFC0
00000003FFC0
00000003FFC0
00000003FFC0
00000003FFC0
00000003FFC0
00000003FFC0
00000003FFC0
ENDCHAR
STARTCHAR 0072
ENCODING 114
SWIDTH 600 0
DWIDTH 54 0
BBX 37 49 13 0
BITMAP
000001FF80
FFE00FFFF8
FFF03FFFF0
FFF07FFFF0
FFF0FFFFF0
FFF1FFFFF0
FFF3FFFFF0
FFF7FFFFF0
FFFFFFFFF0
FFFFFFFFE0
FFFFFFFFE0
FFFFFFFFE0
FFFFF801E0
FFFFC00000
FFFF000000
FFFE000000
FFFC000000
FFF8000000
FFF8000000
FFF0000000
FFF0000000
FFF0000000
FFF0000000
FFF0000000
FFF0000000
FFF0000000
FFF0000000
FFF0000000
FFF0000000
FFF0000000
FFF0000000
FFF0000000
FFF0000000
FFF0000000
FFF0000000
FFF0000000
FFF0000000
FFF0000000
FFF0000000
FFF0000000
FFF0000000
FFF0000000
FFF0000000
FFF0000000
FFF0000000
FFF0000000
FFF0000000
FFF0000000
FFF0000000
ENDCHAR
STARTCHAR 0073
ENCODING 115
SWIDTH 600 0
DWIDTH 54 0
BBX 43 50 5 -1
BITMAP
0000FFF00000
000FFFFF0000
007FFFFFC000
00FFFFFFF000
03FFFFFFFC00
07FFFFFFFE00
0FFFFFFFFF00
1FFFFFFFFF80
1FFFFFFFFF80
3FFFC03FFFC0
3FFE000FFFC0
7FFC0007FFE0
7FF80003FFE0
7FF80001FFE0
7FF80001FFE0
7FF80001FFE0
7FFC00000000
7FFC00000000
7FFF00000000
3FFFE0000000
3FFFFF000000
1FFFFFF00000
0FFFFFFF0000
07FFFFFFE000
03FFFFFFF800
00FFFFFFFC00
007FFFFFFE00
000FFFFFFF00
0001FFFFFF80
00001FFFFFC0
000000FFFFC0
0000001FFFE0
00000007FFE0
00000003FFE0
FFF00001FFE0
FFF00001FFE0
FFF80001FFE0
7FF80001FFE0
7FFC0003FFE0
7FFF0007FFC0
3FFFC03FFFC0
1FFFFFFFFFC0
1FFFFFFFFF80
0FFFFFFFFF00
07FFFFFFFE00
03FFFFFFFC00
00FFFFFFF000
003FFFFFE000
000FFFFF0000
0000FFF00000
ENDCHAR
STARTCHAR 0074
ENCODING 116
SWIDTH 611 0
DWIDTH 55 0
BBX 43 61 6 -1
BITMAP
001FFE000000
001FFE000000
001FFE000000
001FFE000000
001FFE000000
001FFE000000
001FFE000000
001FFE000000
001FFE000000
001FFE000000
001FFE000000
001FFE000000
FFFFFFFFFF80
FFFFFFFFFF80
FFFFFFFFFF80
FFFFFFFFFF80
FFFFFFFFFF80
FFFFFFFFFF80
FFFFFFFFFF80
FFFFFFFFFF80
FFFFFFFFFF80
001FFE000000
001FFE000000
001FFE000000
001FFE000000
001FFE000000
001FFE000000
001FFE000000
001FFE000000
001FFE000000
001FFE000000
001FFE000000
001FFE000000
001FFE000000
001FFE000000
001FFE000000
001FFE000000
001FFE000000
001FFE000000
001FFE000000
001FFE000000
001FFE000000
001FFE000000
001FFE000000
001FFE000000
001FFE000000
001FFF000000
001FFF000000
001FFF800000
000FFFC00000
000FFFF003C0
000FFFFFFFC0
0007FFFFFFC0
0007FFFFFFC0
0003FFFFFFE0
0003FFFFFFE0
0001FFFFFFE0
0000FFFFFFE0
00003FFFFFC0
00000FFFFF00
000001FFE000
ENDCHAR
STARTCHAR 0075
ENCODING 117
SWIDTH 611 0
DWIDTH 55 0
BBX 42 49 7 -1
BITMAP
FFF00003FFC0
FFF00003FFC0
FFF00003FFC0
FFF00003FFC0
FFF00003FFC0
FFF00003FFC0
FFF00003FFC0
FFF00003FFC0
FFF00003FFC0
FFF00003FFC0
FFF00003FFC0
FFF00003FFC0
FFF00003FFC0
FFF00003FFC0
FFF00003FFC0
FFF00003FFC0
FFF00003FFC0
FFF00003FFC0
FFF00003FFC0
FFF00003FFC0
FFF00003FFC0
FFF00003FFC0
FFF00003FFC0
FFF00003FFC0
FFF00003FFC0
FFF00003FFC0
FFF00003FFC0
FFF00003FFC0
FFF00003FFC0
FFF00003FFC0
FFF00003FFC0
FFF00003FFC0
FFF00003FFC0
FFF80003FFC0
FFF80007FFC0
7FF80007FFC0
7FFC000FFFC0
7FFE003FFFC0
7FFF80FFFFC0
3FFFFFFFFFC0
3FFFFFFFFFC0
1FFFFFFFFFC0
1FFFFFFBFFC0
0FFFFFFBFFC0
07FFFFF1FFC0
03FFFFE1FFC0
01FFFF81FFC0
007FFE01FFC0
000FF8000000
ENDCHAR
STARTCHAR 0076
ENCODING 118
SWIDTH 600 0
DWIDTH 54 0
BBX 48 48 3 0
BITMAP
FFF800001FFF
7FF800001FFE
7FFC00003FFE
7FFC00003FFE
3FFC00003FFC
3FFE00007FFC
1FFE00007FF8
1FFE00007FF8
1FFF0000FFF8
0FFF0000FFF0
0FFF0000FFF0
07FF0000FFF0
07FF8001FFE0
07FF8001FFE0
03FF8001FFC0
03FFC003FFC0
03FFC003FFC0
01FFC003FF80
01FFE007FF80
00FFE007FF80
00FFE007FF00
00FFF00FFF00
007FF00FFE00
007FF00FFE00
007FF80FFE00
003FF81FFC00
003FF81FFC00
001FF81FFC00
001FFC3FF800
001FFC3FF800
000FFC3FF000
000FFE7FF000
000FFE7FF000
0007FE7FE000
0007FF7FE000
0003FFFFC000
0003FFFFC000
0003FFFFC000
0001FFFF8000
0001FFFF8000
0001FFFF8000
0000FFFF0000
0000FFFF0000
00007FFE0000
00007FFE0000
00007FFE0000
00003FFC0000
00003FFC0000
ENDCHAR
STARTCHAR 0077
ENCODING 119
SWIDTH 600 0
DWIDTH 54 0
BBX 51 48 1 0
BITMAP
FFE007FC00FFE0
FFF007FC00FFE0
7FF007FC01FFC0
7FF007FC01FFC0
7FF007FC01FFC0
7FF00FFE01FFC0
7FF00FFE01FFC0
3FF00FFE01FFC0
3FF00FFE01FF80
3FF80FFE01FF80
3FF80FFF03FF80
3FF81FFF03FF80
3FF81FFF03FF80
1FF81FFF03FF80
1FF81FFF03FF00
1FF81FFF03FF00
1FF83FFF83FF00
1FFC3FFF83FF00
1FFC3FBF87FF00
0FFC3FBF87FE00
0FFC3FBF87FE00
0FFC3FBFC7FE00
0FFC7F3FC7FE00
0FFC7F1FC7FE00
07FC7F1FC7FE00
07FE7F1FC7FC00
07FE7F1FCFFC00
07FEFE0FEFFC00
07FEFE0FEFFC00
07FEFE0FEFFC00
03FEFE0FEFFC00
03FEFE0FEFF800
03FEFC07FFF800
03FFFC07FFF800
03FFFC07FFF800
03FFFC07FFF800
01FFFC07FFF000
01FFFC03FFF000
01FFF803FFF000
01FFF803FFF000
01FFF803FFF000
00FFF803FFF000
00FFF801FFE000
00FFF001FFE000
00FFF001FFE000
00FFF001FFE000
00FFF001FFE000
007FF000FFE000
ENDCHAR
STARTCHAR 0078
ENCODING 120
SWIDTH 600 0
DWIDTH 54 0
BBX 48 48 4 0
BITMAP
7FFC00003FFE
3FFE00007FFE
3FFE00007FFC
1FFF0000FFF8
0FFF8001FFF8
0FFF8001FFF0
07FFC003FFE0
03FFE007FFC0
03FFF00FFFC0
01FFF00FFF80
00FFF81FFF00
00FFFC3FFF00
007FFC3FFE00
003FFE7FFC00
003FFFFFFC00
001FFFFFF800
000FFFFFF000
000FFFFFF000
0007FFFFE000
0003FFFFC000
0003FFFFC000
0001FFFF8000
0000FFFF0000
0000FFFF0000
0000FFFF0000
0001FFFF8000
0003FFFFC000
0003FFFFC000
0007FFFFE000
000FFFFFF000
000FFFFFF000
001FFFFFF800
003FFFFFFC00
003FFE7FFC00
007FFC3FFE00
00FFFC3FFF00
00FFF81FFF00
01FFF00FFF80
03FFF00FFFC0
03FFE007FFC0
07FFC003FFE0
0FFFC003FFF0
0FFF8001FFF0
1FFF0000FFF8
3FFF0000FFFC
3FFE00007FFC
7FFC00003FFE
FFF800001FFF
ENDCHAR
STARTCHAR 0079
ENCODING 121
SWIDTH 600 0
DWIDTH 54 0
BBX 52 68 2 -19
BITMAP
FFFC000001FFF0
7FFC000003FFF0
7FFC000003FFE0
3FFE000007FFE0
3FFE000007FFC0
3FFF000007FFC0
1FFF00000FFF80
1FFF00000FFF80
0FFF80001FFF80
0FFF80001FFF00
07FFC0001FFF00
07FFC0003FFE00
07FFC0003FFE00
03FFE0003FFC00
03FFE0007FFC00
01FFE0007FF800
01FFF000FFF800
00FFF000FFF800
00FFF800FFF000
007FF801FFF000
007FF801FFE000
007FFC03FFE000
003FFC03FFC000
003FFE03FFC000
001FFE07FFC000
001FFE07FF8000
000FFF07FF8000
000FFF0FFF0000
000FFF0FFF0000
0007FF9FFE0000
0007FF9FFE0000
0003FF9FFC0000
0003FFFFFC0000
0001FFFFFC0000
0001FFFFF80000
0000FFFFF80000
0000FFFFF00000
0000FFFFF00000
00007FFFE00000
00007FFFE00000
00003FFFE00000
00003FFFC00000
00001FFFC00000
00001FFF800000
00001FFF800000
00000FFF000000
00000FFF000000
00000FFF000000
00001FFE000000
00001FFE000000
00003FFC000000
00003FFC000000
00007FF8000000
00007FF8000000
0000FFF0000000
0001FFF0000000
0003FFF0000000
0007FFE0000000
01FFFFE0000000
01FFFFC0000000
01FFFF80000000
01FFFF80000000
01FFFF00000000
03FFFE00000000
03FFFC00000000
03FFF000000000
03FFE000000000
01FF0000000000
ENDCHAR
STARTCHAR 007A
ENCODING 122
SWIDTH 600 0
DWIDTH 54 0
BBX 45 48 5 0
BITMAP
7FFFFFFFFFF0
7FFFFFFFFFF0
7FFFFFFFFFF0
7FFFFFFFFFF0
7FFFFFFFFFF0
7FFFFFFFFFF0
7FFFFFFFFFF0
7FFFFFFFFFF0
7FFFFFFFFFE0
7FFFFFFFFFC0
0000001FFF80
0000003FFF00
0000007FFF00
000000FFFE00
000001FFFC00
000003FFF800
000007FFF000
00000FFFE000
00001FFFC000
00001FFF8000
00003FFF0000
00007FFF0000
0000FFFE0000
0001FFFC0000
0003FFF80000
0007FFF00000
000FFFE00000
001FFFC00000
001FFF800000
003FFF800000
007FFF000000
00FFFE000000
01FFFC000000
03FFF8000000
07FFF0000000
0FFFE0000000
1FFFC0000000
3FFFC0000000
3FFFFFFFFFF8
7FFFFFFFFFF8
FFFFFFFFFFF8
FFFFFFFFFFF8
FFFFFFFFFFF8
FFFFFFFFFFF8
FFFFFFFFFFF8
FFFFFFFFFFF8
FFFFFFFFFFF8
FFFFFFFFFFF8
ENDCHAR
STARTCHAR 007B
ENCODING 123
SWIDTH 600 0
DWIDTH 54 0
BBX 29 87 14 -16
BITMAP
000001F0
000007F0
00001FF0
00003FF0
0000FFF8
0000FFF8
0001FFF8
0003FFC0
0003FF80
0007FF00
0007FE00
000FFE00
000FFC00
000FFC00
000FFC00
001FFC00
001FFC00
001FFC00
001FFC00
001FFC00
001FFC00
001FFC00
001FFC00
001FFC00
001FFC00
001FFC00
001FFC00
001FFC00
001FFC00
001FFC00
001FFC00
001FFC00
003FF800
003FF800
003FF800
007FF000
00FFF000
01FFE000
0FFFE000
FFFFC000
FFFF8000
FFFE0000
FFFC0000
FFF00000
FFFC0000
FFFE0000
FFFF8000
FFFFC000
0FFFE000
01FFE000
00FFF000
007FF000
003FF800
003FF800
003FFC00
001FFC00
001FFC00
001FFC00
001FFC00
001FFC00
001FFC00
001FFC00
001FFC00
001FFC00
001FFC00
001FFC00
001FFC00
001FFC00
001FFC00
001FFC00
001FFC00
001FFC00
000FFC00
000FFE00
000FFE00
0007FE00
0007FF00
0007FF00
0003FF80
0003FFE0
0001FFF8
0000FFF8
00007FF8
00003FF0
00001FF0
000007F0
000000F0
ENDCHAR
STARTCHAR 007C
ENCODING 124
SWIDTH 600 0
DWIDTH 54 0
BBX 8 83 23 -18
BITMAP
FF
FF
FF
FF
FF
FF
FF
FF
FF
FF
FF
FF
FF
FF
FF
FF
FF
FF
FF
FF
FF
FF
FF
FF
FF
FF
FF
FF
FF
FF
FF
FF
FF
FF
FF
FF
FF
FF
FF
FF
FF
FF
FF
FF
FF
FF
FF
FF
FF
FF
FF
FF
FF
FF
FF
FF
FF
FF
FF
FF
FF
FF
FF
FF
FF
FF
FF
FF
FF
FF
FF
FF
FF
FF
FF
FF
FF
FF
FF
FF
FF
FF
FF
ENDCHAR
STARTCHAR 007D
ENCODING 125
SWIDTH 600 0
DWIDTH 54 0
BBX 29 87 15 -16
BITMAP
7C000000
7F800000
7FC00000
7FE00000
7FF00000
FFF80000
FFFC0000
1FFE0000
07FE0000
07FF0000
03FF0000
03FF8000
01FF8000
01FF8000
01FF8000
01FFC000
01FFC000
01FFC000
01FFC000
01FFC000
01FFC000
01FFC000
01FFC000
01FFC000
01FFC000
01FFC000
01FFC000
01FFC000
01FFC000
01FFC000
01FFC000
01FFC000
01FFE000
00FFE000
00FFE000
00FFF000
007FF800
003FFC00
003FFF80
001FFFF8
000FFFF8
0007FFF8
0001FFF8
00007FF8
0001FFF8
0007FFF8
000FFFF8
001FFFF8
003FFF80
003FFC00
007FF800
00FFF000
00FFE000
00FFE000
01FFE000
01FFC000
01FFC000
01FFC000
01FFC000
01FFC000
01FFC000
01FFC000
01FFC000
01FFC000
01FFC000
01FFC000
01FFC000
01FFC000
01FFC000
01FFC000
01FFC000
01FF8000
03FF8000
03FF8000
03FF8000
03FF0000
07FF0000
07FF0000
0FFE0000
3FFC0000
FFFC0000
FFF80000
7FF00000
7FE00000
7FC00000
7F000000
7C000000
ENDCHAR
STARTCHAR 007E
ENCODING 126
SWIDTH 600 0
DWIDTH 54 0
BBX 49 20 1 17
BITMAP
003F8000000000
01FFF000000000
03FFFC00000000
07FFFF00007F80
0FFFFF80007F80
1FFFFFC000FF80
3FFFFFE000FF80
3FFFFFF801FF80
7FFFFFFC03FF00
7FFFFFFF07FF00
7FF07FFFFFFF00
FFE01FFFFFFE00
FFC00FFFFFFE00
FF8003FFFFFE00
FF8001FFFFFC00
FF0000FFFFF800
7F00007FFFF000
0000001FFFE000
00000007FFC000
00000001FE0000
ENDCHAR
STARTCHAR 00A0
ENCODING 160
SWIDTH 600 0
DWIDTH 54 0
BBX 0 0 0 0
BITMAP
ENDCHAR
STARTCHAR 00A1
ENCODING 161
SWIDTH 600 0
DWIDTH 54 0
BBX 14 66 21 -17
BITMAP
0FC0
3FF0
7FF0
7FF8
FFFC
FFFC
FFFC
FFFC
FFFC
FFFC
7FF8
7FF8
3FF0
0FC0
0000
0000
0000
0000
0000
0000
0000
0000
0000
0000
7FF8
7FF8
7FF8
7FF8
7FF8
7FF8
7FF8
7FF8
7FF8
7FF8
7FF8
7FF8
7FF8
7FF8
7FF8
7FF8
7FF8
7FF8
7FF8
7FF8
7FF8
7FF8
7FF8
7FF8
7FF8
7FF8
7FF8
7FF8
7FF8
7FF8
7FF8
7FF8
7FF8
7FF8
7FF8
7FF8
7FF8
7FF8
7FF8
7FF8
7FF8
7FF8
ENDCHAR
STARTCHAR 00A2
ENCODING 162
SWIDTH 600 0
DWIDTH 54 0
BBX 43 70 6 -11
BITMAP
00007FC00000
00007FC00000
00007FC00000
00007FC00000
00007FC00000
00007FC00000
00007FC00000
00007FC00000
00007FC00000
00007FC00000
0000FFF00000
0007FFFE0000
001FFFFF8000
007FFFFFE000
00FFFFFFF000
01FFFFFFFC00
03FFFFFFFE00
07FFFFFFFE00
0FFFFFFFFF00
0FFFFFFFFF80
1FFFE07FFF80
1FFF801FFFC0
3FFF0007FFC0
3FFE0007FFC0
7FFC0003FFE0
7FFC0003FFE0
7FF80001FFE0
7FF80001FFE0
FFF80001FFE0
FFF800000000
FFF000000000
FFF000000000
FFF000000000
FFF000000000
FFF000000000
FFF000000000
FFF000000000
FFF000000000
FFF000000000
FFF000000000
FFF800000000
FFF800000000
7FF800000000
7FF80001FFE0
7FFC0001FFE0
7FFC0003FFE0
3FFE0003FFE0
3FFF0007FFC0
1FFF800FFFC0
1FFFE07FFF80
0FFFFFFFFF80
0FFFFFFFFF00
07FFFFFFFE00
03FFFFFFFC00
01FFFFFFF800
00FFFFFFF000
007FFFFFE000
001FFFFF8000
0007FFFC0000
0000FFE00000
00007FC00000
00007FC00000
00007FC00000
00007FC00000
00007FC00000
00007FC00000
00007FC00000
00007FC00000
00007FC00000
00007FC00000
ENDCHAR
STARTCHAR 00A3
ENCODING 163
SWIDTH 600 0
DWIDTH 54 0
BBX 47 66 5 0
BITMAP
000003FF0000
00003FFFE000
0000FFFFFC00
0003FFFFFE00
0007FFFFFF80
000FFFFFFFC0
001FFFFFFFC0
003FFFFFFFE0
003FFFFFFFF0
007FFFFFFFF0
007FFF07FFF8
00FFFC01FFF8
00FFF800FFF8
01FFF0007FFC
01FFF0007FFC
01FFF0003FFC
01FFE0003FFC
01FFE0003FFC
01FFE0000000
01FFE0000000
01FFE0000000
01FFE0000000
01FFE0000000
01FFE0000000
01FFE0000000
01FFE0000000
01FFE0000000
01FFE0000000
01FFE0000000
01FFE0000000
FFFFFFFF8000
FFFFFFFF8000
FFFFFFFF8000
FFFFFFFF8000
FFFFFFFF8000
FFFFFFFF8000
FFFFFFFF8000
FFFFFFFF8000
FFFFFFFF8000
FFFFFFFF8000
01FFE0000000
01FFE0000000
01FFE0000000
01FFE0000000
01FFE0000000
01FFE0000000
01FFE0000000
01FFE0000000
01FFE0000000
01FFE0000000
01FFE0000000
01FFE0000000
01FFE0000000
03FFC0000000
03FFC0000000
07FF80000000
FFFFFFFFFFFE
FFFFFFFFFFFE
FFFFFFFFFFFE
FFFFFFFFFFFE
FFFFFFFFFFFE
FFFFFFFFFFFE
FFFFFFFFFFFE
FFFFFFFFFFFE
FFFFFFFFFFFE
FFFFFFFFFFFE
ENDCHAR
STARTCHAR 00A4
ENCODING 164
SWIDTH 588 0
DWIDTH 53 0
BBX 46 48 4 -1
BITMAP
040000000180
0E003FE003C0
1F01FFFC07E0
3F8FFFFF8FF0
7FDFFFFFDFF8
FFFFFFFFFFFC
FFFFFFFFFFF8
7FFFFFFFFFF0
3FFFFFFFFFE0
1FFFE03FFFC0
0FFF800FFF80
0FFE0003FF80
0FFC0001FF80
1FF80000FFC0
1FF000007FC0
3FE000003FE0
3FE000003FE0
3FC000001FE0
3FC000001FE0
7FC000001FF0
7F8000000FF0
7F8000000FF0
7F8000000FF0
7F8000000FF0
7F8000000FF0
7F8000000FF0
7F8000000FF0
7F8000000FF0
7F8000000FF0
7FC000001FF0
3FC000001FE0
3FC000001FE0
3FE000003FE0
3FE000003FE0
1FF000007FC0
1FF80000FFC0
0FFC0001FF80
0FFE0003FF80
1FFF800FFFC0
3FFFE03FFFE0
7FFFFFFFFFF0
FFFFFFFFFFF8
FFFFFFFFFFF8
7FFFFFFFFFF0
3F9FFFFFCFE0
1F0FFFFF07C0
0E01FFFC0380
04003FE00100
ENDCHAR
STARTCHAR 00A5
ENCODING 165
SWIDTH 600 0
DWIDTH 54 0
BBX 53 65 1 0
BITMAP
FFFC000001FFF8
7FFC000003FFF0
7FFE000003FFF0
3FFE000003FFE0
3FFF000007FFC0
1FFF000007FFC0
1FFF80000FFF80
0FFF80000FFF80
0FFF80001FFF00
07FFC0001FFF00
07FFC0003FFE00
03FFE0003FFE00
03FFE0007FFC00
01FFF0007FFC00
00FFF000FFF800
00FFF800FFF800
007FF801FFF000
007FFC01FFF000
003FFC01FFE000
003FFE03FFC000
001FFE03FFC000
001FFE07FF8000
000FFF07FF8000
000FFF0FFF0000
0007FF8FFF0000
0007FF9FFE0000
0003FFDFFE0000
0003FFFFFC0000
0001FFFFFC0000
0001FFFFF80000
0000FFFFF80000
0000FFFFF00000
07FFFFFFFFFE00
07FFFFFFFFFE00
07FFFFFFFFFE00
07FFFFFFFFFE00
07FFFFFFFFFE00
07FFFFFFFFFE00
07FFFFFFFFFE00
00000FFF000000
00000FFF000000
00000FFF000000
00000FFF000000
00000FFF000000
00000FFF000000
07FFFFFFFFFE00
07FFFFFFFFFE00
07FFFFFFFFFE00
07FFFFFFFFFE00
07FFFFFFFFFE00
07FFFFFFFFFE00
07FFFFFFFFFE00
00000FFF000000
00000FFF000000
00000FFF000000
00000FFF000000
00000FFF000000
00000FFF000000
00000FFF000000
00000FFF000000
00000FFF000000
00000FFF000000
00000FFF000000
00000FFF000000
00000FFF000000
ENDCHAR
STARTCHAR 00A6
ENCODING 166
SWIDTH 588 0
DWIDTH 53 0
BBX 11 77 21 -12
BITMAP
FFE0
FFE0
FFE0
FFE0
FFE0
FFE0
FFE0
FFE0
FFE0
FFE0
FFE0
FFE0
FFE0
FFE0
FFE0
FFE0
FFE0
FFE0
FFE0
FFE0
FFE0
FFE0
FFE0
FFE0
FFE0
FFE0
FFE0
FFE0
FFE0
FFE0
FFE0
FFE0
FFE0
FFE0
0000
0000
0000
0000
0000
0000
0000
0000
FFE0
FFE0
FFE0
FFE0
FFE0
FFE0
FFE0
FFE0
FFE0
FFE0
FFE0
FFE0
FFE0
FFE0
FFE0
FFE0
FFE0
FFE0
FFE0
FFE0
FFE0
FFE0
FFE0
FFE0
FFE0
FFE0
FFE0
FFE0
FFE0
FFE0
FFE0
FFE0
FFE0
FFE0
FFE0
ENDCHAR
STARTCHAR 00A7
ENCODING 167
SWIDTH 600 0
DWIDTH 54 0
BBX 47 86 4 -20
BITMAP
00003FFC0000
0003FFFFC000
001FFFFFF800
007FFFFFFE00
01FFFFFFFF00
03FFFFFFFF80
07FFFFFFFFE0
0FFFFFFFFFE0
1FFFFFFFFFF0
1FFFFFFFFFF8
3FFFE00FFFF8
3FFF8003FFFC
3FFE0000FFFC
7FFC00007FFC
7FFC00003FFE
7FF800003FFE
7FF800003FFE
7FF800001FFE
7FF800001FFE
7FFC00000000
7FFC00000000
7FFE00000000
3FFF80000000
3FFFE0000000
1FFFFC000000
1FFFFF800000
0FFFFFF80000
07FFFFFF0000
03FFFFFFE000
01FFFFFFF800
03FFFFFFFE00
07FFFFFFFF00
0FFFFFFFFFC0
1FFFFFFFFFE0
3FFEFFFFFFF0
7FFC1FFFFFF8
7FF801FFFFF8
7FF8003FFFFC
FFF00007FFFC
FFF00001FFFE
FFF00000FFFE
FFF000007FFE
FFF000003FFE
FFF800001FFE
FFF800001FFE
FFFC00001FFE
7FFE00001FFE
7FFF80001FFE
7FFFF0001FFE
3FFFFE003FFC
3FFFFFC07FFC
1FFFFFF87FFC
0FFFFFFFFFF8
07FFFFFFFFF0
03FFFFFFFFE0
00FFFFFFFFC0
007FFFFFFF00
000FFFFFFF80
0003FFFFFFC0
00007FFFFFE0
00000FFFFFF0
000000FFFFF0
0000003FFFF8
00000007FFF8
00000001FFFC
00000000FFFC
000000007FFC
FFF000003FFC
FFF000003FFC
FFF000003FFC
FFF800003FFC
FFF800003FFC
7FFC00007FFC
7FFE0000FFFC
7FFF0001FFF8
3FFFE00FFFF8
3FFFFFFFFFF8
1FFFFFFFFFF0
0FFFFFFFFFE0
0FFFFFFFFFE0
07FFFFFFFFC0
01FFFFFFFF00
00FFFFFFFE00
003FFFFFF800
0007FFFFC000
00007FFC0000
ENDCHAR
STARTCHAR 00A8
ENCODING 168
SWIDTH 611 0
DWIDTH 55 0
BBX 33 11 12 55
BITMAP
1F8000FC00
3FC001FE00
7FE003FF00
FFF007FF80
FFF007FF80
FFF007FF80
FFF007FF80
FFF007FF80
7FE003FF00
3FC001FE00
1F8000FC00
ENDCHAR
STARTCHAR 00A9
ENCODING 169
SWIDTH 600 0
DWIDTH 54 0
BBX 47 50 4 -1
BITMAP
00001FF00000
0001FFFF0000
0007FFFFC000
001FFFFFF000
003FE00FF800
007F0001FC00
00FC00007E00
01F800003F00
03E000000F80
07C0000007C0
0F800FE003E0
0F007FF801E0
1F00FFFE01F0
1E01FFFF00F0
3E03FFFF80F8
3C03F83F8078
7C07E00F807C
7807C00FC03C
7807C007C03C
F80F8007C03C
F00F8007C01E
F00F8000001E
F00F8000001E
F00F8000001E
F00F8000001E
F00F8000001E
F00F8000001E
F00F8000001E
F00F8000001E
F00F8007C01E
780F8007C03C
7807C007C03C
7807C00FC03C
7C07E00F807C
3C03F83F8078
3E03FFFF80F8
1E01FFFF00F0
1F00FFFE01F0
0F007FFC03E0
0F800FE003E0
07C0000007C0
03E000000F80
01F800003F00
00FC00007E00
007F0001FC00
003FE00FF800
001FFFFFF000
0007FFFFC000
0001FFFF0000
00001FF00000
ENDCHAR
STARTCHAR 00AA
ENCODING 170
SWIDTH 600 0
DWIDTH 54 0
BBX 29 34 12 30
BITMAP
001FF000
00FFFC00
03FFFF00
07FFFF80
0FFFFFC0
1FFFFFC0
1FFFFFE0
3FE01FE0
3FC00FF0
3FC00FF0
01800FF0
00000FF0
00000FF0
00000FF0
007FFFF0
03FFFFF0
0FFFFFF0
1FFFFFF0
3FFFFFF0
7FF00FF0
7FC00FF0
FF800FF0
FF000FF0
FF000FF0
FF000FF0
FF001FF0
FF003FF0
FFC1FFF0
7FFFFFF0
7FFFFFF0
3FFFF7F0
1FFFE7F8
0FFFC7F8
03FF07F8
ENDCHAR
STARTCHAR 00AB
ENCODING 171
SWIDTH 600 0
DWIDTH 54 0
BBX 37 36 8 4
BITMAP
000FF007F8
000FF00FF0
001FE01FF0
003FE01FE0
007FC03FE0
007F807FC0
00FF807F80
01FF00FF80
01FF01FF00
03FE01FF00
07FC03FE00
0FFC07FC00
0FF80FFC00
1FF80FF800
3FF01FF800
3FE03FF000
7FE03FE000
FFC07FE000
FFC07FE000
7FE03FE000
3FE03FF000
3FF01FF800
1FF80FF800
0FF80FFC00
0FFC07FC00
07FC03FE00
03FE01FF00
01FF01FF00
01FF00FF80
00FF807F80
007F807FC0
007FC03FE0
003FE01FE0
001FE01FF0
000FF00FF0
000FF007F8
ENDCHAR
STARTCHAR 00AC
ENCODING 172
SWIDTH 600 0
DWIDTH 54 0
BBX 37 20 8 16
BITMAP
FFFFFFFFF8
FFFFFFFFF8
FFFFFFFFF8
FFFFFFFFF8
FFFFFFFFF8
FFFFFFFFF8
FFFFFFFFF8
FFFFFFFFF8
0000000FF8
0000000FF8
0000000FF8
0000000FF8
0000000FF8
0000000FF8
0000000FF8
0000000FF8
0000000FF8
0000000FF8
0000000FF8
0000000FF8
ENDCHAR
STARTCHAR 00AD
ENCODING 173
SWIDTH 600 0
DWIDTH 54 0
BBX 37 10 12 24
BITMAP
FFFFFFFFF8
FFFFFFFFF8
FFFFFFFFF8
FFFFFFFFF8
FFFFFFFFF8
FFFFFFFFF8
FFFFFFFFF8
FFFFFFFFF8
FFFFFFFFF8
FFFFFFFFF8
ENDCHAR
STARTCHAR 00AE
ENCODING 174
SWIDTH 600 0
DWIDTH 54 0
BBX 47 50 4 -1
BITMAP
00001FF00000
0001FFFF0000
0007FFFFC000
001FFFFFF000
003FE00FF800
007F0001FC00
00FC00007E00
01F800003F00
03E000000F80
07C0000007C0
0F80000003E0
0F03FFF001E0
1F03FFFC01F0
1E03FFFF00F0
3E03FFFF80F8
3C03E01F8078
7C03E00FC07C
7803E007C03C
7803E007C03C
F803E007C03C
F003E007C01E
F003E00F801E
F003E01F801E
F003FFFF001E
F003FFFE001E
F003FFF0001E
F003FFF0001E
F003E0F8001E
F003E078001E
F003E07C001E
7803E03C003C
7803E03E003C
7803E01E003C
7C03E01F007C
3C03E01F0078
3E03E00F80F8
1E03E00F80F0
1F03E007C1F0
0F83E007C3E0
0F80000003E0
07C0000007C0
03E000000F80
01F800003F00
00FC00007E00
007F0001FC00
003FE00FF800
001FFFFFF000
0007FFFFC000
0001FFFF0000
00003FF00000
ENDCHAR
STARTCHAR 00AF
ENCODING 175
SWIDTH 600 0
DWIDTH 54 0
BBX 32 7 12 57
BITMAP
FFFFFFFF
FFFFFFFF
FFFFFFFF
FFFFFFFF
FFFFFFFF
FFFFFFFF
FFFFFFFF
ENDCHAR
STARTCHAR 00B0
ENCODING 176
SWIDTH 600 0
DWIDTH 54 0
BBX 23 24 16 41
BITMAP
00FE00
03FF80
07FFC0
1FFFF0
1FFFF0
3FFFF8
7FFFFC
7F83FC
FF01FC
FE00FE
FC007E
FC007E
FC007E
FC007E
FE00FE
FF00FE
7F83FC
7FFFFC
3FFFF8
1FFFF8
1FFFF0
07FFE0
03FF80
00FE00
ENDCHAR
STARTCHAR 00B1
ENCODING 177
SWIDTH 588 0
DWIDTH 53 0
BBX 40 57 6 0
BITMAP
0001FFC000
0001FFC000
0001FFC000
0001FFC000
0001FFC000
0001FFC000
0001FFC000
0001FFC000
0001FFC000
0001FFC000
0001FFC000
0001FFC000
0001FFC000
0001FFC000
0001FFC000
0001FFC000
FFFFFFFFFF
FFFFFFFFFF
FFFFFFFFFF
FFFFFFFFFF
FFFFFFFFFF
FFFFFFFFFF
FFFFFFFFFF
FFFFFFFFFF
FFFFFFFFFF
FFFFFFFFFF
0001FFC000
0001FFC000
0001FFC000
0001FFC000
0001FFC000
0001FFC000
0001FFC000
0001FFC000
0001FFC000
0001FFC000
0001FFC000
0001FFC000
0001FFC000
0001FFC000
0001FFC000
0001FFC000
0000000000
0000000000
0000000000
0000000000
0000000000
7FFFFFFFFE
7FFFFFFFFE
7FFFFFFFFE
7FFFFFFFFE
7FFFFFFFFE
7FFFFFFFFE
7FFFFFFFFE
7FFFFFFFFE
7FFFFFFFFE
7FFFFFFFFE
ENDCHAR
STARTCHAR 00B2
ENCODING 178
SWIDTH 600 0
DWIDTH 54 0
BBX 28 35 13 29
BITMAP
007FC000
01FFF800
07FFFE00
0FFFFF00
1FFFFF80
3FFFFFC0
7FFFFFC0
7FF0FFE0
FFC07FE0
FF803FE0
FF803FE0
FF803FE0
00003FE0
00007FE0
00007FC0
0000FFC0
0001FF80
0003FF80
0007FF00
000FFE00
003FFC00
007FF800
00FFE000
01FFC000
03FF8000
07FF0000
0FFC0000
1FF80000
3FFFFFF0
7FFFFFF0
7FFFFFF0
7FFFFFF0
7FFFFFF0
7FFFFFF0
7FFFFFF0
ENDCHAR
STARTCHAR 00B3
ENCODING 179
SWIDTH 600 0
DWIDTH 54 0
BBX 28 36 13 28
BITMAP
007FC000
03FFF800
0FFFFE00
1FFFFF00
3FFFFF80
7FFFFFC0
7FFFFFC0
FFE0FFE0
FF807FE0
FF803FE0
00003FE0
00003FE0
00007FC0
0000FFC0
007FFF80
007FFF00
007FFC00
007FFE00
007FFF80
007FFFC0
00007FE0
00003FE0
00001FF0
00001FF0
00001FF0
FF801FF0
FF803FF0
FFC07FF0
FFFFFFE0
7FFFFFE0
7FFFFFC0
3FFFFF80
1FFFFF00
07FFFE00
01FFF000
000C0000
ENDCHAR
STARTCHAR 00B4
ENCODING 180
SWIDTH 600 0
DWIDTH 54 0
BBX 21 12 17 53
BITMAP
00FFF8
01FFF0
03FFE0
03FFC0
07FF80
0FFF00
0FFE00
1FFC00
3FF800
7FF000
7FE000
FFC000
ENDCHAR
STARTCHAR 00B5
ENCODING 181
SWIDTH 611 0
DWIDTH 55 0
BBX 42 67 8 -18
BITMAP
FFF00003FFC0
FFF00003FFC0
FFF00003FFC0
FFF00003FFC0
FFF00003FFC0
FFF00003FFC0
FFF00003FFC0
FFF00003FFC0
FFF00003FFC0
FFF00003FFC0
FFF00003FFC0
FFF00003FFC0
FFF00003FFC0
FFF00003FFC0
FFF00003FFC0
FFF00003FFC0
FFF00003FFC0
FFF00003FFC0
FFF00003FFC0
FFF00003FFC0
FFF00003FFC0
FFF00003FFC0
FFF00003FFC0
FFF00003FFC0
FFF00003FFC0
FFF00003FFC0
FFF00003FFC0
FFF00003FFC0
FFF00003FFC0
FFF00003FFC0
FFF00003FFC0
FFF00003FFC0
FFF80003FFC0
FFF80003FFC0
FFF80003FFC0
FFFC0007FFC0
FFFC000FFFC0
FFFE001FFFC0
FFFF80FFFFC0
FFFFFFFFFFC0
FFFFFFFFFFC0
FFFFFFFFFFC0
FFFFFFFFFFC0
FFFFFFFFFFC0
FFFFFFFFFFC0
FFFFFFFFFFC0
FFFFFFF9FFC0
FFF7FFE1FFC0
FFF0FF000000
FFF000000000
FFF000000000
FFF000000000
FFF000000000
FFF000000000
FFF000000000
FFF000000000
FFF000000000
FFF000000000
FFF000000000
FFF000000000
FFF000000000
FFF000000000
FFF000000000
FFF000000000
FFF000000000
FFF000000000
FFF000000000
ENDCHAR
STARTCHAR 00B6
ENCODING 182
SWIDTH 600 0
DWIDTH 54 0
BBX 35 65 9 0
BITMAP
0000FFFFE0
0007FFFFE0
001FFFFFE0
007FFFFFE0
00FFFFFFE0
03FFFFFFE0
03FFFFFFE0
07FFFFFFE0
0FFFFFFFE0
1FFFFFFFE0
1FFFFFFFE0
3FFFFFFFE0
3FFFFFFFE0
3FFFFFFFE0
7FFFFFFFE0
7FFFFFFFE0
7FFFFFFFE0
7FFFFFFFE0
7FFFFFFFE0
7FFFFFFFE0
FFFFFFFFE0
FFFFFFFFE0
7FFFFFFFE0
7FFFFFFFE0
7FFFFFFFE0
7FFFFFFFE0
7FFFFFFFE0
7FFFFFFFE0
3FFFFFFFE0
3FFFFFFFE0
3FFFFFFFE0
1FFFFFFFE0
1FFFFFFFE0
0FFFFFFFE0
07FFFFFFE0
03FFFFFFE0
01FFFFFFE0
00FFFFFFE0
007FFFFFE0
001FFFFFE0
0007FFFFE0
00007FFFE0
0000003FE0
0000003FE0
0000003FE0
0000003FE0
0000003FE0
0000003FE0
0000003FE0
0000003FE0
0000003FE0
0000003FE0
0000003FE0
0000003FE0
0000003FE0
0000003FE0
0000003FE0
0000003FE0
0000003FE0
0000003FE0
0000003FE0
0000003FE0
0000003FE0
0000003FE0
0000003FE0
ENDCHAR
STARTCHAR 00B7
ENCODING 183
SWIDTH 600 0
DWIDTH 54 0
BBX 14 13 22 25
BITMAP
0FC0
3FF0
7FF8
7FF8
FFFC
FFFC
FFFC
FFFC
FFFC
7FF8
7FF8
3FF0
0FC0
ENDCHAR
STARTCHAR 00B8
ENCODING 184
SWIDTH 600 0
DWIDTH 54 0
BBX 16 21 20 -20
BITMAP
7FC0
7FC0
7FC0
FFE0
FFF8
FFFC
FFFE
0FFE
07FF
03FF
03FF
03FF
07FF
0FFF
7FFE
7FFE
7FFC
7FF8
7FF0
7FC0
7C00
ENDCHAR
STARTCHAR 00B9
ENCODING 185
SWIDTH 600 0
DWIDTH 54 0
BBX 18 35 17 29
BITMAP
000040
0003C0
003FC0
01FFC0
0FFFC0
7FFFC0
FFFFC0
FFFFC0
FFFFC0
FFFFC0
FFFFC0
F87FC0
807FC0
007FC0
007FC0
007FC0
007FC0
007FC0
007FC0
007FC0
007FC0
007FC0
007FC0
007FC0
007FC0
007FC0
007FC0
007FC0
007FC0
007FC0
007FC0
007FC0
007FC0
007FC0
007FC0
ENDCHAR
STARTCHAR 00BA
ENCODING 186
SWIDTH 611 0
DWIDTH 55 0
BBX 31 34 12 30
BITMAP
001FF000
00FFFE00
03FFFF80
07FFFFC0
0FFFFFE0
1FFFFFF0
3FFFFFF0
3FE01FF8
7FC007FC
7F8003FC
FF8003FC
FF0001FC
FF0001FE
FF0001FE
FF0001FE
FF0001FE
FF0001FE
FF0001FE
FF0001FE
FF0001FE
FF0001FE
FF0001FE
FF0001FC
FF0003FC
7F8003FC
7FC007FC
7FC00FF8
3FF03FF8
1FFFFFF0
1FFFFFE0
0FFFFFC0
03FFFF80
01FFFF00
003FF800
ENDCHAR
STARTCHAR 00BB
ENCODING 187
SWIDTH 600 0
DWIDTH 54 0
BBX 37 36 10 6
BITMAP
FF007F8000
7F807FC000
7FC03FC000
3FC01FE000
1FE01FF000
1FF00FF000
0FF80FF800
0FF807FC00
07FC03FE00
03FE03FE00
03FE01FF00
01FF01FF80
01FF80FF80
00FFC0FFC0
00FFC07FE0
007FE03FF0
003FF03FF0
003FF01FF8
003FF01FF8
003FF03FF0
007FE03FE0
007FC07FE0
00FF80FFC0
01FF80FF80
01FF01FF80
03FE01FF00
03FE03FE00
07FC03FE00
0FF807FC00
0FF80FF800
1FF00FF000
1FE01FF000
3FC01FE000
7FC03FC000
7F807FC000
FF007F8000
ENDCHAR
STARTCHAR 00BC
ENCODING 188
SWIDTH 600 0
DWIDTH 54 0
BBX 49 65 2 0
BITMAP
00030000000000
001F0000000000
00FF0000000000
07FF0000000000
3FFF0000000000
FFFF0000000000
FFFF0000000000
FFFF0000000000
FFFF0000000000
FEFF0000000000
E0FF0000C00000
00FF0000F00000
00FF0001FC0000
00FF0001FC0000
00FF0003F80000
00FF0003F80000
00FF0007F00000
00FF0007F00000
00FF000FE00000
00FF001FE00000
00FF001FC00000
00FF003FC00000
00FF003F800000
00FF007F800000
00FF007F000000
00FF00FF000000
00FF00FE000000
00FF01FE000000
00FF01FC000000
00FF03F8000000
00FF03F8000000
00FF07F0000000
000007F0000000
00000FE007F800
00000FE00FF800
00001FC01FF800
00003FC01FF800
00003F803FF800
00007F807FF800
00007F007FF800
0000FF00FFF800
0000FE01FFF800
0001FE01FFF800
0001FC03FFF800
0003F807F7F800
0003F807E7F800
0007F00FE7F800
0007F01FC7F800
000FE01F87F800
000FE03F87F800
001FC07F07F800
001FC07E07F800
000F80FFFFFF80
000381FFFFFF80
000001FFFFFF80
000001FFFFFF80
000001FFFFFF80
000000FFFFFF80
000000FFFFFF80
0000000007F800
0000000007F800
0000000007F800
0000000007F800
0000000007F800
0000000007F800
ENDCHAR
STARTCHAR 00BD
ENCODING 189
SWIDTH 600 0
DWIDTH 54 0
BBX 52 65 1 0
BITMAP
00030000000000
001F0000000000
00FF0000000000
07FF0000000000
3FFF0000000000
FFFF0000000000
FFFF0000000000
FFFF0000000000
FFFF0000000000
FEFF0000000000
E0FF0001800000
00FF0001E00000
00FF0003F80000
00FF0003F80000
00FF0007F80000
00FF0007F00000
00FF000FF00000
00FF000FE00000
00FF001FE00000
00FF001FC00000
00FF003FC00000
00FF003F800000
00FF007F800000
00FF00FF000000
00FF00FE000000
00FF01FE000000
00FF01FC000000
00FF03FC000000
00FF03F8000000
00FF07F8000000
00FF07F0000000
00FF0FF0000000
00000FE0000000
00001FE01FF000
00001FC07FFE00
00003F81FFFF80
00007F83FFFFC0
00007F07FFFFC0
0000FF07FFFFE0
0000FE0FFC3FE0
0001FE0FF81FF0
0001FC1FF00FF0
0003FC1FF00FF0
0003F81FE00FF0
0007F800001FF0
0007F000001FF0
000FF000003FE0
000FE000007FE0
001FC00000FFC0
003FC00001FFC0
003F800003FF80
007F800007FF00
001F00000FFE00
000700001FF800
000000003FF000
000000007FE000
00000000FFC000
00000001FF8000
00000003FE0000
0000000FFFFFF0
0000000FFFFFF0
0000000FFFFFF0
0000000FFFFFF0
0000000FFFFFF0
0000000FFFFFF0
ENDCHAR
STARTCHAR 00BE
ENCODING 190
SWIDTH 600 0
DWIDTH 54 0
BBX 52 65 1 0
BITMAP
00FF8000000000
07FFF000000000
0FFFFC00000000
1FFFFE00000000
3FFFFF00000000
7FFFFF00000000
7FC1FF80000000
7F80FF80000000
7F807F80000000
00007F80000000
00007F80070000
0000FF0007C000
0001FF000FF000
007FFE000FE000
007FF8001FE000
007FF0001FC000
007FFC003FC000
007FFE003F8000
0001FF007F8000
0000FF007F0000
00007F80FF0000
00007F80FE0000
FF007F81FE0000
FF007F83FC0000
FF80FF83F80000
FFC1FF87F80000
7FFFFF07F00000
3FFFFE0FF00000
3FFFFE0FE00000
0FFFF81FE00000
07FFF01FC00000
00FF803FC00000
0000003F800000
0000007F807F80
000000FF00FF80
000000FE01FF80
000001FE03FF80
000001FC03FF80
000003FC07FF80
000003F80FFF80
000007F80FFF80
000007F01FFF80
00000FF03FFF80
00000FE07FFF80
00001FE07F7F80
00001FC0FE7F80
00003F81FE7F80
00007F83FC7F80
00007F03F87F80
0000FF07F07F80
0000FE0FE07F80
0001FE0FE07F80
00007C1FFFFFF0
00001C3FFFFFF0
0000003FFFFFF0
0000003FFFFFF0
0000003FFFFFF0
0000003FFFFFF0
0000003FFFFFF0
00000000007F80
00000000007F80
00000000007F80
00000000007F80
00000000007F80
00000000007F80
ENDCHAR
STARTCHAR 00BF
ENCODING 191
SWIDTH 600 0
DWIDTH 54 0
BBX 39 66 9 -17
BITMAP
00003F0000
0000FF8000
0000FFC000
0001FFE000
0001FFE000
0001FFE000
0001FFE000
0001FFE000
0001FFE000
0000FFC000
0000FF8000
00003F0000
0000000000
0000000000
0000000000
0000000000
0000000000
0000000000
0000000000
0000000000
0001FFC000
0001FFC000
0001FFC000
0001FFC000
0001FFC000
0001FFC000
0003FFC000
0007FFC000
0007FFC000
000FFF8000
001FFF8000
003FFF0000
00FFFE0000
01FFFE0000
03FFF80000
03FFF00000
07FFE00000
0FFFC00000
1FFF800000
1FFF000000
3FFF000000
3FFE000000
7FFC000000
7FFC000000
FFF8000000
FFF8000000
FFF0000000
FFF0000000
FFF0001FFE
FFF0001FFE
FFF0001FFE
FFF8001FFE
FFF8003FFE
7FF8007FFE
7FFC00FFFC
7FFF03FFFC
3FFFFFFFFC
3FFFFFFFF8
1FFFFFFFF0
1FFFFFFFF0
0FFFFFFFE0
07FFFFFFC0
03FFFFFF00
00FFFFFE00
003FFFF800
0003FF8000
ENDCHAR
STARTCHAR 00C0
ENCODING 192
SWIDTH 600 0
DWIDTH 54 0
BBX 53 81 1 0
BITMAP
001FFF00000000
000FFF80000000
0007FFC0000000
0003FFC0000000
0001FFE0000000
0000FFF0000000
00007FF0000000
00003FF8000000
00001FFC000000
00000FFC000000
000007FE000000
000003FE000000
00000000000000
00000000000000
00000000000000
00000000000000
000007FF800000
000007FF800000
00000FFF800000
00000FFFC00000
00000FFFC00000
00001FFFC00000
00001FFFC00000
00001FFFE00000
00003FFFE00000
00003FFFE00000
00003FFFF00000
00007FFFF00000
00007FFFF00000
00007FFFF80000
0000FFFFF80000
0000FFFFF80000
0000FFFFFC0000
0001FFDFFC0000
0001FFDFFC0000
0001FFCFFE0000
0001FFCFFE0000
0003FF8FFE0000
0003FF8FFF0000
0003FF87FF0000
0007FF07FF0000
0007FF07FF8000
0007FF03FF8000
000FFF03FF8000
000FFE03FFC000
000FFE03FFC000
001FFE01FFC000
001FFC01FFC000
001FFC01FFE000
003FFC00FFE000
003FFC00FFE000
003FF800FFF000
007FF800FFF000
007FF8007FF000
007FF0007FF800
00FFF0007FF800
00FFFFFFFFF800
00FFFFFFFFFC00
01FFFFFFFFFC00
01FFFFFFFFFC00
01FFFFFFFFFE00
03FFFFFFFFFE00
03FFFFFFFFFE00
03FFFFFFFFFF00
07FFFFFFFFFF00
07FFFFFFFFFF00
07FFFFFFFFFF80
0FFF80000FFF80
0FFF800007FF80
0FFF000007FF80
1FFF000007FFC0
1FFF000007FFC0
1FFE000003FFC0
1FFE000003FFE0
3FFE000003FFE0
3FFE000001FFE0
3FFC000001FFF0
7FFC000001FFF0
7FFC000001FFF0
7FFC000000FFF8
FFF8000000FFF8
ENDCHAR
STARTCHAR 00C1
ENCODING 193
SWIDTH 600 0
DWIDTH 54 0
BBX 53 81 1 0
BITMAP
00000003FFE000
00000007FFC000
0000000FFF8000
0000001FFF0000
0000001FFE0000
0000003FFC0000
0000007FF80000
0000007FF00000
000000FFE00000
000001FFC00000
000001FF800000
000003FF000000
00000000000000
00000000000000
00000000000000
00000000000000
000007FF800000
000007FF800000
00000FFF800000
00000FFFC00000
00000FFFC00000
00001FFFC00000
00001FFFE00000
00001FFFE00000
00003FFFE00000
00003FFFE00000
00003FFFF00000
00007FFFF00000
00007FFFF00000
00007FFFF80000
0000FFFFF80000
0000FFFFF80000
0000FFFFFC0000
0001FFDFFC0000
0001FFDFFC0000
0001FFCFFE0000
0003FFCFFE0000
0003FF8FFE0000
0003FF8FFF0000
0003FF87FF0000
0007FF07FF0000
0007FF07FF8000
0007FF03FF8000
000FFF03FF8000
000FFE03FFC000
000FFE03FFC000
001FFE01FFC000
001FFC01FFC000
001FFC01FFE000
003FFC00FFE000
003FFC00FFE000
003FF800FFF000
007FF800FFF000
007FF8007FF000
007FF0007FF800
00FFF0007FF800
00FFFFFFFFF800
00FFFFFFFFFC00
01FFFFFFFFFC00
01FFFFFFFFFC00
01FFFFFFFFFE00
03FFFFFFFFFE00
03FFFFFFFFFE00
03FFFFFFFFFF00
07FFFFFFFFFF00
07FFFFFFFFFF00
07FFFFFFFFFF80
0FFF80000FFF80
0FFF800007FF80
0FFF000007FF80
1FFF000007FFC0
1FFF000007FFC0
1FFE000003FFC0
3FFE000003FFE0
3FFE000003FFE0
3FFE000001FFE0
3FFC000001FFF0
7FFC000001FFF0
7FFC000001FFF0
7FFC000000FFF8
FFF8000000FFF8
ENDCHAR
STARTCHAR 00C2
ENCODING 194
SWIDTH 611 0
DWIDTH 55 0
BBX 53 84 2 0
BITMAP
000001FC000000
000003FE000000
00000FFF000000
00001FFFC00000
00003FFFE00000
00007FFFF00000
0000FFFFF80000
0003FFDFFC0000
0007FF0FFF0000
000FFE03FF8000
001FFC01FFC000
003FF800FFE000
003FF0007FE000
00000000000000
00000000000000
00000000000000
00000000000000
00000000000000
00000000000000
000007FF000000
00000FFF800000
00000FFF800000
00000FFF800000
00001FFF800000
00001FFFC00000
00001FFFC00000
00003FFFC00000
00003FFFE00000
00003FFFE00000
00007FFFE00000
00007FFFF00000
00007FFFF00000
0000FFFFF00000
0000FFFFF80000
0000FFFFF80000
0001FFFFF80000
0001FFDFFC0000
0001FFDFFC0000
0003FF9FFC0000
0003FF9FFE0000
0003FF8FFE0000
0007FF8FFE0000
0007FF0FFF0000
0007FF07FF0000
000FFF07FF0000
000FFE07FF8000
000FFE07FF8000
001FFE03FF8000
001FFE03FF8000
001FFC03FFC000
003FFC01FFC000
003FFC01FFC000
003FF801FFE000
007FF801FFE000
007FF800FFE000
007FF800FFF000
00FFF000FFF000
00FFF0007FF000
00FFF0007FF800
01FFFFFFFFF800
01FFFFFFFFF800
01FFFFFFFFFC00
01FFFFFFFFFC00
03FFFFFFFFFC00
03FFFFFFFFFE00
03FFFFFFFFFE00
07FFFFFFFFFE00
07FFFFFFFFFF00
07FFFFFFFFFF00
0FFFFFFFFFFF00
0FFF00000FFF80
0FFF00000FFF80
1FFF000007FF80
1FFF000007FF80
1FFE000007FFC0
3FFE000007FFC0
3FFE000003FFC0
3FFC000003FFE0
7FFC000003FFE0
7FFC000001FFE0
7FFC000001FFF0
FFF8000001FFF0
FFF8000001FFF0
FFF8000000FFF8
ENDCHAR
STARTCHAR 00C3
ENCODING 195
SWIDTH 600 0
DWIDTH 54 0
BBX 53 84 1 0
BITMAP
00000000040000
00007F0007C000
0001FFE00FE000
0003FFF80FE000
0007FFFF3FE000
0007FFFFFFC000
000FFFFFFFC000
000FFFFFFF8000
001FFFFFFF8000
001FE07FFF0000
001FC01FFE0000
001F8007FC0000
00018000C00000
00000000000000
00000000000000
00000000000000
00000000000000
00000000000000
00000000000000
000007FF800000
000007FF800000
00000FFF800000
00000FFFC00000
00000FFFC00000
00001FFFC00000
00001FFFE00000
00001FFFE00000
00001FFFE00000
00003FFFF00000
00003FFFF00000
00003FFFF00000
00007FFFF80000
00007FFFF80000
00007FFFF80000
0000FFFFFC0000
0000FFFFFC0000
0000FFFFFC0000
0001FFDFFE0000
0001FFCFFE0000
0001FFCFFE0000
0003FFCFFF0000
0003FF87FF0000
0003FF87FF0000
0007FF87FF0000
0007FF07FF8000
0007FF03FF8000
000FFF03FF8000
000FFE03FFC000
000FFE01FFC000
001FFE01FFC000
001FFE01FFE000
001FFC01FFE000
003FFC00FFE000
003FFC00FFF000
003FF800FFF000
007FF8007FF000
007FF8007FF800
007FF8007FF800
00FFF0007FF800
00FFFFFFFFFC00
00FFFFFFFFFC00
00FFFFFFFFFC00
01FFFFFFFFFE00
01FFFFFFFFFE00
01FFFFFFFFFE00
03FFFFFFFFFE00
03FFFFFFFFFF00
03FFFFFFFFFF00
07FFFFFFFFFF00
07FFFFFFFFFF80
07FF800007FF80
0FFF800007FF80
0FFF000007FFC0
0FFF000007FFC0
1FFF000003FFC0
1FFF000003FFE0
1FFE000003FFE0
3FFE000001FFE0
3FFE000001FFF0
3FFC000001FFF0
7FFC000001FFF0
7FFC000000FFF8
7FFC000000FFF8
FFF8000000FFF8
ENDCHAR
STARTCHAR 00C4
ENCODING 196
SWIDTH 600 0
DWIDTH 54 0
BBX 53 82 1 0
BITMAP
0007E0003F0000
000FF0007F8000
001FF800FFC000
003FFC01FFE000
003FFC01FFE000
003FFC01FFE000
003FFC01FFE000
003FFC01FFE000
001FF800FFC000
000FF0007F8000
0007E0003F0000
00000000000000
00000000000000
00000000000000
00000000000000
00000000000000
00000000000000
000007FF000000
000007FF800000
00000FFF800000
00000FFF800000
00000FFFC00000
00000FFFC00000
00001FFFC00000
00001FFFE00000
00001FFFE00000
00003FFFE00000
00003FFFF00000
00003FFFF00000
00007FFFF00000
00007FFFF80000
00007FFFF80000
0000FFFFF80000
0000FFFFFC0000
0000FFDFFC0000
0001FFDFFC0000
0001FFCFFE0000
0001FFCFFE0000
0003FF8FFE0000
0003FF8FFF0000
0003FF87FF0000
0007FF87FF0000
0007FF07FF8000
0007FF03FF8000
000FFF03FF8000
000FFE03FF8000
000FFE03FFC000
001FFE01FFC000
001FFE01FFC000
001FFC01FFE000
003FFC01FFE000
003FFC00FFE000
003FF800FFF000
007FF800FFF000
007FF8007FF000
007FF8007FF800
00FFF0007FF800
00FFFFFFFFF800
00FFFFFFFFFC00
01FFFFFFFFFC00
01FFFFFFFFFC00
01FFFFFFFFFE00
03FFFFFFFFFE00
03FFFFFFFFFE00
03FFFFFFFFFF00
07FFFFFFFFFF00
07FFFFFFFFFF00
07FFFFFFFFFF80
0FFF80000FFF80
0FFF800007FF80
0FFF000007FFC0
1FFF000007FFC0
1FFF000007FFC0
1FFF000003FFE0
3FFE000003FFE0
3FFE000003FFE0
3FFE000001FFE0
7FFC000001FFF0
7FFC000001FFF0
7FFC000001FFF0
FFFC000000FFF8
FFF8000000FFF8
ENDCHAR
STARTCHAR 00C5
ENCODING 197
SWIDTH 600 0
DWIDTH 54 0
BBX 53 86 1 0
BITMAP
000001FC000000
000007FF000000
00000FFF800000
00001FFFC00000
00003F07E00000
00003E03E00000
00007C01F00000
00007C01F00000
00007C01F00000
00007C01F00000
00007C01F00000
00003E03E00000
00003F07E00000
00001FFFC00000
00000FFF800000
000007FF000000
000001FC000000
00000000000000
00000000000000
00000000000000
00000000000000
00000FFF800000
00000FFF800000
00000FFF800000
00001FFFC00000
00001FFFC00000
00001FFFC00000
00003FFFE00000
00003FFFE00000
00003FFFE00000
00003FFFF00000
00007FFFF00000
00007FFFF00000
00007FFFF00000
0000FFFFF80000
0000FFFFF80000
0000FFFFF80000
0001FFDFFC0000
0001FFDFFC0000
0001FFDFFC0000
0003FFDFFE0000
0003FF8FFE0000
0003FF8FFE0000
0007FF8FFF0000
0007FF07FF0000
0007FF07FF0000
000FFF07FF8000
000FFF07FF8000
000FFE03FF8000
001FFE03FFC000
001FFE03FFC000
001FFC01FFC000
003FFC01FFC000
003FFC01FFE000
003FF801FFE000
007FF800FFE000
007FF800FFF000
007FF800FFF000
00FFF0007FF000
00FFF0007FF800
00FFF0007FF800
01FFFFFFFFF800
01FFFFFFFFFC00
01FFFFFFFFFC00
01FFFFFFFFFC00
03FFFFFFFFFE00
03FFFFFFFFFE00
03FFFFFFFFFE00
07FFFFFFFFFF00
07FFFFFFFFFF00
07FFFFFFFFFF00
0FFFFFFFFFFF80
0FFF00000FFF80
0FFF000007FF80
1FFF000007FF80
1FFF000007FFC0
1FFE000007FFC0
3FFE000003FFC0
3FFE000003FFE0
3FFC000003FFE0
7FFC000001FFE0
7FFC000001FFF0
7FFC000001FFF0
FFF8000001FFF0
FFF8000000FFF8
FFF8000000FFF8
ENDCHAR
STARTCHAR 00C6
ENCODING 198
SWIDTH 600 0
DWIDTH 54 0
BBX 50 65 2 0
BITMAP
000007FFFFFF80
000007FFFFFF80
00000FFFFFFF80
00000FFFFFFF80
00000FFFFFFF80
00001FFFFFFF80
00001FFFFFFF80
00001FFFFFFF80
00003FFFFFFF80
00003FFFFFFF80
00003FFFFC0000
00007FFFFC0000
00007FFFFC0000
00007FFFFC0000
0000FFFFFC0000
0000FFFFFC0000
0000FFFFFC0000
0001FFBFFC0000
0001FFBFFC0000
0001FFBFFC0000
0003FFBFFC0000
0003FF3FFC0000
0003FF3FFC0000
0007FF3FFC0000
0007FF3FFC0000
0007FE3FFC0000
000FFE3FFC0000
000FFE3FFFFF00
000FFC3FFFFF00
001FFC3FFFFF00
001FFC3FFFFF00
001FFC3FFFFF00
003FF83FFFFF00
003FF83FFFFF00
003FF83FFFFF00
007FF03FFFFF00
007FF03FFFFF00
007FF03FFC0000
007FF03FFC0000
00FFFFFFFC0000
00FFFFFFFC0000
00FFFFFFFC0000
01FFFFFFFC0000
01FFFFFFFC0000
01FFFFFFFC0000
03FFFFFFFC0000
03FFFFFFFC0000
03FFFFFFFC0000
07FFFFFFFC0000
07FFFFFFFC0000
07FF003FFC0000
0FFF003FFC0000
0FFF003FFC0000
0FFF003FFC0000
1FFE003FFC0000
1FFE003FFFFFC0
1FFE003FFFFFC0
3FFC003FFFFFC0
3FFC003FFFFFC0
3FFC003FFFFFC0
7FFC003FFFFFC0
7FF8003FFFFFC0
7FF8003FFFFFC0
FFF8003FFFFFC0
FFF0003FFFFFC0
ENDCHAR
STARTCHAR 00C7
ENCODING 199
SWIDTH 588 0
DWIDTH 53 0
BBX 46 86 3 -20
BITMAP
00001FF80000
0001FFFF8000
0007FFFFE000
001FFFFFF800
003FFFFFFC00
007FFFFFFE00
00FFFFFFFF00
01FFFFFFFF80
03FFFFFFFFC0
07FFFFFFFFE0
07FFF01FFFE0
0FFFC003FFF0
0FFF8001FFF0
1FFF0000FFF8
1FFE0000FFF8
3FFE00007FF8
3FFC00007FFC
3FFC00003FFC
7FF800003FFC
7FF800003FFC
7FF800003FFC
7FF800003FFC
FFF800000000
FFF800000000
FFF000000000
FFF000000000
FFF000000000
FFF000000000
FFF000000000
FFF000000000
FFF000000000
FFF000000000
FFF000000000
FFF000000000
FFF000000000
FFF000000000
FFF000000000
FFF000000000
FFF000000000
FFF000000000
FFF000000000
FFF000000000
FFF000000000
FFF000000000
FFF800000000
7FF800000000
7FF800003FFC
7FF800003FFC
7FF800003FFC
7FFC00003FFC
3FFC00007FFC
3FFC00007FFC
3FFE0000FFF8
1FFF0000FFF8
1FFF8001FFF8
0FFFC003FFF0
0FFFF01FFFF0
07FFFFFFFFE0
03FFFFFFFFC0
03FFFFFFFFC0
01FFFFFFFF80
00FFFFFFFF00
007FFFFFFE00
001FFFFFF800
000FFFFFE000
0003FFFF8000
00007FFC0000
00001FF00000
00003FF00000
00003FFE0000
00003FFF0000
00003FFF8000
000007FF8000
000001FFC000
000000FFC000
000000FFC000
000000FFC000
000001FFC000
000003FFC000
00001FFF8000
00001FFF8000
00001FFF0000
00001FFE0000
00001FFC0000
00001FF00000
00001F800000
ENDCHAR
STARTCHAR 00C8
ENCODING 200
SWIDTH 600 0
DWIDTH 54 0
BBX 43 81 6 0
BITMAP
03FFE0000000
01FFF0000000
00FFF0000000
007FF8000000
003FFC000000
001FFC000000
000FFE000000
0007FF000000
0003FF000000
0001FF800000
0001FFC00000
0000FFC00000
000000000000
000000000000
000000000000
000000000000
FFFFFFFFFFE0
FFFFFFFFFFE0
FFFFFFFFFFE0
FFFFFFFFFFE0
FFFFFFFFFFE0
FFFFFFFFFFE0
FFFFFFFFFFE0
FFFFFFFFFFE0
FFFFFFFFFFE0
FFFFFFFFFFE0
FFF000000000
FFF000000000
FFF000000000
FFF000000000
FFF000000000
FFF000000000
FFF000000000
FFF000000000
FFF000000000
FFF000000000
FFF000000000
FFF000000000
FFF000000000
FFF000000000
FFF000000000
FFF000000000
FFF000000000
FFFFFFFFFE00
FFFFFFFFFE00
FFFFFFFFFE00
FFFFFFFFFE00
FFFFFFFFFE00
FFFFFFFFFE00
FFFFFFFFFE00
FFFFFFFFFE00
FFFFFFFFFE00
FFFFFFFFFE00
FFF000000000
FFF000000000
FFF000000000
FFF000000000
FFF000000000
FFF000000000
FFF000000000
FFF000000000
FFF000000000
FFF000000000
FFF000000000
FFF000000000
FFF000000000
FFF000000000
FFF000000000
FFF000000000
FFF000000000
FFF000000000
FFFFFFFFFFE0
FFFFFFFFFFE0
FFFFFFFFFFE0
FFFFFFFFFFE0
FFFFFFFFFFE0
FFFFFFFFFFE0
FFFFFFFFFFE0
FFFFFFFFFFE0
FFFFFFFFFFE0
FFFFFFFFFFE0
ENDCHAR
STARTCHAR 00C9
ENCODING 201
SWIDTH 600 0
DWIDTH 54 0
BBX 43 80 6 0
BITMAP
000000FFFC00
000000FFF800
000001FFF000
000003FFE000
000003FFC000
000007FF8000
00000FFF0000
00000FFE0000
00001FFC0000
00003FF00000
00007FE00000
00007FC00000
000000000000
000000000000
000000000000
FFFFFFFFFFE0
FFFFFFFFFFE0
FFFFFFFFFFE0
FFFFFFFFFFE0
FFFFFFFFFFE0
FFFFFFFFFFE0
FFFFFFFFFFE0
FFFFFFFFFFE0
FFFFFFFFFFE0
FFFFFFFFFFE0
FFF000000000
FFF000000000
FFF000000000
FFF000000000
FFF000000000
FFF000000000
FFF000000000
FFF000000000
FFF000000000
FFF000000000
FFF000000000
FFF000000000
FFF000000000
FFF000000000
FFF000000000
FFF000000000
FFF000000000
FFFFFFFFFE00
FFFFFFFFFE00
FFFFFFFFFE00
FFFFFFFFFE00
FFFFFFFFFE00
FFFFFFFFFE00
FFFFFFFFFE00
FFFFFFFFFE00
FFFFFFFFFE00
FFFFFFFFFE00
FFF000000000
FFF000000000
FFF000000000
FFF000000000
FFF000000000
FFF000000000
FFF000000000
FFF000000000
FFF000000000
FFF000000000
FFF000000000
FFF000000000
FFF000000000
FFF000000000
FFF000000000
FFF000000000
FFF000000000
FFF000000000
FFFFFFFFFFE0
FFFFFFFFFFE0
FFFFFFFFFFE0
FFFFFFFFFFE0
FFFFFFFFFFE0
FFFFFFFFFFE0
FFFFFFFFFFE0
FFFFFFFFFFE0
FFFFFFFFFFE0
FFFFFFFFFFE0
ENDCHAR
STARTCHAR 00CA
ENCODING 202
SWIDTH 600 0
DWIDTH 54 0
BBX 43 83 6 0
BITMAP
00003F800000
00007FC00000
0000FFF00000
0003FFF80000
0007FFFC0000
000FFFFE0000
001FFFFF0000
007FFBFFC000
00FFF1FFE000
01FFC07FF000
03FF803FF800
07FF001FFC00
07FE000FFC00
000000000000
000000000000
000000000000
000000000000
000000000000
FFFFFFFFFFE0
FFFFFFFFFFE0
FFFFFFFFFFE0
FFFFFFFFFFE0
FFFFFFFFFFE0
FFFFFFFFFFE0
FFFFFFFFFFE0
FFFFFFFFFFE0
FFFFFFFFFFE0
FFFFFFFFFFE0
FFF000000000
FFF000000000
FFF000000000
FFF000000000
FFF000000000
FFF000000000
FFF000000000
FFF000000000
FFF000000000
FFF000000000
FFF000000000
FFF000000000
FFF000000000
FFF000000000
FFF000000000
FFF000000000
FFF000000000
FFFFFFFFFE00
FFFFFFFFFE00
FFFFFFFFFE00
FFFFFFFFFE00
FFFFFFFFFE00
FFFFFFFFFE00
FFFFFFFFFE00
FFFFFFFFFE00
FFFFFFFFFE00
FFFFFFFFFE00
FFF000000000
FFF000000000
FFF000000000
FFF000000000
FFF000000000
FFF000000000
FFF000000000
FFF000000000
FFF000000000
FFF000000000
FFF000000000
FFF000000000
FFF000000000
FFF000000000
FFF000000000
FFF000000000
FFF000000000
FFF000000000
FFFFFFFFFFE0
FFFFFFFFFFE0
FFFFFFFFFFE0
FFFFFFFFFFE0
FFFFFFFFFFE0
FFFFFFFFFFE0
FFFFFFFFFFE0
FFFFFFFFFFE0
FFFFFFFFFFE0
FFFFFFFFFFE0
ENDCHAR
STARTCHAR 00CB
ENCODING 203
SWIDTH 600 0
DWIDTH 54 0
BBX 43 81 6 0
BITMAP
00FC0007E000
01FE000FF000
03FF001FF800
07FF803FFC00
07FF803FFC00
07FF803FFC00
07FF803FFC00
07FF803FFC00
03FF001FF800
01FE000FF000
00FC0007E000
000000000000
000000000000
000000000000
000000000000
000000000000
FFFFFFFFFFE0
FFFFFFFFFFE0
FFFFFFFFFFE0
FFFFFFFFFFE0
FFFFFFFFFFE0
FFFFFFFFFFE0
FFFFFFFFFFE0
FFFFFFFFFFE0
FFFFFFFFFFE0
FFFFFFFFFFE0
FFF000000000
FFF000000000
FFF000000000
FFF000000000
FFF000000000
FFF000000000
FFF000000000
FFF000000000
FFF000000000
FFF000000000
FFF000000000
FFF000000000
FFF000000000
FFF000000000
FFF000000000
FFF000000000
FFF000000000
FFFFFFFFFE00
FFFFFFFFFE00
FFFFFFFFFE00
FFFFFFFFFE00
FFFFFFFFFE00
FFFFFFFFFE00
FFFFFFFFFE00
FFFFFFFFFE00
FFFFFFFFFE00
FFFFFFFFFE00
FFF000000000
FFF000000000
FFF000000000
FFF000000000
FFF000000000
FFF000000000
FFF000000000
FFF000000000
FFF000000000
FFF000000000
FFF000000000
FFF000000000
FFF000000000
FFF000000000
FFF000000000
FFF000000000
FFF000000000
FFF000000000
FFFFFFFFFFE0
FFFFFFFFFFE0
FFFFFFFFFFE0
FFFFFFFFFFE0
FFFFFFFFFFE0
FFFFFFFFFFE0
FFFFFFFFFFE0
FFFFFFFFFFE0
FFFFFFFFFFE0
FFFFFFFFFFE0
ENDCHAR
STARTCHAR 00CC
ENCODING 204
SWIDTH 600 0
DWIDTH 54 0
BBX 37 81 8 0
BITMAP
3FFE000000
1FFF000000
0FFF000000
07FF800000
03FFC00000
01FFC00000
00FFE00000
007FF00000
003FF00000
001FF80000
000FFC0000
0007FC0000
0000000000
0000000000
0000000000
0000000000
FFFFFFFFF8
FFFFFFFFF8
FFFFFFFFF8
FFFFFFFFF8
FFFFFFFFF8
FFFFFFFFF8
FFFFFFFFF8
FFFFFFFFF8
FFFFFFFFF8
FFFFFFFFF8
000FFF0000
000FFF0000
000FFF0000
000FFF0000
000FFF0000
000FFF0000
000FFF0000
000FFF0000
000FFF0000
000FFF0000
000FFF0000
000FFF0000
000FFF0000
000FFF0000
000FFF0000
000FFF0000
000FFF0000
000FFF0000
000FFF0000
000FFF0000
000FFF0000
000FFF0000
000FFF0000
000FFF0000
000FFF0000
000FFF0000
000FFF0000
000FFF0000
000FFF0000
000FFF0000
000FFF0000
000FFF0000
000FFF0000
000FFF0000
000FFF0000
000FFF0000
000FFF0000
000FFF0000
000FFF0000
000FFF0000
000FFF0000
000FFF0000
000FFF0000
000FFF0000
000FFF0000
FFFFFFFFF8
FFFFFFFFF8
FFFFFFFFF8
FFFFFFFFF8
FFFFFFFFF8
FFFFFFFFF8
FFFFFFFFF8
FFFFFFFFF8
FFFFFFFFF8
FFFFFFFFF8
ENDCHAR
STARTCHAR 00CD
ENCODING 205
SWIDTH 600 0
DWIDTH 54 0
BBX 37 81 8 0
BITMAP
00000FFFC0
00000FFF80
00001FFF00
00003FFE00
00003FFC00
00007FF800
0000FFF000
0000FFE000
0001FFC000
0003FF8000
0003FF0000
0007FC0000
0000000000
0000000000
0000000000
0000000000
FFFFFFFFF8
FFFFFFFFF8
FFFFFFFFF8
FFFFFFFFF8
FFFFFFFFF8
FFFFFFFFF8
FFFFFFFFF8
FFFFFFFFF8
FFFFFFFFF8
FFFFFFFFF8
000FFF0000
000FFF0000
000FFF0000
000FFF0000
000FFF0000
000FFF0000
000FFF0000
000FFF0000
000FFF0000
000FFF0000
000FFF0000
000FFF0000
000FFF0000
000FFF0000
000FFF0000
000FFF0000
000FFF0000
000FFF0000
000FFF0000
000FFF0000
000FFF0000
000FFF0000
000FFF0000
000FFF0000
000FFF0000
000FFF0000
000FFF0000
000FFF0000
000FFF0000
000FFF0000
000FFF0000
000FFF0000
000FFF0000
000FFF0000
000FFF0000
000FFF0000
000FFF0000
000FFF0000
000FFF0000
000FFF0000
000FFF0000
000FFF0000
000FFF0000
000FFF0000
000FFF0000
FFFFFFFFF8
FFFFFFFFF8
FFFFFFFFF8
FFFFFFFFF8
FFFFFFFFF8
FFFFFFFFF8
FFFFFFFFF8
FFFFFFFFF8
FFFFFFFFF8
FFFFFFFFF8
ENDCHAR
STARTCHAR 00CE
ENCODING 206
SWIDTH 600 0
DWIDTH 54 0
BBX 37 83 8 0
BITMAP
0003FC0000
000FFE0000
001FFF0000
003FFF8000
007FFFE000
01FFFFF000
03FFFFF800
07FF1FFC00
0FFE0FFE00
3FFC07FF80
7FF801FFC0
7FF000FFC0
0000000000
0000000000
0000000000
0000000000
0000000000
0000000000
FFFFFFFFF8
FFFFFFFFF8
FFFFFFFFF8
FFFFFFFFF8
FFFFFFFFF8
FFFFFFFFF8
FFFFFFFFF8
FFFFFFFFF8
FFFFFFFFF8
FFFFFFFFF8
000FFF0000
000FFF0000
000FFF0000
000FFF0000
000FFF0000
000FFF0000
000FFF0000
000FFF0000
000FFF0000
000FFF0000
000FFF0000
000FFF0000
000FFF0000
000FFF0000
000FFF0000
000FFF0000
000FFF0000
000FFF0000
000FFF0000
000FFF0000
000FFF0000
000FFF0000
000FFF0000
000FFF0000
000FFF0000
000FFF0000
000FFF0000
000FFF0000
000FFF0000
000FFF0000
000FFF0000
000FFF0000
000FFF0000
000FFF0000
000FFF0000
000FFF0000
000FFF0000
000FFF0000
000FFF0000
000FFF0000
000FFF0000
000FFF0000
000FFF0000
000FFF0000
000FFF0000
FFFFFFFFF8
FFFFFFFFF8
FFFFFFFFF8
FFFFFFFFF8
FFFFFFFFF8
FFFFFFFFF8
FFFFFFFFF8
FFFFFFFFF8
FFFFFFFFF8
FFFFFFFFF8
ENDCHAR
STARTCHAR 00CF
ENCODING 207
SWIDTH 600 0
DWIDTH 54 0
BBX 37 82 8 0
BITMAP
0FC0007E00
1FE000FF00
3FF001FF80
7FF803FFC0
7FF803FFC0
7FF803FFC0
7FF803FFC0
7FF803FFC0
3FF001FF80
1FE000FF00
0FC0007E00
0000000000
0000000000
0000000000
0000000000
0000000000
0000000000
FFFFFFFFF8
FFFFFFFFF8
FFFFFFFFF8
FFFFFFFFF8
FFFFFFFFF8
FFFFFFFFF8
FFFFFFFFF8
FFFFFFFFF8
FFFFFFFFF8
FFFFFFFFF8
000FFF0000
000FFF0000
000FFF0000
000FFF0000
000FFF0000
000FFF0000
000FFF0000
000FFF0000
000FFF0000
000FFF0000
000FFF0000
000FFF0000
000FFF0000
000FFF0000
000FFF0000
000FFF0000
000FFF0000
000FFF0000
000FFF0000
000FFF0000
000FFF0000
000FFF0000
000FFF0000
000FFF0000
000FFF0000
000FFF0000
000FFF0000
000FFF0000
000FFF0000
000FFF0000
000FFF0000
000FFF0000
000FFF0000
000FFF0000
000FFF0000
000FFF0000
000FFF0000
000FFF0000
000FFF0000
000FFF0000
000FFF0000
000FFF0000
000FFF0000
000FFF0000
000FFF0000
FFFFFFFFF8
FFFFFFFFF8
FFFFFFFFF8
FFFFFFFFF8
FFFFFFFFF8
FFFFFFFFF8
FFFFFFFFF8
FFFFFFFFF8
FFFFFFFFF8
FFFFFFFFF8
ENDCHAR
STARTCHAR 00D0
ENCODING 208
SWIDTH 588 0
DWIDTH 53 0
BBX 52 65 -2 0
BITMAP
00FFFFFC000000
00FFFFFFC00000
00FFFFFFF00000
00FFFFFFFC0000
00FFFFFFFF0000
00FFFFFFFF8000
00FFFFFFFFE000
00FFFFFFFFF000
00FFFFFFFFF800
00FFFFFFFFFC00
00FFF00FFFFC00
00FFF001FFFE00
00FFF0007FFF00
00FFF0003FFF00
00FFF0001FFF80
00FFF0000FFF80
00FFF00007FFC0
00FFF00007FFC0
00FFF00003FFC0
00FFF00003FFE0
00FFF00001FFE0
00FFF00001FFE0
00FFF00001FFF0
00FFF00001FFF0
00FFF00000FFF0
00FFF00000FFF0
00FFF00000FFF0
00FFF00000FFF0
FFFFFFFC00FFF0
FFFFFFFC00FFF0
FFFFFFFC00FFF0
FFFFFFFC00FFF0
FFFFFFFC00FFF0
FFFFFFFC00FFF0
FFFFFFFC00FFF0
FFFFFFFC00FFF0
00FFF00000FFF0
00FFF00000FFF0
00FFF00000FFF0
00FFF00000FFF0
00FFF00000FFF0
00FFF00001FFF0
00FFF00001FFF0
00FFF00001FFE0
00FFF00001FFE0
00FFF00003FFE0
00FFF00003FFC0
00FFF00007FFC0
00FFF00007FFC0
00FFF0000FFF80
00FFF0001FFF80
00FFF0003FFF00
00FFF0007FFF00
00FFF000FFFE00
00FFF007FFFC00
00FFFFFFFFFC00
00FFFFFFFFF800
00FFFFFFFFF000
00FFFFFFFFE000
00FFFFFFFFC000
00FFFFFFFF0000
00FFFFFFFE0000
00FFFFFFF80000
00FFFFFFC00000
00FFFFFE000000
ENDCHAR
STARTCHAR 00D1
ENCODING 209
SWIDTH 588 0
DWIDTH 53 0
BBX 42 84 5 0
BITMAP
000000010000
001FE001F800
003FF801F800
007FFE03F800
00FFFFCFF800
01FFFFFFF800
01FFFFFFF000
03FFFFFFF000
03FFFFFFE000
03F81FFFC000
07F007FF8000
07F001FF0000
007000180000
000000000000
000000000000
000000000000
000000000000
000000000000
000000000000
FFF00003FFC0
FFF80003FFC0
FFF80003FFC0
FFFC0003FFC0
FFFC0003FFC0
FFFE0003FFC0
FFFE0003FFC0
FFFE0003FFC0
FFFF0003FFC0
FFFF0003FFC0
FFFF8003FFC0
FFFF8003FFC0
FFFFC003FFC0
FFFFC003FFC0
FFFFC003FFC0
FFFFE003FFC0
FFFFE003FFC0
FFFFF003FFC0
FFFFF003FFC0
FFFFF803FFC0
FFFFF803FFC0
FFFFF803FFC0
FFFFFC03FFC0
FFFFFC03FFC0
FFF7FE03FFC0
FFF7FE03FFC0
FFF3FF03FFC0
FFF3FF03FFC0
FFF1FF03FFC0
FFF1FF83FFC0
FFF1FF83FFC0
FFF0FFC3FFC0
FFF0FFC3FFC0
FFF07FE3FFC0
FFF07FE3FFC0
FFF03FE3FFC0
FFF03FF3FFC0
FFF03FF3FFC0
FFF01FFBFFC0
FFF01FFBFFC0
FFF00FFBFFC0
FFF00FFFFFC0
FFF00FFFFFC0
FFF007FFFFC0
FFF007FFFFC0
FFF003FFFFC0
FFF003FFFFC0
FFF001FFFFC0
FFF001FFFFC0
FFF001FFFFC0
FFF000FFFFC0
FFF000FFFFC0
FFF0007FFFC0
FFF0007FFFC0
FFF0003FFFC0
FFF0003FFFC0
FFF0003FFFC0
FFF0001FFFC0
FFF0001FFFC0
FFF0000FFFC0
FFF0000FFFC0
FFF00007FFC0
FFF00007FFC0
FFF00007FFC0
FFF00003FFC0
ENDCHAR
STARTCHAR 00D2
ENCODING 210
SWIDTH 611 0
DWIDTH 55 0
BBX 47 83 4 -1
BITMAP
00FFF8000000
007FFC000000
007FFC000000
003FFE000000
001FFF000000
000FFF000000
0007FF800000
0003FFC00000
0001FFC00000
0000FFE00000
00007FF00000
00003FF00000
000000000000
000000000000
000000000000
000000000000
000000000000
00003FF00000
0001FFFF0000
000FFFFFC000
001FFFFFF000
007FFFFFF800
00FFFFFFFC00
01FFFFFFFE00
03FFFFFFFF00
03FFFFFFFF80
07FFFFFFFFC0
0FFFF03FFFC0
0FFFC007FFE0
1FFF8003FFF0
1FFF0001FFF0
3FFE0000FFF0
3FFC0000FFF8
3FFC00007FF8
7FFC00007FFC
7FF800003FFC
7FF800003FFC
7FF800003FFC
FFF800003FFC
FFF800003FFE
FFF000001FFE
FFF000001FFE
FFF000001FFE
FFF000001FFE
FFF000001FFE
FFF000001FFE
FFF000001FFE
FFF000001FFE
FFF000001FFE
FFF000001FFE
FFF000001FFE
FFF000001FFE
FFF000001FFE
FFF000001FFE
FFF000001FFE
FFF000001FFE
FFF000001FFE
FFF000001FFE
FFF000001FFE
FFF000003FFE
FFF800003FFE
FFF800003FFC
7FF800003FFC
7FF800003FFC
7FF800007FFC
7FFC00007FFC
3FFC00007FF8
3FFC0000FFF8
3FFE0000FFF8
1FFF0001FFF0
1FFF0003FFF0
0FFFC007FFE0
0FFFF01FFFC0
07FFFFFFFFC0
03FFFFFFFF80
03FFFFFFFF00
01FFFFFFFE00
00FFFFFFFC00
007FFFFFF800
001FFFFFF000
000FFFFFC000
0001FFFF0000
00003FF00000
ENDCHAR
STARTCHAR 00D3
ENCODING 211
SWIDTH 611 0
DWIDTH 55 0
BBX 47 83 4 -1
BITMAP
0000003FFF00
0000003FFE00
0000007FFC00
000000FFF800
000000FFF000
000001FFE000
000003FFC000
000007FF8000
000007FF0000
00000FFE0000
00001FFC0000
00001FF80000
000000000000
000000000000
000000000000
000000000000
000000000000
00003FF00000
0001FFFF0000
000FFFFFC000
001FFFFFF000
007FFFFFF800
00FFFFFFFC00
01FFFFFFFE00
03FFFFFFFF00
03FFFFFFFF80
07FFFFFFFFC0
0FFFF03FFFC0
0FFFC007FFE0
1FFF8003FFF0
1FFF0001FFF0
3FFE0000FFF0
3FFC0000FFF8
3FFC00007FF8
7FFC00007FFC
7FF800003FFC
7FF800003FFC
7FF800003FFC
FFF800003FFC
FFF800003FFE
FFF000001FFE
FFF000001FFE
FFF000001FFE
FFF000001FFE
FFF000001FFE
FFF000001FFE
FFF000001FFE
FFF000001FFE
FFF000001FFE
FFF000001FFE
FFF000001FFE
FFF000001FFE
FFF000001FFE
FFF000001FFE
FFF000001FFE
FFF000001FFE
FFF000001FFE
FFF000001FFE
FFF000001FFE
FFF000003FFE
FFF800003FFE
FFF800003FFC
7FF800003FFC
7FF800003FFC
7FF800007FFC
7FFC00007FFC
3FFC00007FF8
3FFC0000FFF8
3FFE0000FFF8
1FFF0001FFF0
1FFF0003FFF0
0FFFC007FFE0
0FFFF01FFFC0
07FFFFFFFFC0
03FFFFFFFF80
03FFFFFFFF00
01FFFFFFFE00
00FFFFFFFC00
007FFFFFF800
001FFFFFF000
000FFFFFC000
0001FFFF0000
00003FF00000
ENDCHAR
STARTCHAR 00D4
ENCODING 212
SWIDTH 611 0
DWIDTH 55 0
BBX 47 85 4 -1
BITMAP
00001FF00000
00003FF80000
00007FFC0000
0000FFFE0000
0001FFFF0000
0003FFFFC000
000FFFFFE000
001FFE7FF000
003FF83FF800
007FF01FFC00
00FFE00FFE00
01FFC007FF00
01FF8001FF00
000000000000
000000000000
000000000000
000000000000
000000000000
000000000000
00003FF00000
0001FFFF0000
000FFFFFC000
001FFFFFF000
007FFFFFF800
00FFFFFFFC00
01FFFFFFFE00
03FFFFFFFF00
03FFFFFFFF80
07FFFFFFFFC0
0FFFF03FFFC0
0FFFC007FFE0
1FFF8003FFF0
1FFF0001FFF0
3FFE0000FFF0
3FFC0000FFF8
3FFC00007FF8
7FFC00007FFC
7FF800003FFC
7FF800003FFC
7FF800003FFC
FFF800003FFC
FFF800003FFE
FFF000001FFE
FFF000001FFE
FFF000001FFE
FFF000001FFE
FFF000001FFE
FFF000001FFE
FFF000001FFE
FFF000001FFE
FFF000001FFE
FFF000001FFE
FFF000001FFE
FFF000001FFE
FFF000001FFE
FFF000001FFE
FFF000001FFE
FFF000001FFE
FFF000001FFE
FFF000001FFE
FFF000001FFE
FFF000003FFE
FFF800003FFE
FFF800003FFC
7FF800003FFC
7FF800003FFC
7FF800007FFC
7FFC00007FFC
3FFC00007FF8
3FFC0000FFF8
3FFE0000FFF8
1FFF0001FFF0
1FFF0003FFF0
0FFFC007FFE0
0FFFF01FFFC0
07FFFFFFFFC0
03FFFFFFFF80
03FFFFFFFF00
01FFFFFFFE00
00FFFFFFFC00
007FFFFFF800
001FFFFFF000
000FFFFFC000
0001FFFF0000
00003FF00000
ENDCHAR
STARTCHAR 00D5
ENCODING 213
SWIDTH 611 0
DWIDTH 55 0
BBX 47 86 4 -1
BITMAP
000000002000
0007F8003E00
000FFE007F00
001FFF80FF00
003FFFF1FE00
007FFFFFFE00
007FFFFFFE00
00FFFFFFFC00
00FFFFFFFC00
00FE07FFF800
01FC01FFF000
01FC007FC000
001800020000
000000000000
000000000000
000000000000
000000000000
000000000000
000000000000
000000000000
00003FF00000
0001FFFF0000
000FFFFFC000
001FFFFFF000
007FFFFFF800
00FFFFFFFC00
01FFFFFFFE00
03FFFFFFFF00
03FFFFFFFF80
07FFFFFFFFC0
0FFFF03FFFC0
0FFFC007FFE0
1FFF8003FFF0
1FFF0001FFF0
3FFE0000FFF0
3FFC0000FFF8
3FFC00007FF8
7FFC00007FFC
7FF800003FFC
7FF800003FFC
7FF800003FFC
FFF800003FFC
FFF800003FFE
FFF000001FFE
FFF000001FFE
FFF000001FFE
FFF000001FFE
FFF000001FFE
FFF000001FFE
FFF000001FFE
FFF000001FFE
FFF000001FFE
FFF000001FFE
FFF000001FFE
FFF000001FFE
FFF000001FFE
FFF000001FFE
FFF000001FFE
FFF000001FFE
FFF000001FFE
FFF000001FFE
FFF000001FFE
FFF000003FFE
FFF800003FFE
FFF800003FFC
7FF800003FFC
7FF800003FFC
7FF800007FFC
7FFC00007FFC
3FFC00007FF8
3FFC0000FFF8
3FFE0000FFF8
1FFF0001FFF0
1FFF0003FFF0
0FFFC007FFE0
0FFFF01FFFC0
07FFFFFFFFC0
03FFFFFFFF80
03FFFFFFFF00
01FFFFFFFE00
00FFFFFFFC00
007FFFFFF800
001FFFFFF000
000FFFFFC000
0001FFFF0000
00003FF00000
ENDCHAR
STARTCHAR 00D6
ENCODING 214
SWIDTH 611 0
DWIDTH 55 0
BBX 47 84 4 -1
BITMAP
003F0001F800
007F8003FC00
00FFC007FE00
01FFE00FFF00
01FFE00FFF00
01FFE00FFF00
01FFE00FFF00
01FFE00FFF00
00FFC007FE00
007F8003FC00
003F0001F800
000000000000
000000000000
000000000000
000000000000
000000000000
000000000000
000000000000
00003FF00000
0001FFFF0000
000FFFFFC000
001FFFFFF000
007FFFFFF800
00FFFFFFFC00
01FFFFFFFE00
03FFFFFFFF00
03FFFFFFFF80
07FFFFFFFFC0
0FFFF03FFFC0
0FFFC007FFE0
1FFF8003FFF0
1FFF0001FFF0
3FFE0000FFF0
3FFC0000FFF8
3FFC00007FF8
7FFC00007FFC
7FF800003FFC
7FF800003FFC
7FF800003FFC
FFF800003FFC
FFF800003FFE
FFF000001FFE
FFF000001FFE
FFF000001FFE
FFF000001FFE
FFF000001FFE
FFF000001FFE
FFF000001FFE
FFF000001FFE
FFF000001FFE
FFF000001FFE
FFF000001FFE
FFF000001FFE
FFF000001FFE
FFF000001FFE
FFF000001FFE
FFF000001FFE
FFF000001FFE
FFF000001FFE
FFF000001FFE
FFF000003FFE
FFF800003FFE
FFF800003FFC
7FF800003FFC
7FF800003FFC
7FF800007FFC
7FFC00007FFC
3FFC00007FF8
3FFC0000FFF8
3FFE0000FFF8
1FFF0001FFF0
1FFF0003FFF0
0FFFC007FFE0
0FFFF01FFFC0
07FFFFFFFFC0
03FFFFFFFF80
03FFFFFFFF00
01FFFFFFFE00
00FFFFFFFC00
007FFFFFF800
001FFFFFF000
000FFFFFC000
0001FFFF0000
00003FF00000
ENDCHAR
STARTCHAR 00D7
ENCODING 215
SWIDTH 600 0
DWIDTH 54 0
BBX 41 41 7 10
BITMAP
030000006000
07800000F000
0FC00001F800
1FE00003FC00
3FF00007FE00
7FF8000FFF00
FFFC001FFF80
7FFE003FFF00
3FFF007FFE00
1FFF80FFFC00
0FFFC1FFFC00
07FFE3FFF800
03FFF7FFF000
01FFFFFFE000
00FFFFFFC000
007FFFFF8000
003FFFFF0000
001FFFFE0000
000FFFFC0000
000FFFF80000
0007FFF00000
000FFFF80000
000FFFFC0000
001FFFFE0000
003FFFFF0000
007FFFFF8000
00FFFFFFC000
01FFFFFFE000
03FFF7FFF000
07FFE3FFF800
0FFFC1FFFC00
1FFF80FFFC00
3FFF007FFE00
7FFE003FFF00
FFFC001FFF80
7FF8000FFF00
3FF00007FE00
1FE00003FC00
0FC00001F800
07800000F000
030000006000
ENDCHAR
STARTCHAR 00D8
ENCODING 216
SWIDTH 600 0
DWIDTH 54 0
BBX 49 72 2 -4
BITMAP
0000000000FF00
0000000000FF00
00000FFC01FE00
00007FFFC1FE00
0001FFFFF3FC00
0007FFFFFFFC00
000FFFFFFFF800
003FFFFFFFF000
007FFFFFFFF000
00FFFFFFFFE000
00FFFFFFFFE000
01FFFFFFFFF000
03FFFC07FFF800
03FFF001FFF800
07FFE000FFFC00
07FFC000FFFC00
0FFF8001FFFE00
0FFF0001FFFE00
0FFF0003FFFE00
1FFF0003FFFF00
1FFE0007FFFF00
1FFE000FFFFF00
1FFE000FFFFF00
3FFE001FFFFF00
3FFE001FEFFF80
3FFC003FC7FF80
3FFC003FC7FF80
3FFC007F87FF80
3FFC00FF87FF80
3FFC00FF07FF80
3FFC01FF07FF80
3FFC01FE07FF80
3FFC03FC07FF80
3FFC03FC07FF80
3FFC07F807FF80
3FFC0FF807FF80
3FFC0FF007FF80
3FFC1FF007FF80
3FFC1FE007FF80
3FFC3FC007FF80
3FFC3FC007FF80
3FFC7F8007FF80
3FFCFF8007FF80
3FFCFF0007FF80
3FFDFF000FFF80
3FFFFE000FFF80
3FFFFC000FFF00
1FFFFC000FFF00
1FFFF8000FFF00
1FFFF8001FFF00
1FFFF0001FFF00
0FFFF0001FFE00
0FFFE0003FFE00
0FFFC0003FFC00
07FFC0007FFC00
07FFE000FFFC00
07FFF001FFF800
03FFFC07FFF000
01FFFFFFFFF000
01FFFFFFFFE000
03FFFFFFFFC000
03FFFFFFFF8000
07FFFFFFFF0000
07FFFFFFFE0000
0FFFFFFFFC0000
0FF3FFFFF00000
1FE0FFFFC00000
1FC00FFC000000
3FC00000000000
7F800000000000
7F800000000000
FF000000000000
ENDCHAR
STARTCHAR 00D9
ENCODING 217
SWIDTH 611 0
DWIDTH 55 0
BBX 43 82 6 -1
BITMAP
03FFE0000000
01FFF0000000
00FFF8000000
007FF8000000
003FFC000000
001FFE000000
000FFE000000
0007FF000000
0003FF800000
0001FF800000
0000FFC00000
00007FE00000
000000000000
000000000000
000000000000
000000000000
FFF00001FFE0
FFF00001FFE0
FFF00001FFE0
FFF00001FFE0
FFF00001FFE0
FFF00001FFE0
FFF00001FFE0
FFF00001FFE0
FFF00001FFE0
FFF00001FFE0
FFF00001FFE0
FFF00001FFE0
FFF00001FFE0
FFF00001FFE0
FFF00001FFE0
FFF00001FFE0
FFF00001FFE0
FFF00001FFE0
FFF00001FFE0
FFF00001FFE0
FFF00001FFE0
FFF00001FFE0
FFF00001FFE0
FFF00001FFE0
FFF00001FFE0
FFF00001FFE0
FFF00001FFE0
FFF00001FFE0
FFF00001FFE0
FFF00001FFE0
FFF00001FFE0
FFF00001FFE0
FFF00001FFE0
FFF00001FFE0
FFF00001FFE0
FFF00001FFE0
FFF00001FFE0
FFF00001FFE0
FFF00001FFE0
FFF00001FFE0
FFF00001FFE0
FFF00001FFE0
FFF00001FFE0
FFF00001FFE0
FFF00001FFE0
FFF00001FFE0
FFF00001FFE0
FFF80003FFE0
FFF80003FFE0
7FF80003FFC0
7FF80003FFC0
7FFC0007FFC0
7FFC000FFFC0
3FFE000FFF80
3FFF001FFF80
1FFFC07FFF00
1FFFFFFFFF00
0FFFFFFFFE00
07FFFFFFFE00
07FFFFFFFC00
03FFFFFFF800
01FFFFFFF000
007FFFFFC000
003FFFFF8000
0007FFFC0000
0000FFE00000
ENDCHAR
STARTCHAR 00DA
ENCODING 218
SWIDTH 611 0
DWIDTH 55 0
BBX 43 82 6 -1
BITMAP
0000007FFC00
000000FFF800
000001FFF000
000001FFE000
000003FFC000
000007FF8000
00000FFF0000
00000FFE0000
00001FFC0000
00003FF80000
00003FF00000
00007FE00000
000000000000
000000000000
000000000000
000000000000
FFF00001FFE0
FFF00001FFE0
FFF00001FFE0
FFF00001FFE0
FFF00001FFE0
FFF00001FFE0
FFF00001FFE0
FFF00001FFE0
FFF00001FFE0
FFF00001FFE0
FFF00001FFE0
FFF00001FFE0
FFF00001FFE0
FFF00001FFE0
FFF00001FFE0
FFF00001FFE0
FFF00001FFE0
FFF00001FFE0
FFF00001FFE0
FFF00001FFE0
FFF00001FFE0
FFF00001FFE0
FFF00001FFE0
FFF00001FFE0
FFF00001FFE0
FFF00001FFE0
FFF00001FFE0
FFF00001FFE0
FFF00001FFE0
FFF00001FFE0
FFF00001FFE0
FFF00001FFE0
FFF00001FFE0
FFF00001FFE0
FFF00001FFE0
FFF00001FFE0
FFF00001FFE0
FFF00001FFE0
FFF00001FFE0
FFF00001FFE0
FFF00001FFE0
FFF00001FFE0
FFF00001FFE0
FFF00001FFE0
FFF00001FFE0
FFF00001FFE0
FFF00001FFE0
FFF80003FFE0
FFF80003FFE0
7FF80003FFC0
7FF80003FFC0
7FFC0007FFC0
7FFC000FFFC0
3FFE000FFF80
3FFF001FFF80
1FFFC07FFF00
1FFFFFFFFF00
0FFFFFFFFE00
0FFFFFFFFE00
07FFFFFFFC00
03FFFFFFF800
01FFFFFFF000
007FFFFFC000
003FFFFF8000
0007FFFC0000
0000FFE00000
ENDCHAR
STARTCHAR 00DB
ENCODING 219
SWIDTH 611 0
DWIDTH 55 0
BBX 43 84 6 -1
BITMAP
00003FC00000
00007FE00000
0000FFF00000
0001FFF80000
0007FFFC0000
000FFFFE0000
001FFFFF0000
003FF9FFC000
00FFF0FFE000
01FFE07FF000
03FF803FF800
07FF000FFC00
07FE0007FC00
000000000000
000000000000
000000000000
000000000000
000000000000
FFF00001FFE0
FFF00001FFE0
FFF00001FFE0
FFF00001FFE0
FFF00001FFE0
FFF00001FFE0
FFF00001FFE0
FFF00001FFE0
FFF00001FFE0
FFF00001FFE0
FFF00001FFE0
FFF00001FFE0
FFF00001FFE0
FFF00001FFE0
FFF00001FFE0
FFF00001FFE0
FFF00001FFE0
FFF00001FFE0
FFF00001FFE0
FFF00001FFE0
FFF00001FFE0
FFF00001FFE0
FFF00001FFE0
FFF00001FFE0
FFF00001FFE0
FFF00001FFE0
FFF00001FFE0
FFF00001FFE0
FFF00001FFE0
FFF00001FFE0
FFF00001FFE0
FFF00001FFE0
FFF00001FFE0
FFF00001FFE0
FFF00001FFE0
FFF00001FFE0
FFF00001FFE0
FFF00001FFE0
FFF00001FFE0
FFF00001FFE0
FFF00001FFE0
FFF00001FFE0
FFF00001FFE0
FFF00001FFE0
FFF00001FFE0
FFF00001FFE0
FFF00001FFE0
FFF00003FFE0
FFF80003FFE0
7FF80003FFC0
7FF80003FFC0
7FFC0007FFC0
7FFC0007FFC0
3FFE000FFF80
3FFF001FFF80
1FFFC07FFF00
1FFFFFFFFF00
0FFFFFFFFE00
0FFFFFFFFE00
07FFFFFFFC00
03FFFFFFF800
01FFFFFFF000
007FFFFFC000
003FFFFF8000
0007FFFC0000
0000FFE00000
ENDCHAR
STARTCHAR 00DC
ENCODING 220
SWIDTH 611 0
DWIDTH 55 0
BBX 43 83 6 -1
BITMAP
00FC0007E000
01FE000FF000
03FF001FF800
07FF803FFC00
07FF803FFC00
07FF803FFC00
07FF803FFC00
07FF803FFC00
03FF001FF800
01FE000FF000
00FC0007E000
000000000000
000000000000
000000000000
000000000000
000000000000
000000000000
FFF00001FFE0
FFF00001FFE0
FFF00001FFE0
FFF00001FFE0
FFF00001FFE0
FFF00001FFE0
FFF00001FFE0
FFF00001FFE0
FFF00001FFE0
FFF00001FFE0
FFF00001FFE0
FFF00001FFE0
FFF00001FFE0
FFF00001FFE0
FFF00001FFE0
FFF00001FFE0
FFF00001FFE0
FFF00001FFE0
FFF00001FFE0
FFF00001FFE0
FFF00001FFE0
FFF00001FFE0
FFF00001FFE0
FFF00001FFE0
FFF00001FFE0
FFF00001FFE0
FFF00001FFE0
FFF00001FFE0
FFF00001FFE0
FFF00001FFE0
FFF00001FFE0
FFF00001FFE0
FFF00001FFE0
FFF00001FFE0
FFF00001FFE0
FFF00001FFE0
FFF00001FFE0
FFF00001FFE0
FFF00001FFE0
FFF00001FFE0
FFF00001FFE0
FFF00001FFE0
FFF00001FFE0
FFF00001FFE0
FFF00001FFE0
FFF00001FFE0
FFF00001FFE0
FFF80003FFE0
FFF80003FFE0
7FF80003FFC0
7FF80003FFC0
7FFC0007FFC0
7FFC000FFFC0
3FFE000FFF80
3FFF001FFF80
1FFFC07FFF00
1FFFFFFFFF00
0FFFFFFFFE00
0FFFFFFFFE00
07FFFFFFFC00
03FFFFFFF800
01FFFFFFF000
007FFFFFC000
003FFFFF8000
0007FFFC0000
0000FFE00000
ENDCHAR
STARTCHAR 00DD
ENCODING 221
SWIDTH 600 0
DWIDTH 54 0
BBX 52 81 1 0
BITMAP
00000007FFC000
0000000FFF8000
0000000FFF0000
0000001FFE0000
0000003FFC0000
0000003FF80000
0000007FF00000
000000FFE00000
000001FFC00000
000001FF800000
000003FF000000
000007FE000000
00000000000000
00000000000000
00000000000000
00000000000000
FFFC000001FFF0
7FFC000003FFF0
7FFE000003FFE0
3FFE000007FFE0
3FFF000007FFC0
1FFF00000FFFC0
1FFF80000FFF80
0FFF80000FFF80
0FFF80001FFF00
07FFC0001FFF00
07FFC0003FFE00
03FFE0003FFE00
03FFE0007FFC00
01FFE0007FFC00
01FFF0007FF800
00FFF000FFF800
00FFF800FFF000
007FF801FFF000
007FFC01FFF000
007FFC01FFE000
003FFC03FFE000
003FFE03FFC000
001FFE07FFC000
001FFF07FF8000
000FFF0FFF8000
000FFF8FFF0000
0007FF8FFF0000
0007FF9FFE0000
0003FFDFFE0000
0003FFFFFC0000
0001FFFFFC0000
0001FFFFF80000
0000FFFFF80000
0000FFFFF00000
00007FFFF00000
00007FFFE00000
00003FFFE00000
00003FFFC00000
00001FFFC00000
00001FFF800000
00001FFF800000
00000FFF800000
00000FFF000000
00000FFF000000
00000FFF000000
00000FFF000000
00000FFF000000
00000FFF000000
00000FFF000000
00000FFF000000
00000FFF000000
00000FFF000000
00000FFF000000
00000FFF000000
00000FFF000000
00000FFF000000
00000FFF000000
00000FFF000000
00000FFF000000
00000FFF000000
00000FFF000000
00000FFF000000
00000FFF000000
00000FFF000000
00000FFF000000
ENDCHAR
STARTCHAR 00DE
ENCODING 222
SWIDTH 600 0
DWIDTH 54 0
BBX 45 65 6 0
BITMAP
FFF000000000
FFF000000000
FFF000000000
FFF000000000
FFF000000000
FFF000000000
FFF000000000
FFF000000000
FFF000000000
FFF000000000
FFF000000000
FFF000000000
FFFFFFF00000
FFFFFFFF0000
FFFFFFFFC000
FFFFFFFFF000
FFFFFFFFFC00
FFFFFFFFFE00
FFFFFFFFFF00
FFFFFFFFFF80
FFFFFFFFFFC0
FFFFFFFFFFC0
FFF0003FFFE0
FFF0000FFFE0
FFF00003FFF0
FFF00001FFF0
FFF00000FFF8
FFF00000FFF8
FFF00000FFF8
FFF000007FF8
FFF000007FF8
FFF000007FF8
FFF000007FF8
FFF000007FF8
FFF000007FF8
FFF00000FFF8
FFF00000FFF8
FFF00000FFF8
FFF00001FFF0
FFF00003FFF0
FFF0000FFFE0
FFF0003FFFE0
FFFFFFFFFFC0
FFFFFFFFFFC0
FFFFFFFFFF80
FFFFFFFFFF00
FFFFFFFFFE00
FFFFFFFFFC00
FFFFFFFFF000
FFFFFFFFE000
FFFFFFFF0000
FFFFFFF00000
FFF000000000
FFF000000000
FFF000000000
FFF000000000
FFF000000000
FFF000000000
FFF000000000
FFF000000000
FFF000000000
FFF000000000
FFF000000000
FFF000000000
FFF000000000
ENDCHAR
STARTCHAR 00DF
ENCODING 223
SWIDTH 600 0
DWIDTH 54 0
BBX 45 70 7 -1
BITMAP
0001FF800000
000FFFF80000
003FFFFE0000
00FFFFFF0000
01FFFFFF8000
03FFFFFFC000
07FFFFFFE000
0FFFFFFFF000
1FFFFFFFF000
1FFFFFFFF800
3FFF83FFF800
3FFF01FFF800
7FFE00FFFC00
7FFC007FFC00
7FF8007FFC00
7FF8003FFC00
FFF8003FFC00
FFF8003FFC00
FFF0003FFC00
FFF0003FFC00
FFF0007FFC00
FFF0007FF800
FFF000FFF800
FFF000FFF000
FFF001FFF000
FFF001FFE000
FFF003FFE000
FFF003FFC000
FFF007FFC000
FFF007FF8000
FFF007FF8000
FFF007FF8000
FFF007FF8000
FFF007FF8000
FFF007FFC000
FFF007FFC000
FFF007FFE000
FFF003FFF000
FFF003FFF000
FFF003FFF800
FFF001FFFC00
FFF000FFFE00
FFF0007FFF00
FFF0007FFF80
FFF0003FFFC0
FFF0001FFFE0
FFF00007FFE0
FFF00003FFF0
FFF00003FFF0
FFF00001FFF0
FFF00000FFF8
FFF00000FFF8
FFF000007FF8
FFF000007FF8
FFF000007FF8
FFF000007FF8
FFF00000FFF8
FFF00000FFF8
FFF06001FFF0
FFF07E03FFF0
FFF07FFFFFF0
FFF0FFFFFFE0
FFF0FFFFFFE0
FFF0FFFFFFC0
FFF0FFFFFFC0
FFF1FFFFFF80
FFF1FFFFFF00
FFF1FFFFFC00
FFF07FFFF000
000003FF8000
ENDCHAR
STARTCHAR 00E0
ENCODING 224
SWIDTH 600 0
DWIDTH 54 0
BBX 43 68 5 -1
BITMAP
07FFE0000000
03FFE0000000
01FFF0000000
00FFF8000000
007FF8000000
003FFC000000
001FFC000000
000FFE000000
0007FF000000
0003FF000000
0001FF800000
0000FFC00000
000000000000
000000000000
000000000000
000000000000
000000000000
000000000000
0001FFE00000
000FFFFC0000
007FFFFF8000
00FFFFFFC000
03FFFFFFF000
07FFFFFFF800
0FFFFFFFFC00
1FFFFFFFFC00
1FFFFFFFFE00
3FFF80FFFF00
3FFE003FFF00
3FFC001FFF00
7FFC000FFF80
7FF8000FFF80
7FF80007FF80
00000007FF80
00000007FF80
00000007FF80
00000007FF80
00000007FF80
0001FFFFFF80
001FFFFFFF80
00FFFFFFFF80
03FFFFFFFF80
07FFFFFFFF80
0FFFFFFFFF80
1FFFFFFFFF80
3FFFC007FF80
3FFF0007FF80
7FFC0007FF80
7FF80007FF80
FFF80007FF80
FFF00007FF80
FFF00007FF80
FFF00007FF80
FFF00007FF80
FFF8000FFF80
FFF8001FFF80
FFFC007FFF80
FFFF01FFFF80
7FFFFFFFFF80
7FFFFFFFFF80
3FFFFFFFFF80
3FFFFFFFFFC0
1FFFFFFFFFC0
0FFFFFF3FFC0
07FFFFE3FFC0
01FFFFC3FFE0
007FFF03FFE0
000FF8000000
ENDCHAR
STARTCHAR 00E1
ENCODING 225
SWIDTH 600 0
DWIDTH 54 0
BBX 43 67 5 -1
BITMAP
000000FFF800
000001FFF000
000003FFE000
000003FFC000
000007FF8000
00000FFF0000
00000FFE0000
00001FFC0000
00003FF80000
00003FF00000
00007FE00000
0000FFC00000
000000000000
000000000000
000000000000
000000000000
000000000000
0001FFE00000
000FFFFC0000
007FFFFF8000
00FFFFFFC000
03FFFFFFF000
07FFFFFFF800
0FFFFFFFFC00
1FFFFFFFFC00
1FFFFFFFFE00
3FFF80FFFF00
3FFE003FFF00
3FFC001FFF00
7FFC000FFF80
7FF8000FFF80
7FF80007FF80
00000007FF80
00000007FF80
00000007FF80
00000007FF80
00000007FF80
0001FFFFFF80
001FFFFFFF80
00FFFFFFFF80
03FFFFFFFF80
07FFFFFFFF80
0FFFFFFFFF80
1FFFFFFFFF80
3FFFC007FF80
3FFF0007FF80
7FFC0007FF80
7FF80007FF80
FFF80007FF80
FFF00007FF80
FFF00007FF80
FFF00007FF80
FFF00007FF80
FFF8000FFF80
FFF8001FFF80
FFFC007FFF80
FFFF01FFFF80
7FFFFFFFFF80
7FFFFFFFFF80
3FFFFFFFFF80
3FFFFFFFFFC0
1FFFFFFFFFC0
0FFFFFF3FFC0
07FFFFE3FFC0
01FFFFC3FFE0
007FFF03FFE0
000FF8000000
ENDCHAR
STARTCHAR 00E2
ENCODING 226
SWIDTH 600 0
DWIDTH 54 0
BBX 43 70 5 -1
BITMAP
00003F800000
0000FFC00000
0001FFE00000
0003FFF00000
0007FFFC0000
000FFFFE0000
003FFFFF0000
007FF3FF8000
00FFE1FFE000
01FFC0FFF000
03FF807FF800
07FF001FFC00
07FC000FFC00
000000000000
000000000000
000000000000
000000000000
000000000000
000000000000
000000000000
0001FFE00000
000FFFFC0000
007FFFFF8000
00FFFFFFC000
03FFFFFFF000
07FFFFFFF800
0FFFFFFFFC00
1FFFFFFFFC00
1FFFFFFFFE00
3FFF80FFFF00
3FFE003FFF00
3FFC001FFF00
7FFC000FFF80
7FF8000FFF80
7FF80007FF80
00000007FF80
00000007FF80
00000007FF80
00000007FF80
00000007FF80
0001FFFFFF80
001FFFFFFF80
00FFFFFFFF80
03FFFFFFFF80
07FFFFFFFF80
0FFFFFFFFF80
1FFFFFFFFF80
3FFFC007FF80
3FFF0007FF80
7FFC0007FF80
7FF80007FF80
FFF80007FF80
FFF00007FF80
FFF00007FF80
FFF00007FF80
FFF00007FF80
FFF8000FFF80
FFF8001FFF80
FFFC007FFF80
FFFF01FFFF80
7FFFFFFFFF80
7FFFFFFFFF80
3FFFFFFFFF80
3FFFFFFFFFC0
1FFFFFFFFFC0
0FFFFFF3FFC0
07FFFFE3FFC0
01FFFFC3FFE0
007FFF01FFE0
000FF8000000
ENDCHAR
STARTCHAR 00E3
ENCODING 227
SWIDTH 600 0
DWIDTH 54 0
BBX 43 71 5 -1
BITMAP
000000010000
001FC001F000
007FF803F800
00FFFE03F800
01FFFFCFF800
01FFFFFFF000
03FFFFFFF000
03FFFFFFE000
03FFFFFFE000
07F81FFFC000
07F007FF8000
07F001FF0000
006000100000
000000000000
000000000000
000000000000
000000000000
000000000000
000000000000
000000000000
000000000000
0001FFE00000
000FFFFC0000
007FFFFF8000
00FFFFFFC000
03FFFFFFF000
07FFFFFFF800
0FFFFFFFFC00
1FFFFFFFFC00
1FFFFFFFFE00
3FFF80FFFF00
3FFE003FFF00
3FFC001FFF00
7FFC000FFF80
7FF8000FFF80
7FF80007FF80
00000007FF80
00000007FF80
00000007FF80
00000007FF80
00000007FF80
0001FFFFFF80
001FFFFFFF80
00FFFFFFFF80
03FFFFFFFF80
07FFFFFFFF80
0FFFFFFFFF80
1FFFFFFFFF80
3FFFC007FF80
3FFF0007FF80
7FFC0007FF80
7FF80007FF80
FFF80007FF80
FFF00007FF80
FFF00007FF80
FFF00007FF80
FFF00007FF80
FFF8000FFF80
FFF8001FFF80
FFFC007FFF80
FFFF01FFFF80
7FFFFFFFFF80
7FFFFFFFFF80
3FFFFFFFFF80
3FFFFFFFFFC0
1FFFFFFFFFC0
0FFFFFF3FFC0
07FFFFE3FFC0
01FFFFC3FFE0
007FFF03FFE0
000FF8000000
ENDCHAR
STARTCHAR 00E4
ENCODING 228
SWIDTH 600 0
DWIDTH 54 0
BBX 43 69 5 -1
BITMAP
01F8000FC000
03FC001FE000
07FE003FF000
0FFF007FF800
0FFF007FF800
0FFF007FF800
0FFF007FF800
0FFF007FF800
07FE003FF000
03FC001FE000
01F8000FC000
000000000000
000000000000
000000000000
000000000000
000000000000
000000000000
000000000000
000000000000
0001FFE00000
000FFFFC0000
007FFFFF8000
01FFFFFFC000
03FFFFFFF000
07FFFFFFF800
0FFFFFFFFC00
1FFFFFFFFC00
1FFFFFFFFE00
3FFF80FFFF00
3FFE003FFF00
7FFC001FFF00
7FFC000FFF80
7FF80007FF80
7FF80007FF80
00000007FF80
00000007FF80
00000007FF80
00000007FF80
0001FFFFFF80
001FFFFFFF80
00FFFFFFFF80
01FFFFFFFF80
07FFFFFFFF80
0FFFFFFFFF80
1FFFFFFFFF80
3FFFC007FF80
3FFF0007FF80
7FFC0007FF80
7FFC0007FF80
7FF80007FF80
FFF80007FF80
FFF00007FF80
FFF00007FF80
FFF00007FF80
FFF0000FFF80
FFF8000FFF80
FFF8001FFF80
FFFC007FFF80
7FFF01FFFF80
7FFFFFFFFF80
7FFFFFFFFF80
3FFFFFFFFF80
1FFFFFFFFFC0
1FFFFFFFFFC0
0FFFFFF3FFC0
07FFFFE3FFC0
01FFFFC3FFE0
007FFF03FFE0
000FF8000000
ENDCHAR
STARTCHAR 00E5
ENCODING 229
SWIDTH 600 0
DWIDTH 54 0
BBX 43 72 5 -1
BITMAP
00003F000000
0000FFC00000
0001FFE00000
0003FFF00000
0007E1F80000
0007C0F80000
000F807C0000
000F807C0000
000F807C0000
000F807C0000
000F807C0000
000FC0FC0000
0007E1F80000
0003FFF00000
0003FFF00000
0000FFC00000
00003F000000
000000000000
000000000000
000000000000
000000000000
000000000000
0001FFE00000
000FFFFC0000
007FFFFF8000
00FFFFFFC000
03FFFFFFF000
07FFFFFFF800
0FFFFFFFFC00
1FFFFFFFFC00
1FFFFFFFFE00
3FFF80FFFF00
3FFE003FFF00
3FFC001FFF00
7FFC000FFF80
7FF8000FFF80
7FF80007FF80
00000007FF80
00000007FF80
00000007FF80
00000007FF80
00000007FF80
0001FFFFFF80
001FFFFFFF80
00FFFFFFFF80
03FFFFFFFF80
07FFFFFFFF80
0FFFFFFFFF80
1FFFFFFFFF80
3FFFC007FF80
3FFF0007FF80
7FFC0007FF80
7FF80007FF80
FFF80007FF80
FFF00007FF80
FFF00007FF80
FFF00007FF80
FFF00007FF80
FFF8000FFF80
FFF8001FFF80
FFFC007FFF80
FFFF01FFFF80
7FFFFFFFFF80
7FFFFFFFFF80
3FFFFFFFFF80
3FFFFFFFFFC0
1FFFFFFFFFC0
0FFFFFF3FFC0
07FFFFE3FFC0
01FFFFC3FFE0
007FFF03FFE0
000FF8000000
ENDCHAR
STARTCHAR 00E6
ENCODING 230
SWIDTH 600 0
DWIDTH 54 0
BBX 50 50 2 -1
BITMAP
000FF800FF0000
007FFE07FFC000
01FFFF9FFFF000
07FFFFFFFFF800
0FFFFFFFFFFC00
0FFFFFFFFFFE00
1FFFFFFFFFFE00
3FFFFFFFFFFF00
3FFFFFFFFFFF00
3FFFFFFFFFFF80
7FFC3FFF87FF80
7FF81FFF03FF80
7FF00FFF01FF80
7FF00FFE01FFC0
00000FFE01FFC0
00000FFE01FFC0
00000FFE01FFC0
00000FFE01FFC0
00000FFE01FFC0
00000FFE01FFC0
0007FFFFFFFFC0
003FFFFFFFFFC0
01FFFFFFFFFFC0
03FFFFFFFFFFC0
0FFFFFFFFFFFC0
1FFFFFFFFFFFC0
1FFFFFFFFFFFC0
3FFFFFFFFFFFC0
7FFF8FFFFFFFC0
7FFE0FFE000000
7FFC0FFE000000
FFF80FFE000000
FFF80FFE000000
FFF80FFE000000
FFF00FFE000000
FFF00FFE000000
FFF00FFF000000
FFF00FFF000000
FFF80FFF800600
FFF80FFFE03E00
7FFE1FFFFFFE00
7FFFFFFFFFFE00
7FFFFFFFFFFF00
3FFFFFFFFFFF00
3FFFFFFFFFFF00
1FFFFF7FFFFF80
0FFFFE3FFFFF80
07FFFC1FFFFE00
01FFF007FFF800
003FC000FF8000
ENDCHAR
STARTCHAR 00E7
ENCODING 231
SWIDTH 600 0
DWIDTH 54 0
BBX 43 69 5 -20
BITMAP
00007FF00000
0003FFFE0000
001FFFFF8000
003FFFFFE000
00FFFFFFF800
01FFFFFFFC00
03FFFFFFFE00
07FFFFFFFE00
07FFFFFFFF00
0FFFFFFFFF80
1FFFE07FFF80
1FFF801FFFC0
3FFF0007FFC0
3FFE0007FFC0
3FFC0003FFE0
7FFC0003FFE0
7FF80001FFE0
7FF80001FFE0
FFF80001FFE0
FFF800000000
FFF000000000
FFF000000000
FFF000000000
FFF000000000
FFF000000000
FFF000000000
FFF000000000
FFF000000000
FFF000000000
FFF000000000
FFF800000000
FFF800000000
7FF800000000
7FF80001FFE0
7FFC0001FFE0
7FFC0003FFE0
3FFE0003FFE0
3FFE0007FFC0
1FFF000FFFC0
1FFFC03FFFC0
0FFFFFFFFF80
0FFFFFFFFF00
07FFFFFFFF00
03FFFFFFFE00
01FFFFFFFC00
00FFFFFFF800
007FFFFFE000
001FFFFFC000
0007FFFF0000
0000FFF80000
00007FE00000
00007FE00000
00007FFC0000
00007FFE0000
00007FFF0000
00000FFF0000
000003FF8000
000001FF8000
000001FF8000
000001FF8000
000003FF8000
000007FF8000
00003FFF0000
00003FFF0000
00003FFE0000
00003FFC0000
00003FF80000
00003FE00000
00003E000000
ENDCHAR
STARTCHAR 00E8
ENCODING 232
SWIDTH 600 0
DWIDTH 54 0
BBX 45 68 4 -1
BITMAP
03FFE0000000
01FFF0000000
00FFF8000000
007FF8000000
003FFC000000
001FFE000000
000FFE000000
0007FF000000
0003FF800000
0001FF800000
0000FFC00000
00007FE00000
000000000000
000000000000
000000000000
000000000000
000000000000
000000000000
00001FF80000
0001FFFF0000
0007FFFFC000
001FFFFFF000
003FFFFFF800
007FFFFFFE00
01FFFFFFFF00
01FFFFFFFF00
03FFFFFFFF80
07FFFFFFFFC0
0FFFF01FFFC0
0FFFC007FFE0
1FFF8003FFE0
1FFF0001FFF0
3FFE0000FFF0
3FFE0000FFF0
3FFC00007FF0
7FFC00007FF8
7FF800007FF8
7FF800007FF8
7FFFFFFFFFF8
7FFFFFFFFFF8
7FFFFFFFFFF8
7FFFFFFFFFF8
FFFFFFFFFFF8
FFFFFFFFFFF8
FFFFFFFFFFF8
FFFFFFFFFFF8
7FFFFFFFFFF8
7FF800000000
7FF800000000
7FFC00000000
7FFC00000000
7FFC00000000
3FFE00000000
3FFF00000600
3FFF80000F00
1FFFC0001F80
0FFFE0007FC0
0FFFFC03FFE0
07FFFFFFFFF0
03FFFFFFFFF0
01FFFFFFFFE0
01FFFFFFFFC0
007FFFFFFF80
003FFFFFFF00
000FFFFFFC00
0007FFFFF000
0000FFFFC000
00001FFE0000
ENDCHAR
STARTCHAR 00E9
ENCODING 233
SWIDTH 600 0
DWIDTH 54 0
BBX 45 67 4 -1
BITMAP
0000007FFC00
000000FFF800
000001FFF000
000001FFE000
000003FFC000
000007FF8000
000007FF0000
00000FFE0000
00001FFC0000
00003FF80000
00003FF00000
00007FE00000
000000000000
000000000000
000000000000
000000000000
000000000000
00001FF80000
0001FFFF0000
0007FFFFC000
001FFFFFF000
003FFFFFF800
007FFFFFFE00
01FFFFFFFF00
01FFFFFFFF00
03FFFFFFFF80
07FFFFFFFFC0
0FFFF01FFFC0
0FFFC007FFE0
1FFF8003FFE0
1FFF0001FFF0
3FFE0000FFF0
3FFE0000FFF0
3FFC00007FF0
7FFC00007FF8
7FF800007FF8
7FF800007FF8
7FFFFFFFFFF8
7FFFFFFFFFF8
7FFFFFFFFFF8
7FFFFFFFFFF8
FFFFFFFFFFF8
FFFFFFFFFFF8
FFFFFFFFFFF8
FFFFFFFFFFF8
7FFFFFFFFFF8
7FF800000000
7FF800000000
7FFC00000000
7FFC00000000
7FFC00000000
3FFE00000000
3FFF00000600
3FFF80000F00
1FFFC0001F80
0FFFE0007FC0
0FFFFC03FFE0
07FFFFFFFFF0
03FFFFFFFFF0
01FFFFFFFFE0
01FFFFFFFFC0
007FFFFFFF80
003FFFFFFF00
000FFFFFFC00
0007FFFFF000
0000FFFFC000
00001FFE0000
ENDCHAR
STARTCHAR 00EA
ENCODING 234
SWIDTH 600 0
DWIDTH 54 0
BBX 44 70 5 -1
BITMAP
00003F800000
0000FFC00000
0001FFE00000
0003FFF00000
0007FFFC0000
000FFFFE0000
003FFFFF0000
007FF3FF8000
00FFE1FFE000
01FFC0FFF000
03FF807FF800
07FF003FFC00
07FC000FFC00
000000000000
000000000000
000000000000
000000000000
000000000000
000000000000
000000000000
00003FF00000
0003FFFE0000
000FFFFF8000
001FFFFFE000
007FFFFFF000
00FFFFFFFC00
01FFFFFFFE00
03FFFFFFFE00
07FFFFFFFF00
0FFFFFFFFF80
0FFFE03FFF80
1FFF800FFFC0
1FFF0007FFC0
3FFE0003FFE0
3FFC0001FFE0
7FFC0001FFE0
7FF80000FFE0
7FF80000FFF0
7FF80000FFF0
FFF00000FFF0
FFFFFFFFFFF0
FFFFFFFFFFF0
FFFFFFFFFFF0
FFFFFFFFFFF0
FFFFFFFFFFF0
FFFFFFFFFFF0
FFFFFFFFFFF0
FFFFFFFFFFF0
FFFFFFFFFFF0
FFF000000000
FFF000000000
FFF800000000
7FF800000000
7FFC00000000
7FFC00000000
3FFE00000400
3FFF00000E00
3FFF80003F00
1FFFC000FF80
0FFFF807FFC0
0FFFFFFFFFE0
07FFFFFFFFE0
03FFFFFFFFC0
01FFFFFFFF80
00FFFFFFFF00
007FFFFFFE00
001FFFFFF800
0007FFFFF000
0001FFFF8000
00001FFC0000
ENDCHAR
STARTCHAR 00EB
ENCODING 235
SWIDTH 588 0
DWIDTH 53 0
BBX 45 68 4 0
BITMAP
00FC0007E000
01FE000FF000
03FF001FF800
07FF803FFC00
07FF803FFC00
07FF803FFC00
07FF803FFC00
07FF803FFC00
03FF001FF800
01FE000FF000
00FC0007E000
000000000000
000000000000
000000000000
000000000000
000000000000
000000000000
000000000000
00001FF00000
0001FFFF0000
0007FFFFC000
001FFFFFF000
003FFFFFF800
00FFFFFFFC00
01FFFFFFFE00
03FFFFFFFF00
03FFFFFFFF80
07FFFFFFFF80
0FFFF03FFFC0
0FFFC00FFFC0
1FFF8003FFE0
1FFF0001FFE0
3FFE0001FFF0
3FFE0000FFF0
3FFC0000FFF0
7FFC0000FFF0
7FFC00007FF0
7FF800007FF8
7FF800007FF8
7FFFFFFFFFF8
7FFFFFFFFFF8
7FFFFFFFFFF8
FFFFFFFFFFF8
FFFFFFFFFFF8
FFFFFFFFFFF8
FFFFFFFFFFF8
7FFFFFFFFFF8
7FFFFFFFFFF8
7FF800000000
7FF800000000
7FFC00000000
7FFC00000000
3FFE00000000
3FFE00000600
3FFF00000E00
1FFF80001F00
0FFFE0007F80
0FFFF803FFC0
07FFFFFFFFE0
03FFFFFFFFF0
01FFFFFFFFE0
00FFFFFFFFC0
007FFFFFFF80
003FFFFFFF00
001FFFFFFC00
0007FFFFF000
0000FFFFC000
00001FFC0000
ENDCHAR
STARTCHAR 00EC
ENCODING 236
SWIDTH 600 0
DWIDTH 54 0
BBX 40 66 9 0
BITMAP
07FFC00000
03FFC00000
01FFE00000
00FFF00000
007FF00000
007FF80000
003FFC0000
001FFC0000
000FFE0000
0007FF0000
0003FF0000
0001FF8000
0000000000
0000000000
0000000000
0000000000
0000000000
0000000000
FFFFFFC000
FFFFFFC000
FFFFFFC000
FFFFFFC000
FFFFFFC000
FFFFFFC000
FFFFFFC000
FFFFFFC000
FFFFFFC000
FFFFFFC000
0003FFC000
0003FFC000
0003FFC000
0003FFC000
0003FFC000
0003FFC000
0003FFC000
0003FFC000
0003FFC000
0003FFC000
0003FFC000
0003FFC000
0003FFC000
0003FFC000
0003FFC000
0003FFC000
0003FFC000
0003FFC000
0003FFC000
0003FFC000
0003FFC000
0003FFC000
0003FFC000
0003FFC000
0003FFC000
0003FFC000
0003FFC000
0003FFC000
FFFFFFFFFF
FFFFFFFFFF
FFFFFFFFFF
FFFFFFFFFF
FFFFFFFFFF
FFFFFFFFFF
FFFFFFFFFF
FFFFFFFFFF
FFFFFFFFFF
FFFFFFFFFF
ENDCHAR
STARTCHAR 00ED
ENCODING 237
SWIDTH 600 0
DWIDTH 54 0
BBX 40 65 9 0
BITMAP
000001FFF0
000003FFE0
000003FFC0
000007FF80
00000FFF00
00000FFE00
00001FFC00
00003FF800
00003FF000
00007FE000
0000FFC000
0000FF8000
0000000000
0000000000
0000000000
0000000000
0000000000
FFFFFFC000
FFFFFFC000
FFFFFFC000
FFFFFFC000
FFFFFFC000
FFFFFFC000
FFFFFFC000
FFFFFFC000
FFFFFFC000
FFFFFFC000
0003FFC000
0003FFC000
0003FFC000
0003FFC000
0003FFC000
0003FFC000
0003FFC000
0003FFC000
0003FFC000
0003FFC000
0003FFC000
0003FFC000
0003FFC000
0003FFC000
0003FFC000
0003FFC000
0003FFC000
0003FFC000
0003FFC000
0003FFC000
0003FFC000
0003FFC000
0003FFC000
0003FFC000
0003FFC000
0003FFC000
0003FFC000
0003FFC000
FFFFFFFFFF
FFFFFFFFFF
FFFFFFFFFF
FFFFFFFFFF
FFFFFFFFFF
FFFFFFFFFF
FFFFFFFFFF
FFFFFFFFFF
FFFFFFFFFF
FFFFFFFFFF
ENDCHAR
STARTCHAR 00EE
ENCODING 238
SWIDTH 600 0
DWIDTH 54 0
BBX 40 67 9 1
BITMAP
0000FF0000
0001FFC000
0003FFE000
0007FFF000
001FFFF800
003FFFFE00
007FFFFF00
00FFE3FF80
03FFC1FFC0
07FF00FFF0
0FFE007FF8
0FFC001FF8
0000000000
0000000000
0000000000
0000000000
0000000000
0000000000
0000000000
FFFFFFC000
FFFFFFC000
FFFFFFC000
FFFFFFC000
FFFFFFC000
FFFFFFC000
FFFFFFC000
FFFFFFC000
FFFFFFC000
FFFFFFC000
0003FFC000
0003FFC000
0003FFC000
0003FFC000
0003FFC000
0003FFC000
0003FFC000
0003FFC000
0003FFC000
0003FFC000
0003FFC000
0003FFC000
0003FFC000
0003FFC000
0003FFC000
0003FFC000
0003FFC000
0003FFC000
0003FFC000
0003FFC000
0003FFC000
0003FFC000
0003FFC000
0003FFC000
0003FFC000
0003FFC000
0003FFC000
0003FFC000
FFFFFFFFFF
FFFFFFFFFF
FFFFFFFFFF
FFFFFFFFFF
FFFFFFFFFF
FFFFFFFFFF
FFFFFFFFFF
FFFFFFFFFF
FFFFFFFFFF
FFFFFFFFFF
ENDCHAR
STARTCHAR 00EF
ENCODING 239
SWIDTH 600 0
DWIDTH 54 0
BBX 40 66 9 0
BITMAP
01F8000FC0
03FC001FE0
07FE003FF0
0FFF007FF8
0FFF007FF8
0FFF007FF8
0FFF007FF8
0FFF007FF8
07FE003FF0
03FC001FE0
01F8000FC0
0000000000
0000000000
0000000000
0000000000
0000000000
0000000000
0000000000
FFFFFFC000
FFFFFFC000
FFFFFFC000
FFFFFFC000
FFFFFFC000
FFFFFFC000
FFFFFFC000
FFFFFFC000
FFFFFFC000
FFFFFFC000
0003FFC000
0003FFC000
0003FFC000
0003FFC000
0003FFC000
0003FFC000
0003FFC000
0003FFC000
0003FFC000
0003FFC000
0003FFC000
0003FFC000
0003FFC000
0003FFC000
0003FFC000
0003FFC000
0003FFC000
0003FFC000
0003FFC000
0003FFC000
0003FFC000
0003FFC000
0003FFC000
0003FFC000
0003FFC000
0003FFC000
0003FFC000
0003FFC000
FFFFFFFFFF
FFFFFFFFFF
FFFFFFFFFF
FFFFFFFFFF
FFFFFFFFFF
FFFFFFFFFF
FFFFFFFFFF
FFFFFFFFFF
FFFFFFFFFF
FFFFFFFFFF
ENDCHAR
STARTCHAR 00F0
ENCODING 240
SWIDTH 611 0
DWIDTH 55 0
BBX 47 68 2 -1
BITMAP
00000E000000
00000FC00020
00001FF00060
00001FFC01F0
00001FFE07F8
00003FFF9FF8
00003FFFFFFC
00007FFFFFF0
00007FFFFFC0
00007FFFFF00
00001FFFFE00
000007FFFE00
000003FFFE00
000007FFFF00
00001FFFFF80
00007FFFFF80
0001FFFFFFC0
0007FFCFFFC0
0003FF07FFE0
0001FC03FFE0
0001F803FFF0
0000E001FFF0
00000001FFF8
00000000FFF8
0000FFC0FFF8
0007FFF87FF8
001FFFFE7FFC
007FFFFFFFFC
00FFFFFFFFFC
03FFFFFFFFFC
03FFFFFFFFFC
07FFFFFFFFFE
0FFFFFFFFFFE
1FFFFFFFFFFE
1FFFE00FFFFE
3FFF8001FFFE
3FFF00007FFE
7FFE00003FFE
7FFC00001FFE
7FFC00001FFE
7FF800001FFE
FFF800001FFE
FFF800001FFE
FFF000001FFE
FFF000001FFE
FFF000001FFE
FFF000003FFE
FFF000003FFC
FFF000003FFC
FFF800003FFC
FFF800007FFC
7FF800007FF8
7FFC0000FFF8
7FFC0000FFF8
3FFE0001FFF0
3FFF0003FFF0
3FFF8007FFE0
1FFFE01FFFE0
0FFFFFFFFFC0
0FFFFFFFFF80
07FFFFFFFF00
03FFFFFFFE00
01FFFFFFFC00
007FFFFFF800
003FFFFFE000
000FFFFFC000
0003FFFE0000
00007FF00000
ENDCHAR
STARTCHAR 00F1
ENCODING 241
SWIDTH 600 0
DWIDTH 54 0
BBX 42 70 6 0
BITMAP
000000020000
003FC003F000
007FF007F000
00FFFC07F000
01FFFF9FF000
03FFFFFFF000
03FFFFFFE000
07FFFFFFE000
07FFFFFFC000
07F03FFF8000
0FE00FFF0000
0FE003FE0000
00E000200000
000000000000
000000000000
000000000000
000000000000
000000000000
000000000000
000000000000
000000000000
000003FE0000
FFE01FFFC000
FFE07FFFE000
FFE0FFFFF800
FFE3FFFFFC00
FFF7FFFFFE00
FFF7FFFFFE00
FFFFFFFFFF00
FFFFFFFFFF00
FFFFFFFFFF80
FFFFC0FFFF80
FFFF001FFF80
FFFC000FFFC0
FFF80007FFC0
FFF00007FFC0
FFF00003FFC0
FFF00003FFC0
FFF00003FFC0
FFF00003FFC0
FFF00003FFC0
FFF00003FFC0
FFF00003FFC0
FFF00003FFC0
FFF00003FFC0
FFF00003FFC0
FFF00003FFC0
FFF00003FFC0
FFF00003FFC0
FFF00003FFC0
FFF00003FFC0
FFF00003FFC0
FFF00003FFC0
FFF00003FFC0
FFF00003FFC0
FFF00003FFC0
FFF00003FFC0
FFF00003FFC0
FFF00003FFC0
FFF00003FFC0
FFF00003FFC0
FFF00003FFC0
FFF00003FFC0
FFF00003FFC0
FFF00003FFC0
FFF00003FFC0
FFF00003FFC0
FFF00003FFC0
FFF00003FFC0
FFF00003FFC0
ENDCHAR
STARTCHAR 00F2
ENCODING 242
SWIDTH 611 0
DWIDTH 55 0
BBX 45 68 5 -1
BITMAP
01FFF0000000
00FFF8000000
007FFC000000
003FFC000000
001FFE000000
000FFF000000
0007FF000000
0003FF800000
0001FFC00000
0000FFC00000
00007FE00000
00003FF00000
000000000000
000000000000
000000000000
000000000000
000000000000
000000000000
00007FF00000
0003FFFE0000
000FFFFF8000
003FFFFFE000
007FFFFFF000
01FFFFFFFC00
03FFFFFFFE00
07FFFFFFFE00
07FFFFFFFF00
0FFFFFFFFF80
1FFFE03FFFC0
1FFF800FFFC0
3FFF0007FFE0
3FFE0003FFE0
3FFC0001FFE0
7FFC0001FFF0
7FFC0001FFF0
7FF80000FFF0
7FF80000FFF0
FFF80000FFF8
FFF80000FFF8
FFF000007FF8
FFF000007FF8
FFF000007FF8
FFF000007FF8
FFF000007FF8
FFF000007FF8
FFF000007FF8
FFF000007FF8
FFF00000FFF8
FFF80000FFF8
7FF80000FFF0
7FF80000FFF0
7FF80001FFF0
7FFC0001FFF0
3FFC0001FFE0
3FFE0003FFE0
3FFF0007FFE0
1FFF800FFFC0
1FFFE03FFFC0
0FFFFFFFFF80
07FFFFFFFF00
07FFFFFFFF00
03FFFFFFFE00
01FFFFFFFC00
007FFFFFF800
003FFFFFE000
000FFFFF8000
0003FFFE0000
00007FF00000
ENDCHAR
STARTCHAR 00F3
ENCODING 243
SWIDTH 611 0
DWIDTH 55 0
BBX 45 67 5 -1
BITMAP
0000003FFE00
0000007FFC00
000000FFF800
000001FFF000
000001FFE000
000003FFC000
000007FF8000
000007FF0000
00000FFE0000
00001FFC0000
00001FF80000
00003FF00000
000000000000
000000000000
000000000000
000000000000
000000000000
00007FF00000
0003FFFE0000
000FFFFF8000
003FFFFFE000
007FFFFFF000
01FFFFFFFC00
03FFFFFFFE00
07FFFFFFFE00
07FFFFFFFF00
0FFFFFFFFF80
1FFFE03FFFC0
1FFF800FFFC0
3FFF0007FFE0
3FFE0003FFE0
3FFC0001FFE0
7FFC0001FFF0
7FFC0001FFF0
7FF80000FFF0
7FF80000FFF0
FFF80000FFF8
FFF80000FFF8
FFF000007FF8
FFF000007FF8
FFF000007FF8
FFF000007FF8
FFF000007FF8
FFF000007FF8
FFF000007FF8
FFF000007FF8
FFF00000FFF8
FFF80000FFF8
7FF80000FFF0
7FF80000FFF0
7FF80001FFF0
7FFC0001FFF0
3FFC0001FFE0
3FFE0003FFE0
3FFF0007FFE0
1FFF800FFFC0
1FFFE03FFFC0
0FFFFFFFFF80
07FFFFFFFF00
07FFFFFFFF00
03FFFFFFFE00
01FFFFFFFC00
007FFFFFF800
003FFFFFE000
000FFFFF8000
0003FFFE0000
00007FF00000
ENDCHAR
STARTCHAR 00F4
ENCODING 244
SWIDTH 611 0
DWIDTH 55 0
BBX 45 70 5 -1
BITMAP
00001FC00000
00003FF00000
00007FF80000
0000FFFC0000
0003FFFE0000
0007FFFF0000
000FFFFF8000
001FFCFFE000
007FF87FF000
00FFF03FF800
01FFC01FFC00
03FF800FFE00
03FF0003FE00
000000000000
000000000000
000000000000
000000000000
000000000000
000000000000
000000000000
00007FF00000
0003FFFE0000
000FFFFF8000
003FFFFFE000
007FFFFFF000
01FFFFFFFC00
03FFFFFFFE00
07FFFFFFFE00
07FFFFFFFF00
0FFFFFFFFF80
1FFFE03FFFC0
1FFF800FFFC0
3FFF0007FFE0
3FFE0003FFE0
3FFC0001FFE0
7FFC0001FFF0
7FFC0001FFF0
7FF80000FFF0
7FF80000FFF0
FFF80000FFF8
FFF80000FFF8
FFF000007FF8
FFF000007FF8
FFF000007FF8
FFF000007FF8
FFF000007FF8
FFF000007FF8
FFF000007FF8
FFF000007FF8
FFF00000FFF8
FFF80000FFF8
7FF80000FFF0
7FF80000FFF0
7FF80001FFF0
7FFC0001FFF0
3FFC0001FFE0
3FFE0003FFE0
3FFF0007FFE0
1FFF800FFFC0
1FFFE03FFFC0
0FFFFFFFFF80
07FFFFFFFF00
07FFFFFFFF00
03FFFFFFFE00
01FFFFFFFC00
007FFFFFF800
003FFFFFE000
000FFFFF8000
0003FFFE0000
00007FF00000
ENDCHAR
STARTCHAR 00F5
ENCODING 245
SWIDTH 611 0
DWIDTH 55 0
BBX 45 71 5 -1
BITMAP
000000004000
0007F0007C00
001FFC00FE00
003FFF01FE00
007FFFE3FE00
00FFFFFFFC00
00FFFFFFFC00
01FFFFFFF800
01FFFFFFF800
01FC0FFFF000
01FC01FFE000
01F8007F8000
001800040000
000000000000
000000000000
000000000000
000000000000
000000000000
000000000000
000000000000
000000000000
00007FF00000
0003FFFE0000
000FFFFF8000
003FFFFFE000
007FFFFFF000
01FFFFFFFC00
03FFFFFFFE00
07FFFFFFFE00
07FFFFFFFF00
0FFFFFFFFF80
1FFFE03FFFC0
1FFF800FFFC0
3FFF0007FFE0
3FFE0003FFE0
3FFC0001FFE0
7FFC0001FFF0
7FFC0001FFF0
7FF80000FFF0
7FF80000FFF0
FFF80000FFF8
FFF80000FFF8
FFF000007FF8
FFF000007FF8
FFF000007FF8
FFF000007FF8
FFF000007FF8
FFF000007FF8
FFF000007FF8
FFF000007FF8
FFF00000FFF8
FFF80000FFF8
7FF80000FFF0
7FF80000FFF0
7FF80001FFF0
7FFC0001FFF0
3FFC0001FFE0
3FFE0003FFE0
3FFF0007FFE0
1FFF800FFFC0
1FFFE03FFFC0
0FFFFFFFFF80
07FFFFFFFF00
07FFFFFFFF00
03FFFFFFFE00
01FFFFFFFC00
007FFFFFF800
003FFFFFE000
000FFFFF8000
0003FFFE0000
00007FF00000
ENDCHAR
STARTCHAR 00F6
ENCODING 246
SWIDTH 611 0
DWIDTH 55 0
BBX 45 68 5 0
BITMAP
007E0003F000
00FF0007F800
01FF800FFC00
03FFC01FFE00
03FFC01FFE00
03FFC01FFE00
03FFC01FFE00
03FFC01FFE00
01FF800FFC00
00FF0007F800
007E0003F000
000000000000
000000000000
000000000000
000000000000
000000000000
000000000000
000000000000
00007FF00000
0003FFFE0000
000FFFFF8000
003FFFFFE000
007FFFFFF000
01FFFFFFFC00
03FFFFFFFE00
07FFFFFFFE00
07FFFFFFFF00
0FFFFFFFFF80
1FFFE03FFFC0
1FFF800FFFC0
3FFF0007FFE0
3FFE0003FFE0
3FFC0001FFE0
7FFC0001FFF0
7FFC0001FFF0
7FF80000FFF0
7FF80000FFF0
FFF80000FFF8
FFF80000FFF8
FFF000007FF8
FFF000007FF8
FFF000007FF8
FFF000007FF8
FFF000007FF8
FFF000007FF8
FFF000007FF8
FFF000007FF8
FFF00000FFF8
FFF80000FFF8
7FF80000FFF0
7FF80000FFF0
7FF80001FFF0
7FFC0001FFF0
3FFC0001FFE0
3FFE0003FFE0
3FFF0007FFE0
1FFF800FFFC0
1FFFE03FFFC0
0FFFFFFFFF80
07FFFFFFFF00
07FFFFFFFF00
03FFFFFFFE00
01FFFFFFFC00
007FFFFFF800
003FFFFFE000
000FFFFF8000
0003FFFE0000
00007FF00000
ENDCHAR
STARTCHAR 00F7
ENCODING 247
SWIDTH 600 0
DWIDTH 54 0
BBX 45 49 5 6
BITMAP
00000F800000
00003FE00000
00007FF00000
00007FF00000
0000FFF80000
0000FFF80000
0000FFF80000
0000FFF80000
0000FFF80000
00007FF00000
00007FF00000
00003FE00000
00000F800000
000000000000
000000000000
000000000000
000000000000
000000000000
000000000000
000000000000
FFFFFFFFFFF8
FFFFFFFFFFF8
FFFFFFFFFFF8
FFFFFFFFFFF8
FFFFFFFFFFF8
FFFFFFFFFFF8
FFFFFFFFFFF8
FFFFFFFFFFF8
FFFFFFFFFFF8
FFFFFFFFFFF8
000000000000
000000000000
000000000000
000000000000
000000000000
000000000000
00000F800000
00003FE00000
00007FF00000
00007FF00000
0000FFF80000
0000FFF80000
0000FFF80000
0000FFF80000
0000FFF80000
00007FF00000
00007FF00000
00003FE00000
00000F800000
ENDCHAR
STARTCHAR 00F8
ENCODING 248
SWIDTH 611 0
DWIDTH 55 0
BBX 45 61 5 -7
BITMAP
000000003F80
000000007F00
000000007F00
00000000FE00
00000000FE00
00007FF1FC00
0003FFFFFC00
000FFFFFF800
003FFFFFF800
007FFFFFF000
01FFFFFFFC00
03FFFFFFFE00
07FFFFFFFF00
07FFFFFFFF00
0FFFFFFFFF80
1FFFE03FFFC0
1FFF803FFFC0
3FFF003FFFE0
3FFE007FFFE0
3FFC007FFFE0
7FFC00FFFFF0
7FFC00FFFFF0
7FF801FCFFF0
7FF801FCFFF0
FFF803F8FFF8
FFF803F87FF8
FFF007F07FF8
FFF007F07FF8
FFF00FE07FF8
FFF00FE07FF8
FFF01FC07FF8
FFF01FC07FF8
FFF03F807FF8
FFF03F807FF8
FFF07F00FFF8
FFF87F00FFF8
7FF8FE00FFF0
7FF8FE00FFF0
7FF9FC01FFF0
7FFDFC01FFF0
3FFFF801FFE0
3FFFF803FFE0
3FFFF007FFE0
1FFFF00FFFC0
1FFFE03FFFC0
0FFFFFFFFF80
07FFFFFFFF00
07FFFFFFFF00
03FFFFFFFE00
01FFFFFFFC00
007FFFFFF800
007FFFFFE000
007FFFFF8000
00FFFFFE0000
00FE7FF00000
01FC00000000
01FC00000000
03F800000000
03F800000000
07F000000000
07F000000000
ENDCHAR
STARTCHAR 00F9
ENCODING 249
SWIDTH 611 0
DWIDTH 55 0
BBX 42 67 7 -1
BITMAP
07FFC0000000
03FFE0000000
01FFF0000000
00FFF0000000
007FF8000000
003FFC000000
001FFC000000
000FFE000000
0007FF000000
0003FF000000
0001FF800000
0000FFC00000
000000000000
000000000000
000000000000
000000000000
000000000000
000000000000
FFF00003FFC0
FFF00003FFC0
FFF00003FFC0
FFF00003FFC0
FFF00003FFC0
FFF00003FFC0
FFF00003FFC0
FFF00003FFC0
FFF00003FFC0
FFF00003FFC0
FFF00003FFC0
FFF00003FFC0
FFF00003FFC0
FFF00003FFC0
FFF00003FFC0
FFF00003FFC0
FFF00003FFC0
FFF00003FFC0
FFF00003FFC0
FFF00003FFC0
FFF00003FFC0
FFF00003FFC0
FFF00003FFC0
FFF00003FFC0
FFF00003FFC0
FFF00003FFC0
FFF00003FFC0
FFF00003FFC0
FFF00003FFC0
FFF00003FFC0
FFF00003FFC0
FFF00003FFC0
FFF00003FFC0
FFF80003FFC0
FFF80007FFC0
7FF80007FFC0
7FFC000FFFC0
7FFE003FFFC0
7FFF80FFFFC0
3FFFFFFFFFC0
3FFFFFFFFFC0
1FFFFFFFFFC0
1FFFFFFBFFC0
0FFFFFFBFFC0
07FFFFF1FFC0
03FFFFE1FFC0
01FFFF81FFC0
007FFE01FFC0
000FF8000000
ENDCHAR
STARTCHAR 00FA
ENCODING 250
SWIDTH 611 0
DWIDTH 55 0
BBX 42 67 7 -1
BITMAP
000000FFF800
000001FFF000
000003FFE000
000003FFC000
000007FF8000
00000FFF0000
00001FFE0000
00001FFC0000
00003FF80000
00007FF00000
00007FE00000
0000FFC00000
000000000000
000000000000
000000000000
000000000000
000000000000
000000000000
FFF00003FFC0
FFF00003FFC0
FFF00003FFC0
FFF00003FFC0
FFF00003FFC0
FFF00003FFC0
FFF00003FFC0
FFF00003FFC0
FFF00003FFC0
FFF00003FFC0
FFF00003FFC0
FFF00003FFC0
FFF00003FFC0
FFF00003FFC0
FFF00003FFC0
FFF00003FFC0
FFF00003FFC0
FFF00003FFC0
FFF00003FFC0
FFF00003FFC0
FFF00003FFC0
FFF00003FFC0
FFF00003FFC0
FFF00003FFC0
FFF00003FFC0
FFF00003FFC0
FFF00003FFC0
FFF00003FFC0
FFF00003FFC0
FFF00003FFC0
FFF00003FFC0
FFF00003FFC0
FFF00003FFC0
FFF80003FFC0
FFF80007FFC0
7FF80007FFC0
7FFC000FFFC0
7FFE003FFFC0
7FFF80FFFFC0
3FFFFFFFFFC0
3FFFFFFFFFC0
1FFFFFFFFFC0
1FFFFFFBFFC0
0FFFFFFBFFC0
07FFFFF1FFC0
03FFFFE1FFC0
01FFFF81FFC0
007FFE01FFC0
000FF8000000
ENDCHAR
STARTCHAR 00FB
ENCODING 251
SWIDTH 611 0
DWIDTH 55 0
BBX 42 69 7 -1
BITMAP
00007F800000
0001FFC00000
0003FFE00000
0007FFF80000
000FFFFC0000
001FFFFE0000
007FFFFF0000
00FFF3FF8000
01FFE1FFC000
03FF80FFE000
07FF003FF000
0FFE001FF800
000000000000
000000000000
000000000000
000000000000
000000000000
000000000000
000000000000
000000000000
FFF00003FFC0
FFF00003FFC0
FFF00003FFC0
FFF00003FFC0
FFF00003FFC0
FFF00003FFC0
FFF00003FFC0
FFF00003FFC0
FFF00003FFC0
FFF00003FFC0
FFF00003FFC0
FFF00003FFC0
FFF00003FFC0
FFF00003FFC0
FFF00003FFC0
FFF00003FFC0
FFF00003FFC0
FFF00003FFC0
FFF00003FFC0
FFF00003FFC0
FFF00003FFC0
FFF00003FFC0
FFF00003FFC0
FFF00003FFC0
FFF00003FFC0
FFF00003FFC0
FFF00003FFC0
FFF00003FFC0
FFF00003FFC0
FFF00003FFC0
FFF00003FFC0
FFF00003FFC0
FFF00003FFC0
FFF80003FFC0
FFF80007FFC0
7FF80007FFC0
7FFC000FFFC0
7FFE003FFFC0
7FFF80FFFFC0
3FFFFFFFFFC0
3FFFFFFFFFC0
1FFFFFFFFFC0
1FFFFFFBFFC0
0FFFFFFBFFC0
07FFFFF1FFC0
03FFFFC1FFC0
01FFFF81FFC0
007FFE01FFC0
000FF8000000
ENDCHAR
STARTCHAR 00FC
ENCODING 252
SWIDTH 611 0
DWIDTH 55 0
BBX 42 67 7 -1
BITMAP
01F8000FC000
03FC001FE000
07FE003FF000
0FFF007FF800
0FFF007FF800
0FFF007FF800
0FFF007FF800
0FFF007FF800
07FE003FF000
03FC001FE000
01F8000FC000
000000000000
000000000000
000000000000
000000000000
000000000000
000000000000
000000000000
FFF00003FFC0
FFF00003FFC0
FFF00003FFC0
FFF00003FFC0
FFF00003FFC0
FFF00003FFC0
FFF00003FFC0
FFF00003FFC0
FFF00003FFC0
FFF00003FFC0
FFF00003FFC0
FFF00003FFC0
FFF00003FFC0
FFF00003FFC0
FFF00003FFC0
FFF00003FFC0
FFF00003FFC0
FFF00003FFC0
FFF00003FFC0
FFF00003FFC0
FFF00003FFC0
FFF00003FFC0
FFF00003FFC0
FFF00003FFC0
FFF00003FFC0
FFF00003FFC0
FFF00003FFC0
FFF00003FFC0
FFF00003FFC0
FFF00003FFC0
FFF00003FFC0
FFF00003FFC0
FFF00003FFC0
FFF80003FFC0
FFF80007FFC0
7FF80007FFC0
7FFC000FFFC0
7FFE003FFFC0
7FFF80FFFFC0
3FFFFFFFFFC0
3FFFFFFFFFC0
1FFFFFFFFFC0
1FFFFFFBFFC0
0FFFFFFBFFC0
07FFFFF1FFC0
03FFFFE1FFC0
01FFFF81FFC0
007FFE01FFC0
000FF8000000
ENDCHAR
STARTCHAR 00FD
ENCODING 253
SWIDTH 600 0
DWIDTH 54 0
BBX 52 85 2 -19
BITMAP
00000007FFC000
0000000FFF8000
0000000FFF0000
0000001FFE0000
0000003FFC0000
0000003FF80000
0000007FF00000
000000FFE00000
000000FFC00000
000001FF800000
000003FF000000
000003FE000000
00000000000000
00000000000000
00000000000000
00000000000000
00000000000000
FFFC000003FFF0
7FFC000003FFF0
7FFC000003FFE0
3FFE000007FFE0
3FFE000007FFC0
1FFF000007FFC0
1FFF00000FFF80
1FFF00000FFF80
0FFF80001FFF00
0FFF80001FFF00
07FFC0001FFF00
07FFC0003FFE00
03FFC0003FFE00
03FFE0007FFC00
03FFE0007FFC00
01FFE0007FF800
01FFF000FFF800
00FFF000FFF800
00FFF800FFF000
007FF801FFF000
007FF801FFE000
007FFC03FFE000
003FFC03FFC000
003FFE03FFC000
001FFE07FFC000
001FFE07FF8000
000FFF07FF8000
000FFF0FFF0000
000FFF0FFF0000
0007FF9FFE0000
0007FF9FFE0000
0003FF9FFC0000
0003FFFFFC0000
0001FFFFFC0000
0001FFFFF80000
0000FFFFF80000
0000FFFFF00000
0000FFFFF00000
00007FFFE00000
00007FFFE00000
00003FFFE00000
00003FFFC00000
00001FFFC00000
00001FFF800000
00001FFF800000
00000FFF000000
00000FFF000000
00000FFE000000
00001FFE000000
00001FFE000000
00003FFC000000
00003FFC000000
00007FF8000000
00007FF8000000
0000FFF0000000
0001FFF0000000
0003FFF0000000
0007FFE0000000
01FFFFE0000000
01FFFFC0000000
01FFFF80000000
01FFFF80000000
01FFFF00000000
03FFFE00000000
03FFFC00000000
03FFF000000000
03FFE000000000
01FF0000000000
ENDCHAR
STARTCHAR 00FE
ENCODING 254
SWIDTH 588 0
DWIDTH 53 0
BBX 42 87 6 -18
BITMAP
FFF000000000
FFF000000000
FFF000000000
FFF000000000
FFF000000000
FFF000000000
FFF000000000
FFF000000000
FFF000000000
FFF000000000
FFF000000000
FFF000000000
FFF000000000
FFF000000000
FFF000000000
FFF000000000
FFF000000000
FFF000000000
FFF000000000
FFF000000000
FFF00FF00000
FFF07FFE0000
FFF1FFFF8000
FFF3FFFFC000
FFF7FFFFF000
FFFFFFFFF800
FFFFFFFFF800
FFFFFFFFFC00
FFFFFFFFFE00
FFFFFFFFFE00
FFFF80FFFF00
FFFE003FFF00
FFFC001FFF00
FFF8001FFF80
FFF0000FFF80
FFF00007FF80
FFF00007FFC0
FFF00007FFC0
FFF00007FFC0
FFF00003FFC0
FFF00003FFC0
FFF00003FFC0
FFF00003FFC0
FFF00003FFC0
FFF00003FFC0
FFF00003FFC0
FFF00003FFC0
FFF00003FFC0
FFF00003FFC0
FFF00003FFC0
FFF00007FFC0
FFF00007FFC0
FFF00007FFC0
FFF00007FF80
FFF0000FFF80
FFF8001FFF80
FFFC001FFF00
FFFE003FFF00
FFFF80FFFF00
FFFFFFFFFE00
FFFFFFFFFE00
FFFFFFFFFC00
FFFFFFFFF800
FFFFFFFFF000
FFF7FFFFE000
FFF3FFFFC000
FFF1FFFF8000
FFF07FFE0000
FFF01FF00000
FFF000000000
FFF000000000
FFF000000000
FFF000000000
FFF000000000
FFF000000000
FFF000000000
FFF000000000
FFF000000000
FFF000000000
FFF000000000
FFF000000000
FFF000000000
FFF000000000
FFF000000000
FFF000000000
FFF000000000
FFF000000000
ENDCHAR
STARTCHAR 00FF
ENCODING 255
SWIDTH 611 0
DWIDTH 55 0
BBX 52 86 3 -19
BITMAP
000FC0007E0000
001FE000FF0000
003FF001FF8000
007FF803FFC000
007FF803FFC000
007FF803FFC000
007FF803FFC000
007FF803FFC000
003FF001FF8000
001FE000FF0000
000FC0007E0000
00000000000000
00000000000000
00000000000000
00000000000000
00000000000000
00000000000000
00000000000000
FFF8000003FFF0
FFFC000003FFE0
7FFC000007FFE0
7FFC000007FFC0
7FFE00000FFFC0
3FFE00000FFF80
3FFE00000FFF80
1FFF00001FFF00
1FFF00001FFF00
0FFF80003FFF00
0FFF80003FFE00
07FF80003FFE00
07FFC0007FFC00
07FFC0007FFC00
03FFE0007FF800
03FFE000FFF800
01FFE000FFF800
01FFF001FFF000
00FFF001FFF000
00FFF001FFE000
00FFF803FFE000
007FF803FFC000
007FFC03FFC000
003FFC07FF8000
003FFC07FF8000
001FFE0FFF8000
001FFE0FFF0000
000FFF0FFF0000
000FFF1FFE0000
000FFF1FFE0000
0007FF3FFC0000
0007FFBFFC0000
0003FFBFFC0000
0003FFFFF80000
0001FFFFF80000
0001FFFFF00000
0001FFFFF00000
0000FFFFE00000
0000FFFFE00000
00007FFFC00000
00007FFFC00000
00003FFFC00000
00003FFF800000
00001FFF800000
00001FFF000000
00001FFF000000
00000FFE000000
00000FFE000000
00001FFE000000
00003FFC000000
00003FFC000000
00007FF8000000
00007FF8000000
0000FFF0000000
0000FFF0000000
0001FFE0000000
0003FFE0000000
0007FFC0000000
01FFFFC0000000
03FFFF80000000
03FFFF80000000
03FFFF00000000
03FFFE00000000
03FFFC00000000
03FFF800000000
07FFF000000000
07FFC000000000
03FE0000000000
ENDCHAR
STARTCHAR 0100
ENCODING 256
SWIDTH 600 0
DWIDTH 54 0
BBX 53 79 1 0
BITMAP
001FFFFFFFE000
001FFFFFFFE000
001FFFFFFFE000
001FFFFFFFE000
001FFFFFFFE000
001FFFFFFFE000
001FFFFFFFE000
00000000000000
00000000000000
00000000000000
00000000000000
00000000000000
00000000000000
00000000000000
000007FF800000
000007FF800000
00000FFF800000
00000FFFC00000
00000FFFC00000
00001FFFC00000
00001FFFE00000
00001FFFE00000
00003FFFE00000
00003FFFE00000
00003FFFF00000
00007FFFF00000
00007FFFF00000
00007FFFF80000
00007FFFF80000
0000FFFFF80000
0000FFFFFC0000
0000FFFFFC0000
0001FFDFFC0000
0001FFCFFE0000
0001FFCFFE0000
0003FF8FFE0000
0003FF8FFF0000
0003FF87FF0000
0007FF87FF0000
0007FF07FF8000
0007FF03FF8000
000FFF03FF8000
000FFE03FFC000
000FFE03FFC000
001FFE01FFC000
001FFE01FFC000
001FFC01FFE000
003FFC00FFE000
003FFC00FFE000
003FF800FFF000
007FF800FFF000
007FF8007FF000
007FF8007FF800
00FFF0007FF800
00FFFFFFFFF800
00FFFFFFFFFC00
01FFFFFFFFFC00
01FFFFFFFFFC00
01FFFFFFFFFE00
03FFFFFFFFFE00
03FFFFFFFFFE00
03FFFFFFFFFF00
03FFFFFFFFFF00
07FFFFFFFFFF00
07FFFFFFFFFF80
07FF80000FFF80
0FFF800007FF80
0FFF000007FF80
0FFF000007FFC0
1FFF000007FFC0
1FFF000003FFC0
1FFE000003FFE0
3FFE000003FFE0
3FFE000001FFE0
3FFC000001FFF0
7FFC000001FFF0
7FFC000001FFF0
7FFC000000FFF8
FFF8000000FFF8
ENDCHAR
STARTCHAR 0101
ENCODING 257
SWIDTH 600 0
DWIDTH 54 0
BBX 43 65 5 -1
BITMAP
07FFFFFFF800
07FFFFFFF800
07FFFFFFF800
07FFFFFFF800
07FFFFFFF800
07FFFFFFF800
07FFFFFFF800
000000000000
000000000000
000000000000
000000000000
000000000000
000000000000
000000000000
000000000000
0001FFE00000
000FFFFC0000
007FFFFF8000
00FFFFFFC000
03FFFFFFF000
07FFFFFFF800
0FFFFFFFFC00
1FFFFFFFFC00
1FFFFFFFFE00
3FFF80FFFF00
3FFE003FFF00
3FFC001FFF00
7FFC000FFF80
7FF8000FFF80
7FF80007FF80
00000007FF80
00000007FF80
00000007FF80
00000007FF80
00000007FF80
0001FFFFFF80
001FFFFFFF80
00FFFFFFFF80
03FFFFFFFF80
07FFFFFFFF80
0FFFFFFFFF80
1FFFFFFFFF80
3FFFC007FF80
3FFF0007FF80
7FFC0007FF80
7FF80007FF80
FFF80007FF80
FFF00007FF80
FFF00007FF80
FFF00007FF80
FFF00007FF80
FFF8000FFF80
FFF8001FFF80
FFFC007FFF80
FFFF01FFFF80
7FFFFFFFFF80
7FFFFFFFFF80
3FFFFFFFFF80
3FFFFFFFFFC0
1FFFFFFFFFC0
0FFFFFF3FFC0
07FFFFE3FFC0
01FFFFC3FFE0
007FFF03FFE0
000FF8000000
ENDCHAR
STARTCHAR 0102
ENCODING 258
SWIDTH 600 0
DWIDTH 54 0
BBX 53 83 1 0
BITMAP
000FF8007FC000
000FF8007FC000
000FF8007FC000
000FFC00FFC000
0007FE01FF8000
0007FF03FF8000
0003FFFFFF0000
0003FFFFFF0000
0001FFFFFE0000
0000FFFFFC0000
00003FFFF00000
00001FFFE00000
000003FF000000
00000000000000
00000000000000
00000000000000
00000000000000
00000000000000
000007FF800000
000007FF800000
000007FF800000
00000FFFC00000
00000FFFC00000
00000FFFC00000
00001FFFE00000
00001FFFE00000
00001FFFE00000
00003FFFF00000
00003FFFF00000
00003FFFF00000
00007FFFF80000
00007FFFF80000
00007FFFF80000
0000FFFFF80000
0000FFFFFC0000
0000FFFFFC0000
0001FFCFFC0000
0001FFCFFE0000
0001FFCFFE0000
0003FFCFFE0000
0003FF87FF0000
0003FF87FF0000
0007FF87FF0000
0007FF07FF8000
0007FF03FF8000
000FFF03FF8000
000FFF03FFC000
000FFE03FFC000
001FFE01FFC000
001FFE01FFE000
001FFC01FFE000
003FFC00FFE000
003FFC00FFF000
003FFC00FFF000
003FF800FFF000
007FF8007FF800
007FF8007FF800
007FF8007FF800
00FFFFFFFFFC00
00FFFFFFFFFC00
00FFFFFFFFFC00
01FFFFFFFFFC00
01FFFFFFFFFE00
01FFFFFFFFFE00
03FFFFFFFFFE00
03FFFFFFFFFF00
03FFFFFFFFFF00
07FFFFFFFFFF00
07FFFFFFFFFF80
07FF80000FFF80
0FFF800007FF80
0FFF800007FFC0
0FFF000007FFC0
1FFF000003FFC0
1FFF000003FFE0
1FFE000003FFE0
3FFE000003FFE0
3FFE000001FFF0
3FFE000001FFF0
7FFC000001FFF0
7FFC000000FFF8
7FFC000000FFF8
FFF8000000FFF8
ENDCHAR
STARTCHAR 0103
ENCODING 259
SWIDTH 600 0
DWIDTH 54 0
BBX 43 69 5 -1
BITMAP
03FE001FF000
03FE001FF000
03FE001FF000
03FF003FF000
01FF807FE000
01FFC0FFE000
00FFFFFFC000
00FFFFFFC000
007FFFFF8000
003FFFFF0000
001FFFFE0000
0007FFF80000
0000FFC00000
000000000000
000000000000
000000000000
000000000000
000000000000
000000000000
0001FFE00000
000FFFFC0000
007FFFFF8000
00FFFFFFC000
03FFFFFFF000
07FFFFFFF800
0FFFFFFFFC00
1FFFFFFFFC00
1FFFFFFFFE00
3FFF80FFFF00
3FFE003FFF00
7FFC001FFF00
7FFC000FFF80
7FF8000FFF80
7FF80007FF80
00000007FF80
00000007FF80
00000007FF80
00000007FF80
00000007FF80
0001FFFFFF80
001FFFFFFF80
00FFFFFFFF80
03FFFFFFFF80
07FFFFFFFF80
0FFFFFFFFF80
1FFFFFFFFF80
3FFFC007FF80
3FFF0007FF80
7FFC0007FF80
7FF80007FF80
FFF80007FF80
FFF00007FF80
FFF00007FF80
FFF00007FF80
FFF00007FF80
FFF8000FFF80
FFF8001FFF80
FFFC007FFF80
FFFF01FFFF80
7FFFFFFFFF80
7FFFFFFFFF80
3FFFFFFFFF80
3FFFFFFFFFC0
1FFFFFFFFFC0
0FFFFFF3FFC0
07FFFFE3FFC0
01FFFFC3FFE0
007FFF03FFE0
000FF8000000
ENDCHAR
STARTCHAR 0104
ENCODING 260
SWIDTH 600 0
DWIDTH 54 0
BBX 52 84 2 -19
BITMAP
00000FFF000000
00000FFF000000
00000FFF000000
00001FFF800000
00001FFF800000
00001FFF800000
00003FFF800000
00003FFFC00000
00003FFFC00000
00007FFFC00000
00007FFFE00000
00007FFFE00000
0000FFFFE00000
0000FFFFF00000
0000FFFFF00000
0000FFFFF00000
0001FFFFF80000
0001FFFFF80000
0001FFFFF80000
0003FF9FFC0000
0003FF9FFC0000
0003FF9FFC0000
0007FF1FFE0000
0007FF0FFE0000
0007FF0FFE0000
000FFF0FFE0000
000FFE07FF0000
000FFE07FF0000
001FFE07FF0000
001FFC07FF8000
001FFC03FF8000
003FFC03FF8000
003FFC03FFC000
003FF803FFC000
007FF801FFC000
007FF801FFE000
007FF801FFE000
00FFF000FFE000
00FFF000FFF000
00FFF000FFF000
01FFE000FFF000
01FFFFFFFFF000
01FFFFFFFFF800
03FFFFFFFFF800
03FFFFFFFFF800
03FFFFFFFFFC00
07FFFFFFFFFC00
07FFFFFFFFFC00
07FFFFFFFFFE00
07FFFFFFFFFE00
0FFFFFFFFFFE00
0FFFFFFFFFFF00
0FFF00001FFF00
1FFF00000FFF00
1FFE00000FFF80
1FFE00000FFF80
3FFE000007FF80
3FFE000007FF80
3FFC000007FFC0
7FFC000007FFC0
7FFC000003FFC0
7FF8000003FFE0
FFF8000003FFE0
FFF8000003FFE0
FFF8000001FFF0
0000000003FF00
0000000007FC00
000000000FF800
000000001FF000
000000003FE000
000000003FC000
000000003FC000
000000007FC000
000000007FC000
000000007FC000
000000007FE080
000000007FFF80
000000007FFF80
000000003FFFC0
000000003FFFC0
000000001FFFC0
000000000FFFE0
0000000007FFC0
0000000001FE00
ENDCHAR
STARTCHAR 0105
ENCODING 261
SWIDTH 600 0
DWIDTH 54 0
BBX 43 68 5 -19
BITMAP
0001FFE00000
000FFFFC0000
007FFFFF8000
00FFFFFFC000
03FFFFFFF000
07FFFFFFF800
0FFFFFFFFC00
1FFFFFFFFC00
1FFFFFFFFE00
3FFF80FFFF00
3FFE003FFF00
3FFC001FFF00
7FFC000FFF80
7FF8000FFF80
7FF80007FF80
00000007FF80
00000007FF80
00000007FF80
00000007FF80
00000007FF80
0001FFFFFF80
001FFFFFFF80
00FFFFFFFF80
03FFFFFFFF80
07FFFFFFFF80
0FFFFFFFFF80
1FFFFFFFFF80
3FFFC007FF80
3FFF0007FF80
7FFC0007FF80
7FF80007FF80
FFF80007FF80
FFF00007FF80
FFF00007FF80
FFF00007FF80
FFF00007FF80
FFF8000FFF80
FFF8001FFF80
FFFC007FFF80
FFFF01FFFF80
7FFFFFFFFF80
7FFFFFFFFF80
3FFFFFFFFF80
3FFFFFFFFFC0
1FFFFFFFFFC0
0FFFFFF3FFC0
07FFFFE3FFC0
01FFFFC3FFE0
007FFF03FFE0
000FF807FF00
0000000FFC00
0000001FF800
0000001FF000
0000003FE000
0000003FC000
0000007FC000
0000007FC000
0000007FC000
0000007FC000
0000007FE080
0000007FFF80
0000007FFF80
0000003FFFC0
0000003FFFC0
0000001FFFC0
0000000FFFE0
00000007FFC0
00000001FE00
ENDCHAR
STARTCHAR 0106
ENCODING 262
SWIDTH 588 0
DWIDTH 53 0
BBX 46 82 3 -1
BITMAP
00000007FFC0
0000000FFF80
0000000FFF00
0000001FFE00
0000003FFC00
0000003FF800
0000007FF000
000000FFE000
000001FFC000
000001FF8000
000003FF0000
000007FE0000
000000000000
000000000000
000000000000
00003FF80000
0001FFFF8000
0007FFFFE000
001FFFFFF800
003FFFFFFC00
007FFFFFFE00
00FFFFFFFF00
01FFFFFFFF80
03FFFFFFFFC0
07FFFFFFFFE0
07FFF01FFFE0
0FFFC003FFF0
0FFF8001FFF0
1FFF0000FFF8
1FFE0000FFF8
3FFE00007FF8
3FFC00007FFC
3FFC00003FFC
7FF800003FFC
7FF800003FFC
7FF800003FFC
7FF800003FFC
FFF800000000
FFF800000000
FFF000000000
FFF000000000
FFF000000000
FFF000000000
FFF000000000
FFF000000000
FFF000000000
FFF000000000
FFF000000000
FFF000000000
FFF000000000
FFF000000000
FFF000000000
FFF000000000
FFF000000000
FFF000000000
FFF000000000
FFF000000000
FFF000000000
FFF000000000
FFF800000000
7FF800000000
7FF800003FFC
7FF800003FFC
7FF800003FFC
7FFC00003FFC
3FFC00007FFC
3FFC00007FFC
3FFE0000FFF8
1FFF0000FFF8
1FFF8001FFF0
0FFFC003FFF0
07FFF01FFFE0
07FFFFFFFFE0
03FFFFFFFFC0
01FFFFFFFF80
01FFFFFFFF80
00FFFFFFFE00
003FFFFFFC00
001FFFFFF800
0007FFFFE000
0001FFFF8000
00003FF80000
ENDCHAR
STARTCHAR 0107
ENCODING 263
SWIDTH 600 0
DWIDTH 54 0
BBX 43 67 5 -1
BITMAP
0000007FFE00
0000007FFC00
000000FFF800
000001FFF000
000003FFE000
000003FFC000
000007FF8000
00000FFF0000
00000FFE0000
00001FF80000
00003FF00000
00003FE00000
000000000000
000000000000
000000000000
000000000000
000000000000
00007FE00000
0003FFFE0000
000FFFFF8000
003FFFFFE000
00FFFFFFF800
01FFFFFFFC00
03FFFFFFFE00
07FFFFFFFE00
07FFFFFFFF00
0FFFFFFFFF80
1FFFE07FFF80
1FFF801FFFC0
3FFF0007FFC0
3FFE0007FFC0
3FFC0003FFE0
7FFC0003FFE0
7FF80001FFE0
7FF80001FFE0
FFF80001FFE0
FFF800000000
FFF000000000
FFF000000000
FFF000000000
FFF000000000
FFF000000000
FFF000000000
FFF000000000
FFF000000000
FFF000000000
FFF000000000
FFF800000000
FFF800000000
7FF800000000
7FF80001FFE0
7FFC0001FFE0
3FFC0003FFE0
3FFE0003FFE0
3FFF0007FFC0
1FFF800FFFC0
1FFFE03FFF80
0FFFFFFFFF80
07FFFFFFFF00
07FFFFFFFE00
03FFFFFFFE00
01FFFFFFFC00
00FFFFFFF000
003FFFFFE000
000FFFFF8000
0003FFFE0000
00007FF00000
ENDCHAR
STARTCHAR 0108
ENCODING 264
SWIDTH 588 0
DWIDTH 53 0
BBX 46 84 3 -1
BITMAP
000003FC0000
000007FF0000
00000FFF8000
00001FFFC000
00007FFFE000
0000FFFFF800
0001FFFFFC00
0003FF8FFE00
0007FF07FF00
001FFE03FF80
003FF801FFE0
003FF000FFE0
000000000000
000000000000
000000000000
000000000000
000000000000
00003FF80000
0001FFFF8000
0007FFFFE000
001FFFFFF800
003FFFFFFC00
007FFFFFFE00
00FFFFFFFF00
01FFFFFFFF80
03FFFFFFFFC0
07FFFFFFFFE0
07FFF01FFFE0
0FFFC003FFF0
0FFF8001FFF0
1FFF0000FFF8
1FFE0000FFF8
3FFE00007FF8
3FFC00007FFC
3FFC00003FFC
7FF800003FFC
7FF800003FFC
7FF800003FFC
7FF800003FFC
FFF800000000
FFF800000000
FFF000000000
FFF000000000
FFF000000000
FFF000000000
FFF000000000
FFF000000000
FFF000000000
FFF000000000
FFF000000000
FFF000000000
FFF000000000
FFF000000000
FFF000000000
FFF000000000
FFF000000000
FFF000000000
FFF000000000
FFF000000000
FFF000000000
FFF000000000
FFF800000000
7FF800000000
7FF800003FFC
7FF800003FFC
7FF800003FFC
7FFC00003FFC
3FFC00007FFC
3FFC00007FFC
3FFE0000FFF8
1FFF0000FFF8
1FFF8001FFF0
0FFFC003FFF0
07FFF01FFFE0
07FFFFFFFFE0
03FFFFFFFFC0
01FFFFFFFF80
01FFFFFFFF80
00FFFFFFFE00
003FFFFFFC00
001FFFFFF800
0007FFFFE000
0001FFFF8000
00003FF80000
ENDCHAR
STARTCHAR 0109
ENCODING 265
SWIDTH 600 0
DWIDTH 54 0
BBX 43 70 5 -1
BITMAP
00001FC00000
00003FE00000
00007FF00000
0001FFFC0000
0003FFFE0000
0007FFFF0000
000FFFFF8000
003FFDFFC000
007FF8FFF000
00FFE03FF800
01FFC01FFC00
03FF800FFE00
03FF0007FE00
000000000000
000000000000
000000000000
000000000000
000000000000
000000000000
000000000000
00007FE00000
0003FFFE0000
000FFFFF8000
003FFFFFE000
00FFFFFFF800
01FFFFFFFC00
03FFFFFFFE00
07FFFFFFFE00
07FFFFFFFF00
0FFFFFFFFF80
1FFFE07FFF80
1FFF801FFFC0
3FFF0007FFC0
3FFE0007FFC0
3FFC0003FFE0
7FFC0003FFE0
7FF80001FFE0
7FF80001FFE0
FFF80001FFE0
FFF800000000
FFF000000000
FFF000000000
FFF000000000
FFF000000000
FFF000000000
FFF000000000
FFF000000000
FFF000000000
FFF000000000
FFF000000000
FFF800000000
FFF800000000
7FF800000000
7FF80001FFE0
7FFC0001FFE0
3FFC0003FFE0
3FFE0003FFE0
3FFF0007FFC0
1FFF800FFFC0
1FFFE03FFF80
0FFFFFFFFF80
07FFFFFFFF00
07FFFFFFFE00
03FFFFFFFE00
01FFFFFFFC00
00FFFFFFF000
003FFFFFE000
000FFFFF8000
0003FFFE0000
00007FF00000
ENDCHAR
STARTCHAR 010A
ENCODING 266
SWIDTH 588 0
DWIDTH 53 0
BBX 46 84 3 -1
BITMAP
000000F80000
000003FE0000
000007FF0000
00000FFF0000
00000FFF8000
00000FFF8000
00000FFF8000
00000FFF8000
00000FFF8000
000007FF0000
000003FE0000
000001F80000
000000000000
000000000000
000000000000
000000000000
000000000000
00003FF80000
0001FFFF8000
0007FFFFE000
001FFFFFF800
003FFFFFFC00
007FFFFFFE00
00FFFFFFFF00
01FFFFFFFF80
03FFFFFFFFC0
07FFFFFFFFE0
07FFF01FFFE0
0FFFC003FFF0
0FFF8001FFF0
1FFF0000FFF8
1FFE0000FFF8
3FFE00007FF8
3FFC00007FFC
3FFC00003FFC
7FF800003FFC
7FF800003FFC
7FF800003FFC
7FF800003FFC
FFF800000000
FFF800000000
FFF000000000
FFF000000000
FFF000000000
FFF000000000
FFF000000000
FFF000000000
FFF000000000
FFF000000000
FFF000000000
FFF000000000
FFF000000000
FFF000000000
FFF000000000
FFF000000000
FFF000000000
FFF000000000
FFF000000000
FFF000000000
FFF000000000
FFF000000000
FFF800000000
7FF800000000
7FF800003FFC
7FF800003FFC
7FF800003FFC
7FFC00003FFC
3FFC00007FFC
3FFC00007FFC
3FFE0000FFF8
1FFF0000FFF8
1FFF8001FFF0
0FFFC003FFF0
07FFF01FFFE0
07FFFFFFFFE0
03FFFFFFFFC0
01FFFFFFFF80
01FFFFFFFF80
00FFFFFFFE00
003FFFFFFC00
001FFFFFF800
0007FFFFE000
0001FFFF8000
00003FF80000
ENDCHAR
STARTCHAR 010B
ENCODING 267
SWIDTH 600 0
DWIDTH 54 0
BBX 43 69 5 -1
BITMAP
00000F800000
00003FE00000
00007FF00000
0000FFF00000
0000FFF80000
0000FFF80000
0000FFF80000
0000FFF80000
0000FFF80000
00007FF00000
00003FE00000
00001F800000
000000000000
000000000000
000000000000
000000000000
000000000000
000000000000
000000000000
00007FE00000
0003FFFE0000
000FFFFF8000
003FFFFFE000
00FFFFFFF800
01FFFFFFFC00
03FFFFFFFE00
07FFFFFFFE00
07FFFFFFFF00
0FFFFFFFFF80
1FFFE07FFF80
1FFF801FFFC0
3FFF0007FFC0
3FFE0007FFC0
3FFC0003FFE0
7FFC0003FFE0
7FF80001FFE0
7FF80001FFE0
FFF80001FFE0
FFF800000000
FFF000000000
FFF000000000
FFF000000000
FFF000000000
FFF000000000
FFF000000000
FFF000000000
FFF000000000
FFF000000000
FFF000000000
FFF800000000
FFF800000000
7FF800000000
7FF80001FFE0
7FFC0001FFE0
3FFC0003FFE0
3FFE0003FFE0
3FFF0007FFC0
1FFF800FFFC0
1FFFE03FFF80
0FFFFFFFFF80
07FFFFFFFF00
07FFFFFFFE00
03FFFFFFFE00
01FFFFFFFC00
00FFFFFFF000
003FFFFFE000
000FFFFF8000
0003FFFE0000
00007FF00000
ENDCHAR
STARTCHAR 010C
ENCODING 268
SWIDTH 588 0
DWIDTH 53 0
BBX 46 84 3 -1
BITMAP
007FF000FFE0
003FFC01FFC0
001FFE03FF80
000FFF07FF00
0003FF9FFE00
0001FFFFFC00
0000FFFFF000
00007FFFE000
00003FFFC000
00001FFF8000
000007FF0000
000003FE0000
000000000000
000000000000
000000000000
000000000000
000000000000
00003FF80000
0001FFFF8000
0007FFFFE000
001FFFFFF800
003FFFFFFC00
007FFFFFFE00
00FFFFFFFF00
01FFFFFFFF80
03FFFFFFFFC0
07FFFFFFFFE0
07FFF01FFFE0
0FFFC003FFF0
0FFF8001FFF0
1FFF0000FFF8
1FFE0000FFF8
3FFE00007FF8
3FFC00007FFC
3FFC00003FFC
7FF800003FFC
7FF800003FFC
7FF800003FFC
7FF800003FFC
FFF800000000
FFF800000000
FFF000000000
FFF000000000
FFF000000000
FFF000000000
FFF000000000
FFF000000000
FFF000000000
FFF000000000
FFF000000000
FFF000000000
FFF000000000
FFF000000000
FFF000000000
FFF000000000
FFF000000000
FFF000000000
FFF000000000
FFF000000000
FFF000000000
FFF000000000
FFF800000000
7FF800000000
7FF800003FFC
7FF800003FFC
7FF800003FFC
7FFC00003FFC
3FFC00007FFC
3FFC00007FFC
3FFE0000FFF8
1FFF0000FFF8
1FFF8001FFF0
0FFFC003FFF0
07FFF01FFFE0
07FFFFFFFFE0
03FFFFFFFFC0
01FFFFFFFF80
01FFFFFFFF80
00FFFFFFFE00
003FFFFFFC00
001FFFFFF800
0007FFFFE000
0001FFFF8000
00003FF80000
ENDCHAR
STARTCHAR 010D
ENCODING 269
SWIDTH 600 0
DWIDTH 54 0
BBX 43 70 5 -1
BITMAP
03FF0007FF00
03FF800FFF00
01FFC01FFC00
00FFF03FF800
007FF8FFF000
003FFDFFE000
000FFFFFC000
0007FFFF0000
0003FFFE0000
0001FFFC0000
0000FFF80000
00007FF00000
00001FC00000
000000000000
000000000000
000000000000
000000000000
000000000000
000000000000
000000000000
00007FE00000
0003FFFE0000
000FFFFF8000
003FFFFFE000
00FFFFFFF800
01FFFFFFFC00
03FFFFFFFE00
07FFFFFFFE00
07FFFFFFFF00
0FFFFFFFFF80
1FFFE07FFF80
1FFF801FFFC0
3FFF0007FFC0
3FFE0007FFC0
3FFC0003FFE0
7FFC0003FFE0
7FF80001FFE0
7FF80001FFE0
FFF80001FFE0
FFF800000000
FFF000000000
FFF000000000
FFF000000000
FFF000000000
FFF000000000
FFF000000000
FFF000000000
FFF000000000
FFF000000000
FFF000000000
FFF800000000
FFF800000000
7FF800000000
7FF80001FFE0
7FFC0001FFE0
3FFC0003FFE0
3FFE0003FFE0
3FFF0007FFC0
1FFF800FFFC0
1FFFE03FFF80
0FFFFFFFFF80
07FFFFFFFF00
07FFFFFFFE00
03FFFFFFFE00
01FFFFFFFC00
00FFFFFFF000
003FFFFFE000
000FFFFF8000
0003FFFE0000
00007FF00000
ENDCHAR
STARTCHAR 010E
ENCODING 270
SWIDTH 588 0
DWIDTH 53 0
BBX 44 83 5 0
BITMAP
7FF000FFE000
7FF801FFE000
1FFC03FFC000
0FFE07FF0000
07FF0FFE0000
03FF9FFC0000
01FFFFF80000
00FFFFF00000
007FFFE00000
001FFF800000
000FFF000000
0007FE000000
0003FC000000
000000000000
000000000000
000000000000
000000000000
000000000000
FFFFFC000000
FFFFFFC00000
FFFFFFF00000
FFFFFFFC0000
FFFFFFFF0000
FFFFFFFF8000
FFFFFFFFE000
FFFFFFFFF000
FFFFFFFFF800
FFFFFFFFFC00
FFF00FFFFC00
FFF001FFFE00
FFF0007FFF00
FFF0003FFF00
FFF0001FFF80
FFF0000FFF80
FFF00007FFC0
FFF00007FFC0
FFF00003FFC0
FFF00003FFE0
FFF00001FFE0
FFF00001FFE0
FFF00001FFE0
FFF00001FFF0
FFF00000FFF0
FFF00000FFF0
FFF00000FFF0
FFF00000FFF0
FFF00000FFF0
FFF00000FFF0
FFF00000FFF0
FFF00000FFF0
FFF00000FFF0
FFF00000FFF0
FFF00000FFF0
FFF00000FFF0
FFF00000FFF0
FFF00000FFF0
FFF00000FFF0
FFF00000FFF0
FFF00000FFF0
FFF00001FFF0
FFF00001FFF0
FFF00001FFE0
FFF00001FFE0
FFF00003FFE0
FFF00003FFC0
FFF00007FFC0
FFF00007FFC0
FFF0000FFF80
FFF0001FFF80
FFF0003FFF00
FFF0007FFF00
FFF000FFFE00
FFF007FFFC00
FFFFFFFFFC00
FFFFFFFFF800
FFFFFFFFF000
FFFFFFFFE000
FFFFFFFFC000
FFFFFFFF0000
FFFFFFFE0000
FFFFFFF80000
FFFFFFC00000
FFFFFE000000
ENDCHAR
STARTCHAR 010F
ENCODING 271
SWIDTH 611 0
DWIDTH 55 0
BBX 60 71 2 -1
BITMAP
0000000000003FF0
0000000000003FF0
00000003FFC03FF0
00000003FFC03FF0
00000003FFC03FF0
00000003FFC03FF0
00000003FFC03FF0
00000003FFC03FF0
00000003FFC03FF0
00000003FFC03FF0
00000003FFC03FF0
00000003FFC03FF0
00000003FFC03FE0
00000003FFC07FE0
00000003FFC07FE0
00000003FFC07FE0
00000003FFC07FC0
00000003FFC0FFC0
00000003FFC0FF80
00000003FFC1FF80
00000003FFC1FF00
0003FE03FFC3FE00
001FFF83FFC3FE00
007FFFE3FFC0FC00
00FFFFF3FFC03800
01FFFFFBFFC01000
03FFFFFFFFC00000
07FFFFFFFFC00000
0FFFFFFFFFC00000
0FFFFFFFFFC00000
1FFFFFFFFFC00000
1FFFE07FFFC00000
3FFF801FFFC00000
3FFF000FFFC00000
3FFE0007FFC00000
7FFC0003FFC00000
7FFC0003FFC00000
7FF80003FFC00000
7FF80003FFC00000
FFF80003FFC00000
FFF80003FFC00000
FFF00003FFC00000
FFF00003FFC00000
FFF00003FFC00000
FFF00003FFC00000
FFF00003FFC00000
FFF00003FFC00000
FFF00003FFC00000
FFF00003FFC00000
FFF00003FFC00000
FFF00003FFC00000
FFF80003FFC00000
FFF80003FFC00000
7FF80003FFC00000
7FF80003FFC00000
7FFC0003FFC00000
7FFC0003FFC00000
3FFE0007FFC00000
3FFF000FFFC00000
3FFF801FFFC00000
1FFFC07FFFC00000
1FFFFFFFFFC00000
0FFFFFFFFFC00000
07FFFFFFFFC00000
07FFFFFFFFC00000
03FFFFFDFFC00000
01FFFFF9FFC00000
00FFFFF1FFC00000
003FFFE1FFC00000
001FFF81FFC00000
0003FE0000000000
ENDCHAR
STARTCHAR 0110
ENCODING 272
SWIDTH 588 0
DWIDTH 53 0
BBX 52 65 -2 0
BITMAP
00FFFFFC000000
00FFFFFFC00000
00FFFFFFF00000
00FFFFFFFC0000
00FFFFFFFF0000
00FFFFFFFF8000
00FFFFFFFFE000
00FFFFFFFFF000
00FFFFFFFFF800
00FFFFFFFFFC00
00FFF00FFFFC00
00FFF001FFFE00
00FFF0007FFF00
00FFF0003FFF00
00FFF0001FFF80
00FFF0000FFF80
00FFF00007FFC0
00FFF00007FFC0
00FFF00003FFC0
00FFF00003FFE0
00FFF00001FFE0
00FFF00001FFE0
00FFF00001FFF0
00FFF00001FFF0
00FFF00000FFF0
00FFF00000FFF0
00FFF00000FFF0
00FFF00000FFF0
FFFFFFFC00FFF0
FFFFFFFC00FFF0
FFFFFFFC00FFF0
FFFFFFFC00FFF0
FFFFFFFC00FFF0
FFFFFFFC00FFF0
FFFFFFFC00FFF0
FFFFFFFC00FFF0
00FFF00000FFF0
00FFF00000FFF0
00FFF00000FFF0
00FFF00000FFF0
00FFF00000FFF0
00FFF00001FFF0
00FFF00001FFF0
00FFF00001FFE0
00FFF00001FFE0
00FFF00003FFE0
00FFF00003FFC0
00FFF00007FFC0
00FFF00007FFC0
00FFF0000FFF80
00FFF0001FFF80
00FFF0003FFF00
00FFF0007FFF00
00FFF000FFFE00
00FFF007FFFC00
00FFFFFFFFFC00
00FFFFFFFFF800
00FFFFFFFFF000
00FFFFFFFFE000
00FFFFFFFFC000
00FFFFFFFF0000
00FFFFFFFE0000
00FFFFFFF80000
00FFFFFFC00000
00FFFFFE000000
ENDCHAR
STARTCHAR 0111
ENCODING 273
SWIDTH 600 0
DWIDTH 54 0
BBX 50 69 4 -1
BITMAP
00000003FFC000
00000003FFC000
00000003FFC000
00000003FFC000
00000003FFC000
00000003FFC000
00000FFFFFFFC0
00000FFFFFFFC0
00000FFFFFFFC0
00000FFFFFFFC0
00000FFFFFFFC0
00000FFFFFFFC0
00000FFFFFFFC0
00000FFFFFFFC0
00000003FFC000
00000003FFC000
00000003FFC000
00000003FFC000
00000003FFC000
0003FE03FFC000
001FFF83FFC000
007FFFE3FFC000
00FFFFF3FFC000
01FFFFFBFFC000
03FFFFFFFFC000
07FFFFFFFFC000
0FFFFFFFFFC000
0FFFFFFFFFC000
1FFFFFFFFFC000
1FFFE07FFFC000
3FFF801FFFC000
3FFF000FFFC000
3FFE0007FFC000
7FFC0003FFC000
7FFC0003FFC000
7FF80003FFC000
7FF80003FFC000
FFF80003FFC000
FFF80003FFC000
FFF00003FFC000
FFF00003FFC000
FFF00003FFC000
FFF00003FFC000
FFF00003FFC000
FFF00003FFC000
FFF00003FFC000
FFF00003FFC000
FFF00003FFC000
FFF00003FFC000
FFF80003FFC000
FFF80003FFC000
7FF80003FFC000
7FF80003FFC000
7FFC0003FFC000
7FFC0003FFC000
3FFE0007FFC000
3FFF000FFFC000
3FFF801FFFC000
1FFFC07FFFC000
1FFFFFFFFFC000
0FFFFFFFFFC000
07FFFFFFFFC000
07FFFFFFFFC000
03FFFFFDFFC000
01FFFFF9FFC000
00FFFFF1FFC000
003FFFE1FFC000
001FFF81FFC000
0003FE00000000
ENDCHAR
STARTCHAR 0112
ENCODING 274
SWIDTH 600 0
DWIDTH 54 0
BBX 43 79 6 0
BITMAP
03FFFFFFFC00
03FFFFFFFC00
03FFFFFFFC00
03FFFFFFFC00
03FFFFFFFC00
03FFFFFFFC00
03FFFFFFFC00
000000000000
000000000000
000000000000
000000000000
000000000000
000000000000
000000000000
FFFFFFFFFFE0
FFFFFFFFFFE0
FFFFFFFFFFE0
FFFFFFFFFFE0
FFFFFFFFFFE0
FFFFFFFFFFE0
FFFFFFFFFFE0
FFFFFFFFFFE0
FFFFFFFFFFE0
FFFFFFFFFFE0
FFF000000000
FFF000000000
FFF000000000
FFF000000000
FFF000000000
FFF000000000
FFF000000000
FFF000000000
FFF000000000
FFF000000000
FFF000000000
FFF000000000
FFF000000000
FFF000000000
FFF000000000
FFF000000000
FFF000000000
FFFFFFFFFE00
FFFFFFFFFE00
FFFFFFFFFE00
FFFFFFFFFE00
FFFFFFFFFE00
FFFFFFFFFE00
FFFFFFFFFE00
FFFFFFFFFE00
FFFFFFFFFE00
FFFFFFFFFE00
FFF000000000
FFF000000000
FFF000000000
FFF000000000
FFF000000000
FFF000000000
FFF000000000
FFF000000000
FFF000000000
FFF000000000
FFF000000000
FFF000000000
FFF000000000
FFF000000000
FFF000000000
FFF000000000
FFF000000000
FFF000000000
FFFFFFFFFFE0
FFFFFFFFFFE0
FFFFFFFFFFE0
FFFFFFFFFFE0
FFFFFFFFFFE0
FFFFFFFFFFE0
FFFFFFFFFFE0
FFFFFFFFFFE0
FFFFFFFFFFE0
FFFFFFFFFFE0
ENDCHAR
STARTCHAR 0113
ENCODING 275
SWIDTH 600 0
DWIDTH 54 0
BBX 45 66 4 -1
BITMAP
03FFFFFFFC00
03FFFFFFFC00
03FFFFFFFC00
03FFFFFFFC00
03FFFFFFFC00
03FFFFFFFC00
03FFFFFFFC00
000000000000
000000000000
000000000000
000000000000
000000000000
000000000000
000000000000
000000000000
000000000000
00001FF80000
0001FFFF0000
0007FFFFC000
001FFFFFF000
003FFFFFF800
007FFFFFFE00
01FFFFFFFF00
01FFFFFFFF00
03FFFFFFFF80
07FFFFFFFFC0
0FFFF01FFFC0
0FFFC007FFE0
1FFF8003FFE0
1FFF0001FFF0
3FFE0000FFF0
3FFE0000FFF0
3FFC00007FF0
7FFC00007FF8
7FF800007FF8
7FF800007FF8
7FFFFFFFFFF8
7FFFFFFFFFF8
7FFFFFFFFFF8
7FFFFFFFFFF8
FFFFFFFFFFF8
FFFFFFFFFFF8
FFFFFFFFFFF8
FFFFFFFFFFF8
7FFFFFFFFFF8
7FF800000000
7FF800000000
7FF800000000
7FFC00000000
7FFC00000000
3FFE00000000
3FFF00000600
3FFF80000F00
1FFFC0001F80
0FFFE0007FC0
0FFFFC03FFE0
07FFFFFFFFF0
03FFFFFFFFF0
01FFFFFFFFE0
01FFFFFFFFC0
007FFFFFFF80
003FFFFFFF00
001FFFFFFC00
0007FFFFF000
0000FFFFC000
00001FFE0000
ENDCHAR
STARTCHAR 0114
ENCODING 276
SWIDTH 600 0
DWIDTH 54 0
BBX 43 82 6 0
BITMAP
01FF000FF800
01FF000FF800
01FF000FF800
01FF801FF800
00FFC03FF000
00FFE07FF000
007FFFFFE000
007FFFFFE000
003FFFFFC000
001FFFFF8000
000FFFFE0000
0003FFFC0000
00007FE00000
000000000000
000000000000
000000000000
000000000000
FFFFFFFFFFE0
FFFFFFFFFFE0
FFFFFFFFFFE0
FFFFFFFFFFE0
FFFFFFFFFFE0
FFFFFFFFFFE0
FFFFFFFFFFE0
FFFFFFFFFFE0
FFFFFFFFFFE0
FFFFFFFFFFE0
FFF000000000
FFF000000000
FFF000000000
FFF000000000
FFF000000000
FFF000000000
FFF000000000
FFF000000000
FFF000000000
FFF000000000
FFF000000000
FFF000000000
FFF000000000
FFF000000000
FFF000000000
FFF000000000
FFF000000000
FFFFFFFFFE00
FFFFFFFFFE00
FFFFFFFFFE00
FFFFFFFFFE00
FFFFFFFFFE00
FFFFFFFFFE00
FFFFFFFFFE00
FFFFFFFFFE00
FFFFFFFFFE00
FFFFFFFFFE00
FFF000000000
FFF000000000
FFF000000000
FFF000000000
FFF000000000
FFF000000000
FFF000000000
FFF000000000
FFF000000000
FFF000000000
FFF000000000
FFF000000000
FFF000000000
FFF000000000
FFF000000000
FFF000000000
FFF000000000
FFF000000000
FFFFFFFFFFE0
FFFFFFFFFFE0
FFFFFFFFFFE0
FFFFFFFFFFE0
FFFFFFFFFFE0
FFFFFFFFFFE0
FFFFFFFFFFE0
FFFFFFFFFFE0
FFFFFFFFFFE0
FFFFFFFFFFE0
ENDCHAR
STARTCHAR 0115
ENCODING 277
SWIDTH 600 0
DWIDTH 54 0
BBX 45 69 4 -1
BITMAP
01FF000FF800
01FF000FF800
01FF000FF800
01FF801FF800
00FFC03FF000
00FFE07FF000
007FFFFFE000
007FFFFFE000
003FFFFFC000
001FFFFF8000
000FFFFF0000
0003FFFC0000
00007FE00000
000000000000
000000000000
000000000000
000000000000
000000000000
000000000000
00001FF80000
0001FFFF0000
0007FFFFC000
001FFFFFF000
003FFFFFF800
007FFFFFFE00
01FFFFFFFF00
01FFFFFFFF00
03FFFFFFFF80
07FFFFFFFFC0
0FFFF01FFFC0
0FFFC007FFE0
1FFF8003FFE0
1FFF0001FFF0
3FFE0000FFF0
3FFE0000FFF0
3FFC00007FF0
7FFC00007FF8
7FFC00007FF8
7FF800007FF8
7FFFFFFFFFF8
7FFFFFFFFFF8
7FFFFFFFFFF8
7FFFFFFFFFF8
FFFFFFFFFFF8
FFFFFFFFFFF8
FFFFFFFFFFF8
FFFFFFFFFFF8
7FFFFFFFFFF8
7FF800000000
7FF800000000
7FFC00000000
7FFC00000000
7FFC00000000
3FFE00000000
3FFF00000600
3FFF80000F00
1FFFC0001F80
0FFFE0007FC0
0FFFFC03FFE0
07FFFFFFFFF0
03FFFFFFFFF0
01FFFFFFFFE0
01FFFFFFFFC0
007FFFFFFF80
003FFFFFFF00
000FFFFFFC00
0007FFFFF000
0000FFFFC000
00001FFE0000
ENDCHAR
STARTCHAR 0116
ENCODING 278
SWIDTH 600 0
DWIDTH 54 0
BBX 43 82 6 0
BITMAP
00001F000000
00007FC00000
0000FFE00000
0001FFE00000
0001FFF00000
0001FFF00000
0001FFF00000
0001FFF00000
0001FFF00000
0000FFE00000
00007FC00000
00003F000000
000000000000
000000000000
000000000000
000000000000
000000000000
FFFFFFFFFFE0
FFFFFFFFFFE0
FFFFFFFFFFE0
FFFFFFFFFFE0
FFFFFFFFFFE0
FFFFFFFFFFE0
FFFFFFFFFFE0
FFFFFFFFFFE0
FFFFFFFFFFE0
FFFFFFFFFFE0
FFF000000000
FFF000000000
FFF000000000
FFF000000000
FFF000000000
FFF000000000
FFF000000000
FFF000000000
FFF000000000
FFF000000000
FFF000000000
FFF000000000
FFF000000000
FFF000000000
FFF000000000
FFF000000000
FFF000000000
FFFFFFFFFE00
FFFFFFFFFE00
FFFFFFFFFE00
FFFFFFFFFE00
FFFFFFFFFE00
FFFFFFFFFE00
FFFFFFFFFE00
FFFFFFFFFE00
FFFFFFFFFE00
FFFFFFFFFE00
FFF000000000
FFF000000000
FFF000000000
FFF000000000
FFF000000000
FFF000000000
FFF000000000
FFF000000000
FFF000000000
FFF000000000
FFF000000000
FFF000000000
FFF000000000
FFF000000000
FFF000000000
FFF000000000
FFF000000000
FFF000000000
FFFFFFFFFFE0
FFFFFFFFFFE0
FFFFFFFFFFE0
FFFFFFFFFFE0
FFFFFFFFFFE0
FFFFFFFFFFE0
FFFFFFFFFFE0
FFFFFFFFFFE0
FFFFFFFFFFE0
FFFFFFFFFFE0
ENDCHAR
STARTCHAR 0117
ENCODING 279
SWIDTH 600 0
DWIDTH 54 0
BBX 45 69 5 -1
BITMAP
00001F000000
00007FC00000
0000FFE00000
0001FFE00000
0001FFF00000
0001FFF00000
0001FFF00000
0001FFF00000
0001FFF00000
0000FFE00000
00007FC00000
00003F000000
000000000000
000000000000
000000000000
000000000000
000000000000
000000000000
000000000000
00003FF00000
0001FFFF0000
000FFFFFC000
001FFFFFF000
007FFFFFF800
00FFFFFFFC00
01FFFFFFFE00
03FFFFFFFF00
07FFFFFFFF80
0FFFFFFFFF80
0FFFF03FFFC0
1FFFC007FFC0
1FFF0003FFE0
3FFF0001FFE0
3FFE0000FFF0
7FFC0000FFF0
7FFC0000FFF0
7FF800007FF0
7FF800007FF8
FFF800007FF8
FFFFFFFFFFF8
FFFFFFFFFFF8
FFFFFFFFFFF8
FFFFFFFFFFF8
FFFFFFFFFFF8
FFFFFFFFFFF8
FFFFFFFFFFF8
FFFFFFFFFFF8
FFFFFFFFFFF8
FFF800000000
FFF800000000
FFF800000000
7FFC00000000
7FFC00000000
7FFE00000000
3FFE00000600
3FFF00000F00
3FFF80003F80
1FFFE0007FC0
0FFFF803FFC0
0FFFFFFFFFE0
07FFFFFFFFF0
03FFFFFFFFE0
01FFFFFFFFC0
00FFFFFFFF80
003FFFFFFF00
001FFFFFFC00
0007FFFFF000
0001FFFFC000
00001FFC0000
ENDCHAR
STARTCHAR 0118
ENCODING 280
SWIDTH 600 0
DWIDTH 54 0
BBX 43 84 6 -19
BITMAP
FFFFFFFFFFE0
FFFFFFFFFFE0
FFFFFFFFFFE0
FFFFFFFFFFE0
FFFFFFFFFFE0
FFFFFFFFFFE0
FFFFFFFFFFE0
FFFFFFFFFFE0
FFFFFFFFFFE0
FFFFFFFFFFE0
FFF000000000
FFF000000000
FFF000000000
FFF000000000
FFF000000000
FFF000000000
FFF000000000
FFF000000000
FFF000000000
FFF000000000
FFF000000000
FFF000000000
FFF000000000
FFF000000000
FFF000000000
FFF000000000
FFF000000000
FFFFFFFFFE00
FFFFFFFFFE00
FFFFFFFFFE00
FFFFFFFFFE00
FFFFFFFFFE00
FFFFFFFFFE00
FFFFFFFFFE00
FFFFFFFFFE00
FFFFFFFFFE00
FFFFFFFFFE00
FFF000000000
FFF000000000
FFF000000000
FFF000000000
FFF000000000
FFF000000000
FFF000000000
FFF000000000
FFF000000000
FFF000000000
FFF000000000
FFF000000000
FFF000000000
FFF000000000
FFF000000000
FFF000000000
FFF000000000
FFF000000000
FFFFFFFFFFE0
FFFFFFFFFFE0
FFFFFFFFFFE0
FFFFFFFFFFE0
FFFFFFFFFFE0
FFFFFFFFFFE0
FFFFFFFFFFE0
FFFFFFFFFFE0
FFFFFFFFFFE0
FFFFFFFFFFE0
0000003FF000
0000007FE000
0000007F8000
000000FF0000
000001FF0000
000001FE0000
000003FE0000
000003FE0000
000003FE0000
000003FE0000
000003FF0800
000003FFFC00
000003FFFC00
000001FFFC00
000001FFFE00
000000FFFE00
0000007FFE00
0000003FFC00
0000000FF000
ENDCHAR
STARTCHAR 0119
ENCODING 281
SWIDTH 600 0
DWIDTH 54 0
BBX 45 67 4 -18
BITMAP
00001FF80000
0001FFFF0000
0007FFFFC000
001FFFFFF000
003FFFFFF800
00FFFFFFFE00
01FFFFFFFF00
03FFFFFFFF00
03FFFFFFFF80
07FFFFFFFFC0
0FFFF01FFFC0
0FFFC007FFE0
1FFF8003FFE0
1FFF0001FFF0
3FFE0000FFF0
3FFE0000FFF0
3FFC00007FF0
7FFC00007FF8
7FFC00007FF8
7FF800007FF8
7FFFFFFFFFF8
7FFFFFFFFFF8
7FFFFFFFFFF8
7FFFFFFFFFF8
FFFFFFFFFFF8
FFFFFFFFFFF8
FFFFFFFFFFF8
FFFFFFFFFFF8
7FFFFFFFFFF8
7FF800000000
7FF800000000
7FFC00000000
7FFC00000000
7FFC00000000
3FFE00000000
3FFF00000600
1FFF80000F00
1FFFC0001F80
0FFFE0007FC0
0FFFFC03FFE0
07FFFFFFFFF0
03FFFFFFFFF0
01FFFFFFFFE0
00FFFFFFFFC0
007FFFFFFF80
003FFFFFFF00
000FFFFFFC00
0007FFFFF000
0000FFFFC000
00000FFF0000
000003FE0000
000007FC0000
00000FF80000
00000FF00000
00001FF00000
00001FF00000
00001FF00000
00001FF00000
00001FF82000
00001FFFE000
00001FFFE000
00000FFFF000
00000FFFF000
000007FFF000
000003FFF800
000001FFF000
0000007F8000
ENDCHAR
STARTCHAR 011A
ENCODING 282
SWIDTH 600 0
DWIDTH 54 0
BBX 43 83 6 0
BITMAP
07FE000FFC00
07FF001FFC00
03FF803FF800
01FFE07FF000
00FFF1FFE000
003FFBFFC000
001FFFFF0000
000FFFFE0000
0007FFFC0000
0003FFF80000
0001FFF00000
00007FE00000
00003F800000
000000000000
000000000000
000000000000
000000000000
000000000000
FFFFFFFFFFE0
FFFFFFFFFFE0
FFFFFFFFFFE0
FFFFFFFFFFE0
FFFFFFFFFFE0
FFFFFFFFFFE0
FFFFFFFFFFE0
FFFFFFFFFFE0
FFFFFFFFFFE0
FFFFFFFFFFE0
FFF000000000
FFF000000000
FFF000000000
FFF000000000
FFF000000000
FFF000000000
FFF000000000
FFF000000000
FFF000000000
FFF000000000
FFF000000000
FFF000000000
FFF000000000
FFF000000000
FFF000000000
FFF000000000
FFF000000000
FFFFFFFFFE00
FFFFFFFFFE00
FFFFFFFFFE00
FFFFFFFFFE00
FFFFFFFFFE00
FFFFFFFFFE00
FFFFFFFFFE00
FFFFFFFFFE00
FFFFFFFFFE00
FFFFFFFFFE00
FFF000000000
FFF000000000
FFF000000000
FFF000000000
FFF000000000
FFF000000000
FFF000000000
FFF000000000
FFF000000000
FFF000000000
FFF000000000
FFF000000000
FFF000000000
FFF000000000
FFF000000000
FFF000000000
FFF000000000
FFF000000000
FFFFFFFFFFE0
FFFFFFFFFFE0
FFFFFFFFFFE0
FFFFFFFFFFE0
FFFFFFFFFFE0
FFFFFFFFFFE0
FFFFFFFFFFE0
FFFFFFFFFFE0
FFFFFFFFFFE0
FFFFFFFFFFE0
ENDCHAR
STARTCHAR 011B
ENCODING 283
SWIDTH 600 0
DWIDTH 54 0
BBX 45 70 4 -1
BITMAP
07FF000FFE00
07FF801FFE00
03FFC03FF800
00FFE07FF000
007FF0FFE000
003FF9FFC000
001FFFFF8000
000FFFFF0000
0007FFFC0000
0001FFF80000
0000FFF00000
00007FE00000
00003FC00000
000000000000
000000000000
000000000000
000000000000
000000000000
000000000000
000000000000
00001FF80000
0001FFFF0000
0007FFFFC000
001FFFFFF000
003FFFFFF800
007FFFFFFE00
01FFFFFFFF00
01FFFFFFFF00
03FFFFFFFF80
07FFFFFFFFC0
0FFFF01FFFC0
0FFFC007FFE0
1FFF8003FFE0
1FFF0001FFF0
3FFE0000FFF0
3FFE0000FFF0
3FFC00007FF0
7FFC00007FF8
7FF800007FF8
7FF800007FF8
7FFFFFFFFFF8
7FFFFFFFFFF8
7FFFFFFFFFF8
7FFFFFFFFFF8
FFFFFFFFFFF8
FFFFFFFFFFF8
FFFFFFFFFFF8
FFFFFFFFFFF8
7FFFFFFFFFF8
7FF800000000
7FF800000000
7FF800000000
7FFC00000000
7FFC00000000
3FFE00000000
3FFF00000600
3FFF80000F00
1FFFC0001F80
0FFFE0007FC0
0FFFFC03FFE0
07FFFFFFFFF0
03FFFFFFFFF0
01FFFFFFFFE0
01FFFFFFFFC0
007FFFFFFF80
003FFFFFFF00
000FFFFFFC00
0007FFFFF000
0000FFFFC000
00001FFE0000
ENDCHAR
STARTCHAR 011C
ENCODING 284
SWIDTH 600 0
DWIDTH 54 0
BBX 46 84 4 -1
BITMAP
000007F80000
00000FFC0000
00001FFF0000
00007FFF8000
0000FFFFC000
0001FFFFE000
0003FFFFF000
0007FF3FFC00
000FFE1FFE00
001FFC0FFF00
003FF003FF80
007FE001FFC0
007FC000FFC0
000000000000
000000000000
000000000000
000000000000
000000000000
00003FF80000
0001FFFF8000
0007FFFFE000
001FFFFFF800
003FFFFFFE00
007FFFFFFF00
00FFFFFFFF80
01FFFFFFFFC0
03FFFFFFFFC0
07FFFFFFFFE0
07FFF80FFFE0
0FFFE003FFF0
1FFF8001FFF0
1FFF8000FFF8
1FFF00007FF8
3FFE00007FF8
3FFE00007FFC
7FFC00003FFC
7FFC00003FFC
7FF800003FFC
7FF800000000
7FF800000000
FFF800000000
FFF800000000
FFF000000000
FFF000000000
FFF000000000
FFF000000000
FFF000000000
FFF000000000
FFF000000000
FFF000000000
FFF001FFFFFC
FFF001FFFFFC
FFF001FFFFFC
FFF001FFFFFC
FFF001FFFFFC
FFF001FFFFFC
FFF001FFFFFC
FFF001FFFFFC
FFF001FFFFFC
FFF000003FFC
FFF000003FFC
FFF800003FFC
7FF800003FFC
7FF800003FFC
7FF800003FFC
7FFC00003FFC
7FFC00003FFC
3FFC00003FFC
3FFE00003FFC
3FFE00003FFC
1FFF00003FFC
1FFF80007FFC
0FFFC000FFFC
0FFFF807FFFC
07FFFFFFFFFC
03FFFFFFFFFC
01FFFFFFFFF8
01FFFFFFFFF0
00FFFFFFFFE0
003FFFFFFF80
001FFFFFFF00
0007FFFFF800
0001FFFFC000
00001FFC0000
ENDCHAR
STARTCHAR 011D
ENCODING 285
SWIDTH 600 0
DWIDTH 54 0
BBX 43 88 5 -19
BITMAP
00003F800000
00007FC00000
0001FFE00000
0003FFF80000
0007FFFC0000
000FFFFE0000
001FFFFF0000
007FFBFF8000
00FFE1FFE000
01FFC07FF000
03FF803FF800
07FF001FFC00
07FE000FFC00
000000000000
000000000000
000000000000
000000000000
000000000000
000000000000
000000000000
0001FF000000
000FFFE0FFE0
003FFFF0FFE0
007FFFFCFFE0
01FFFFFEFFE0
03FFFFFFFFE0
07FFFFFFFFE0
07FFFFFFFFE0
0FFFFFFFFFE0
1FFFFFFFFFE0
1FFFE03FFFE0
3FFF800FFFE0
3FFF0007FFE0
3FFE0003FFE0
7FFE0001FFE0
7FFC0001FFE0
7FFC0001FFE0
7FF80001FFE0
FFF80001FFE0
FFF80001FFE0
FFF80001FFE0
FFF00001FFE0
FFF00001FFE0
FFF00001FFE0
FFF00001FFE0
FFF00001FFE0
FFF00001FFE0
FFF00001FFE0
FFF00001FFE0
FFF00001FFE0
FFF80001FFE0
FFF80001FFE0
7FF80001FFE0
7FF80001FFE0
7FFC0001FFE0
7FFC0001FFE0
3FFE0003FFE0
3FFF0007FFE0
1FFF800FFFE0
1FFFE03FFFE0
0FFFFFFFFFE0
0FFFFFFFFFE0
07FFFFFFFFE0
03FFFFFFFFE0
03FFFFFFFFE0
01FFFFFDFFE0
007FFFF9FFE0
003FFFF1FFE0
000FFFC1FFE0
0001FE01FFE0
00000001FFE0
00000003FFE0
00000003FFE0
00800003FFC0
01C00007FFC0
03E0000FFFC0
07F8001FFF80
07FF00FFFF80
0FFFFFFFFF00
1FFFFFFFFF00
1FFFFFFFFE00
0FFFFFFFFC00
07FFFFFFF800
03FFFFFFF000
00FFFFFFC000
003FFFFF8000
000FFFFC0000
0000FFC00000
ENDCHAR
STARTCHAR 011E
ENCODING 286
SWIDTH 600 0
DWIDTH 54 0
BBX 46 83 4 -1
BITMAP
003FE001FF00
003FE001FF00
003FE001FF00
003FF003FF00
001FF807FE00
001FFC0FFE00
000FFFFFFC00
000FFFFFFC00
0007FFFFF800
0003FFFFF000
0000FFFFC000
00007FFF8000
00000FFC0000
000000000000
000000000000
000000000000
000000000000
00003FF80000
0001FFFF8000
0007FFFFE000
001FFFFFF800
003FFFFFFE00
007FFFFFFF00
00FFFFFFFF80
01FFFFFFFFC0
03FFFFFFFFC0
07FFFFFFFFE0
07FFF80FFFE0
0FFFE003FFF0
1FFF8001FFF0
1FFF0000FFF8
1FFF00007FF8
3FFE00007FF8
3FFE00007FF8
7FFC00003FFC
7FFC00003FFC
7FF800003FFC
7FF800000000
7FF800000000
FFF800000000
FFF800000000
FFF000000000
FFF000000000
FFF000000000
FFF000000000
FFF000000000
FFF000000000
FFF000000000
FFF000000000
FFF001FFFFFC
FFF001FFFFFC
FFF001FFFFFC
FFF001FFFFFC
FFF001FFFFFC
FFF001FFFFFC
FFF001FFFFFC
FFF001FFFFFC
FFF001FFFFFC
FFF000003FFC
FFF000003FFC
FFF800003FFC
7FF800003FFC
7FF800003FFC
7FF800003FFC
7FFC00003FFC
7FFC00003FFC
3FFC00003FFC
3FFE00003FFC
3FFE00003FFC
1FFF00003FFC
1FFF80007FFC
0FFFC000FFFC
0FFFF807FFFC
07FFFFFFFFFC
03FFFFFFFFFC
01FFFFFFFFF8
01FFFFFFFFF0
00FFFFFFFFE0
003FFFFFFF80
001FFFFFFF00
0007FFFFF800
0001FFFFC000
00001FFC0000
ENDCHAR
STARTCHAR 011F
ENCODING 287
SWIDTH 600 0
DWIDTH 54 0
BBX 43 87 5 -19
BITMAP
03FE001FF000
03FE001FF000
03FE001FF000
03FF003FF000
01FF807FE000
01FFC0FFE000
00FFFFFFC000
00FFFFFFC000
007FFFFF8000
003FFFFF0000
001FFFFC0000
0007FFF80000
0000FFC00000
000000000000
000000000000
000000000000
000000000000
000000000000
000000000000
0001FF000000
000FFFE0FFE0
003FFFF0FFE0
00FFFFFCFFE0
01FFFFFEFFE0
03FFFFFFFFE0
07FFFFFFFFE0
07FFFFFFFFE0
0FFFFFFFFFE0
1FFFFFFFFFE0
1FFFE03FFFE0
3FFF800FFFE0
3FFF0007FFE0
3FFE0003FFE0
7FFE0001FFE0
7FFC0001FFE0
7FFC0001FFE0
7FF80001FFE0
FFF80001FFE0
FFF80001FFE0
FFF80001FFE0
FFF00001FFE0
FFF00001FFE0
FFF00001FFE0
FFF00001FFE0
FFF00001FFE0
FFF00001FFE0
FFF00001FFE0
FFF00001FFE0
FFF00001FFE0
FFF80001FFE0
FFF80001FFE0
7FF80001FFE0
7FF80001FFE0
7FFC0001FFE0
7FFC0001FFE0
3FFE0003FFE0
3FFF0007FFE0
1FFF800FFFE0
1FFFE03FFFE0
0FFFFFFFFFE0
0FFFFFFFFFE0
07FFFFFFFFE0
03FFFFFFFFE0
03FFFFFFFFE0
01FFFFFDFFE0
007FFFF9FFE0
003FFFF1FFE0
000FFFC1FFE0
0001FE01FFE0
00000001FFE0
00000003FFE0
00000003FFE0
01800003FFC0
01C00007FFC0
03E0000FFFC0
07F8003FFF80
07FF00FFFF80
0FFFFFFFFF00
1FFFFFFFFF00
1FFFFFFFFE00
0FFFFFFFFC00
07FFFFFFF800
03FFFFFFF000
00FFFFFFC000
003FFFFF8000
000FFFFC0000
0001FFC00000
ENDCHAR
STARTCHAR 0120
ENCODING 288
SWIDTH 600 0
DWIDTH 54 0
BBX 46 84 4 -1
BITMAP
000003E00000
00000FF80000
00001FFC0000
00003FFC0000
00003FFE0000
00003FFE0000
00003FFE0000
00003FFE0000
00003FFE0000
00001FFC0000
00000FF80000
000007E00000
000000000000
000000000000
000000000000
000000000000
000000000000
000000000000
00003FF80000
0001FFFF8000
0007FFFFE000
001FFFFFF800
003FFFFFFE00
007FFFFFFF00
00FFFFFFFF80
01FFFFFFFFC0
03FFFFFFFFC0
07FFFFFFFFE0
07FFF80FFFE0
0FFFE003FFF0
1FFF8001FFF0
1FFF0000FFF8
1FFF00007FF8
3FFE00007FF8
3FFE00007FFC
7FFC00003FFC
7FFC00003FFC
7FF800003FFC
7FF800000000
7FF800000000
FFF800000000
FFF800000000
FFF000000000
FFF000000000
FFF000000000
FFF000000000
FFF000000000
FFF000000000
FFF000000000
FFF000000000
FFF001FFFFFC
FFF001FFFFFC
FFF001FFFFFC
FFF001FFFFFC
FFF001FFFFFC
FFF001FFFFFC
FFF001FFFFFC
FFF001FFFFFC
FFF001FFFFFC
FFF000003FFC
FFF000003FFC
FFF800003FFC
7FF800003FFC
7FF800003FFC
7FF800003FFC
7FFC00003FFC
7FFC00003FFC
3FFC00003FFC
3FFE00003FFC
3FFE00003FFC
1FFF00003FFC
1FFF80007FFC
0FFFC000FFFC
0FFFF807FFFC
07FFFFFFFFFC
03FFFFFFFFFC
01FFFFFFFFF8
01FFFFFFFFF0
00FFFFFFFFE0
003FFFFFFF80
001FFFFFFF00
0007FFFFF800
0001FFFFC000
00001FFC0000
ENDCHAR
ENDFONT
